<svg width="58" height="58" viewBox="0 0 58 58" fill="none" xmlns="http://www.w3.org/2000/svg">
<path d="M27.6179 4.9957C23.3585 5.55078 19.8581 8.91524 19.0312 13.2539C18.8499 14.1715 18.8839 16.1539 19.0878 17.1281C20.0507 21.818 24.1742 25.1484 28.9999 25.1484C33.8257 25.1484 37.9492 21.818 38.9121 17.1281C39.116 16.1539 39.1499 14.1715 38.9687 13.2539C38.5382 10.9996 37.5753 9.23242 35.8761 7.62383C34.3581 6.18516 32.3757 5.25625 30.2347 4.98438C29.1699 4.85977 28.7054 4.85977 27.6179 4.9957ZM30.9484 8.72266C33.6671 9.56094 35.5816 12.1551 35.5816 14.9984C35.5703 16.8676 34.9472 18.4082 33.6331 19.7109C32.3984 20.957 30.7445 21.6367 28.9999 21.6367C27.2554 21.6367 25.6015 20.957 24.3667 19.7109C23.064 18.4082 22.4296 16.8676 22.4183 15.0098C22.4183 11.8266 24.7406 9.0625 27.9011 8.49609C28.7054 8.36016 30.0988 8.46211 30.9484 8.72266Z" fill="#5E5E5E"/>
<path d="M9.78745 14.4432C4.99566 15.4854 2.36753 20.7303 4.46324 25.0916C6.04917 28.4221 9.66285 30.1213 13.2085 29.2264C17.8871 28.0369 20.2773 22.86 18.1363 18.5213C16.607 15.4287 13.1066 13.7182 9.78745 14.4432ZM12.9707 18.1701C14.8171 19.0084 15.8367 21.1948 15.2363 23.0186C14.0242 26.6662 9.2437 26.9721 7.62378 23.5057C7.35191 22.928 7.30659 22.6787 7.30659 21.8631C7.30659 21.0022 7.35191 20.8096 7.68042 20.1412C8.05425 19.3709 8.76792 18.6233 9.45894 18.2608C10.5011 17.717 11.9058 17.683 12.9707 18.1701Z" fill="#5E5E5E"/>
<path d="M45.0293 14.4547C40.2262 15.5309 37.6887 20.8664 39.875 25.2844C41.1551 27.8672 43.7493 29.4531 46.6719 29.4531C50.8747 29.4531 54.2504 26.0887 54.2618 21.8859C54.2731 18.6008 52.0528 15.5988 48.8809 14.6133C47.8274 14.2848 46.1055 14.2168 45.0293 14.4547ZM47.6348 17.9437C48.8582 18.2609 49.7645 19.0086 50.3196 20.1414C50.6481 20.8098 50.6934 21.0023 50.6934 21.8633C50.6934 22.6789 50.6481 22.9281 50.3762 23.5059C49.6852 24.9898 48.2465 25.9414 46.6719 25.9414C44.3497 25.9414 42.4805 23.959 42.6165 21.6594C42.7637 19.1219 45.2332 17.298 47.6348 17.9437Z" fill="#5E5E5E"/>
<path d="M23.166 26.0093C22.2824 26.1226 21.3988 26.3491 20.7191 26.621C19.1558 27.2554 17.5586 28.5921 16.7316 29.9968C16.4031 30.5292 16.3351 30.5858 16.0859 30.5179C15.5762 30.3706 7.70311 30.3366 6.91014 30.4726C3.97616 30.9823 1.35936 33.2706 0.362486 36.2159L0.0566266 37.0995L0.0226422 42.9788C-0.0113422 48.6769 -1.40322e-05 48.8694 0.226548 49.5604C0.838267 51.3956 2.44686 52.7437 4.32733 53.0155C5.27889 53.1628 52.7211 53.1628 53.6726 53.0155C55.5531 52.7437 57.1617 51.3956 57.7734 49.5604C58 48.8694 58.0113 48.6769 57.9773 42.9788L57.9433 37.0995L57.6375 36.2159C56.6406 33.2706 54.0238 30.9823 51.0898 30.4726C50.2969 30.3366 42.4238 30.3706 41.914 30.5179C41.6648 30.5858 41.5969 30.5292 41.2683 29.9968C40.4527 28.6147 38.8441 27.2554 37.3375 26.6437C35.8082 26.0206 35.8308 26.0206 29.4531 25.9979C26.1793 25.9753 23.3586 25.9866 23.166 26.0093ZM34.7773 29.5663C36.6125 29.8608 38.1871 31.2089 38.8328 33.0554C38.9914 33.5312 39.014 34.5167 39.048 41.5968L39.0933 49.6171H29H18.9066L18.9519 41.5968C18.9859 34.5167 19.0086 33.5312 19.1672 33.0554C19.8015 31.2542 21.3875 29.8608 23.1094 29.5776C23.993 29.4417 33.8711 29.4304 34.7773 29.5663ZM15.157 33.939L15.4062 34.0069V41.812V49.6284L10.0027 49.5944L4.58788 49.5604L4.21405 49.2999C3.43241 48.7448 3.45506 48.8808 3.45506 43.2167C3.45506 38.153 3.45506 38.119 3.72694 37.3487C4.2367 35.8534 5.51678 34.5733 6.96678 34.1089C7.5785 33.905 7.99764 33.8823 11.2715 33.8823C13.2652 33.871 15.0098 33.905 15.157 33.939ZM50.9879 34.0976C52.4719 34.562 53.7519 35.8308 54.273 37.3487C54.5449 38.119 54.5449 38.153 54.5449 43.2167C54.5449 48.8808 54.5676 48.7448 53.7859 49.2999L53.4121 49.5604L48.0086 49.5944L42.5937 49.6284V41.812C42.5937 34.4714 42.6051 33.9956 42.7976 33.9503C42.8996 33.9163 44.6328 33.8937 46.6265 33.8823C49.9797 33.871 50.3308 33.8937 50.9879 34.0976Z" fill="#5E5E5E"/>
</svg>
