<svg width="124" height="48" viewBox="0 0 124 48" fill="none" xmlns="http://www.w3.org/2000/svg">
<path d="M57.7251 31.9328H72.7945L72.3465 26.7728H58.2139L57.7251 31.9328ZM65.1784 19.6128L69.2105 28.6928L68.9661 30.4128L72.3872 37.3328H80.207L65.1784 7.57281L50.1904 37.3328H57.9695L61.5128 30.1328L61.187 28.6528L65.1784 19.6128Z" fill="white"/>
<path d="M82.217 12.0128C82.217 12.9728 82.57 13.7595 83.276 14.3728C83.9819 14.9861 84.8236 15.2928 85.8011 15.2928C86.8057 15.2928 87.6474 14.9861 88.3263 14.3728C89.0322 13.7595 89.3852 12.9728 89.3852 12.0128C89.3852 11.0528 89.0322 10.2795 88.3263 9.69281C87.6474 9.07948 86.8057 8.77281 85.8011 8.77281C84.8236 8.77281 83.9819 9.07948 83.276 9.69281C82.57 10.2795 82.217 11.0528 82.217 12.0128ZM82.828 18.9328V37.3328H88.7743V18.9328H82.828Z" fill="white"/>
<path d="M93.8395 6.13281V37.3328H100.03V6.13281H93.8395Z" fill="white"/>
<path d="M124 18.9328H117.687L111.7 33.6528L114.877 33.6928L108.808 18.9328H102.047L110.152 35.8528L105.591 46.1328H111.781L124 18.9328Z" fill="white"/>
<g clip-path="url(#clip0_1417_11975)">
<path d="M30.7196 12.4467H29.0809V5.25301C29.0809 3.50012 27.6727 2.07458 25.9426 2.07458H24.9434V0.415039H25.9426C28.5769 0.415039 30.7196 2.58572 30.7196 5.25301V12.4467Z" fill="#D55437"/>
<path d="M11.7132 0.416016V2.07555H10.7136C8.98464 2.07555 7.5753 3.49861 7.5753 5.25357V12.4477H5.93652V5.25357C5.93652 2.58586 8.07922 0.416016 10.7136 0.416016H11.7132Z" fill="#D55437"/>
<path d="M22.5084 2.48931H14.149C13.4701 2.48931 12.9199 1.93212 12.9199 1.24465C12.9199 0.55719 13.4701 0 14.149 0H22.5084C23.1873 0 23.7375 0.55719 23.7375 1.24465C23.7375 1.93212 23.1873 2.48931 22.5084 2.48931Z" fill="#D55437"/>
<path d="M19.4196 47.9907H5.11724C4.85503 47.9907 4.60102 47.97 4.35111 47.9285C3.84309 47.8496 3.35965 47.692 2.91309 47.4762L13.4955 36.7598L19.3869 47.9285L19.4196 47.9907Z" fill="#D55437"/>
<path d="M8.66912 31.8769L0 40.6559V27.1846L8.66912 31.8769Z" fill="#D55437"/>
<path d="M36.6553 16.0362V42.8087C36.6553 45.3934 34.7871 47.5384 32.3453 47.9283C32.0831 47.9698 31.8168 47.9906 31.5423 47.9906H23.5779L23.5697 47.9283L22.9797 43.4517L24.4669 41.9457C24.9913 41.4105 24.9913 40.5475 24.4669 40.0165C23.9425 39.4854 23.0862 39.4854 22.5618 40.0165L22.5291 40.0497L21.0828 29.076L25.1101 24.9977C25.8885 24.2135 26.5645 23.3381 27.1217 22.4046C27.683 21.4711 28.1255 20.4754 28.4327 19.4465C28.7031 18.5587 28.4737 17.7496 27.9616 17.2269C27.4454 16.7083 26.6465 16.4759 25.7656 16.7456C24.7537 17.0609 23.7704 17.509 22.8486 18.0732C21.9268 18.6416 21.0624 19.3262 20.2839 20.1145L16.2566 24.1928L5.42434 22.7241L5.45712 22.6951C5.98153 22.1599 5.98153 21.2969 5.45712 20.7658C4.92862 20.2306 4.07645 20.2306 3.55204 20.7658L2.06486 22.2719L0 21.9898V16.0362C0 13.1735 2.29019 10.8584 5.11707 10.8584H31.5423C34.3651 10.8584 36.6553 13.1735 36.6553 16.0362Z" fill="#D55437"/>
</g>
<defs>
<clipPath id="clip0_1417_11975">
<rect width="36.6553" height="48" fill="white"/>
</clipPath>
</defs>
</svg>
