<svg width="102" height="38" viewBox="0 0 102 38" fill="none" xmlns="http://www.w3.org/2000/svg">
<path d="M44.44 25.275H57.39L57.005 20.76H44.86L44.44 25.275ZM50.845 14.495L54.31 22.44L54.1 23.945L57.04 30H63.76L50.845 3.96L37.965 30H44.65L47.695 23.7L47.415 22.405L50.845 14.495ZM65.4873 7.845C65.4873 8.685 65.7906 9.37333 66.3973 9.91C67.004 10.4467 67.7273 10.715 68.5673 10.715C69.4306 10.715 70.154 10.4467 70.7373 9.91C71.344 9.37333 71.6473 8.685 71.6473 7.845C71.6473 7.005 71.344 6.32833 70.7373 5.815C70.154 5.27833 69.4306 5.01 68.5673 5.01C67.7273 5.01 67.004 5.27833 66.3973 5.815C65.7906 6.32833 65.4873 7.005 65.4873 7.845ZM66.0123 13.9V30H71.1223V13.9H66.0123ZM75.4752 2.7V30H80.7952V2.7H75.4752ZM101.394 13.9H95.9688L90.8238 26.78L93.5538 26.815L88.3388 13.9H82.5287L89.4938 28.705L85.5738 37.7H90.8938L101.394 13.9Z" fill="#09100D"/>
<path d="M23.4656 9.33491H22.2137V3.93964C22.2137 2.62498 21.1381 1.55582 19.8165 1.55582H19.0532V0.311165H19.8165C21.8288 0.311165 23.4656 1.93917 23.4656 3.93964V9.33491Z" fill="#FFD91C"/>
<path d="M8.94732 0.312096V1.55675H8.18371C6.86305 1.55675 5.78648 2.62404 5.78648 3.94026V9.33584H4.53467V3.94026C4.53467 1.93948 6.17142 0.312096 8.18371 0.312096H8.94732Z" fill="#FFD91C"/>
<path d="M17.1935 1.86698H10.808C10.2894 1.86698 9.86914 1.44909 9.86914 0.933491C9.86914 0.417893 10.2894 0 10.808 0H17.1935C17.7121 0 18.1324 0.417893 18.1324 0.933491C18.1324 1.44909 17.7121 1.86698 17.1935 1.86698Z" fill="#FFD91C"/>
<path d="M14.834 35.9932H3.90879C3.7085 35.9932 3.51447 35.9777 3.32357 35.9465C2.9355 35.8874 2.56622 35.7692 2.2251 35.6074L10.3087 27.57L14.809 35.9465L14.834 35.9932Z" fill="#FFD91C"/>
<path d="M6.62211 23.9076L0 30.4919V20.3884L6.62211 23.9076Z" fill="#FFD91C"/>
<path d="M28 12.0274V32.1068C28 34.0453 26.5729 35.6541 24.7077 35.9466C24.5074 35.9777 24.304 35.9932 24.0943 35.9932H18.0105L18.0042 35.9466L17.5536 32.5891L18.6896 31.4596C19.0902 31.0582 19.0902 30.4109 18.6896 30.0127C18.289 29.6144 17.635 29.6144 17.2344 30.0127L17.2093 30.0376L16.1046 21.8073L19.181 18.7485C19.7756 18.1604 20.2919 17.5039 20.7176 16.8038C21.1463 16.1036 21.4843 15.3569 21.719 14.5852C21.9256 13.9193 21.7503 13.3125 21.3591 12.9204C20.9648 12.5315 20.3545 12.3572 19.6817 12.5595C18.9087 12.796 18.1576 13.132 17.4534 13.5552C16.7493 13.9815 16.089 14.4949 15.4944 15.0861L12.418 18.1449L4.14351 17.0434L4.16855 17.0216C4.56913 16.6202 4.56913 15.973 4.16855 15.5747C3.76484 15.1733 3.11389 15.1733 2.71331 15.5747L1.57729 16.7042L0 16.4926V12.0274C0 9.88038 1.74941 8.14408 3.9088 8.14408H24.0943C26.2506 8.14408 28 9.88038 28 12.0274Z" fill="#FFD91C"/>
</svg>
