<svg width="40" height="40" viewBox="0 0 40 40" fill="none" xmlns="http://www.w3.org/2000/svg">
<g clip-path="url(#clip0_535_108)">
<path d="M16.3281 1.16406C15.6328 1.39062 15.2266 1.63281 14.7188 2.14062C13.5391 3.32031 13.2734 4.96875 13.9688 6.77344C14.4063 7.91406 15.7578 9.41406 17.2344 10.4062C18.2031 11.0625 19.6719 11.7969 20 11.7969C20.3359 11.7969 21.7266 11.0937 22.7813 10.3906C23.8906 9.64844 25.125 8.41406 25.6406 7.53906C27.1953 4.86719 26.2656 1.92969 23.6016 1.14062C22.625 0.851562 21.2891 1.04687 20.4688 1.60156C20.2422 1.75 20.0313 1.875 20 1.875C19.9688 1.875 19.7578 1.75 19.5313 1.60156C18.6875 1.03906 17.3047 0.843749 16.3281 1.16406ZM18.5469 2.5C18.7578 2.60156 19.1094 2.85156 19.3281 3.0625C19.875 3.57812 20.1016 3.57812 20.6641 3.05469C21.25 2.52344 21.7109 2.32031 22.4219 2.28125C23.1641 2.24219 23.7422 2.44531 24.2734 2.92969C25.3047 3.85156 25.4297 5.20312 24.625 6.75781C24.0469 7.86719 22.3047 9.35937 20.6016 10.2031L20 10.5L19.3984 10.2031C17.8828 9.46094 16.2813 8.15625 15.5781 7.09375C15.1094 6.39844 14.9063 5.80469 14.8672 5.03906C14.8359 4.52344 14.8594 4.33594 15.0078 3.94531C15.2344 3.32812 15.8828 2.67187 16.4844 2.4375C17.0703 2.20312 18 2.23437 18.5469 2.5Z" fill="#1ECCD1"/>
<path d="M9.88282 10.1016C9.41407 10.2578 9.2422 10.3672 8.7422 10.8281C8.4922 11.0625 8.23438 11.25 8.17188 11.25C7.97657 11.25 6.51563 12.0234 6.00782 12.3984C4.88282 13.2188 3.76563 14.4922 2.9297 15.8906C1.44532 18.3672 0.171885 22.6875 0.023447 25.7109C-0.023428 26.6875 -0.023428 26.6953 0.203135 27.1094C0.507822 27.6641 0.87501 27.9141 1.84376 28.2109L2.64845 28.4609L2.22657 28.9219C1.9922 29.1719 1.69532 29.6016 1.56251 29.8828C1.12501 30.8047 1.09376 31.0859 1.09376 35.0078C1.09376 38.5 1.09376 38.5781 1.25782 38.7812L1.41407 38.9844H20.5547H39.6875L39.8438 38.8281C40 38.6719 40.0078 38.6016 39.9844 34.625L39.9609 30.5859L39.75 30.0078C39.3203 28.8281 38.4844 27.8828 37.3984 27.3594C36.8516 27.0859 33.3203 25.9922 32.4375 25.8203C32.2109 25.7734 32.0313 25.5938 32.0313 25.4062C32.0313 25.3672 32.2813 25.1797 32.5781 25.0078C33.6641 24.3594 34.6719 23.1875 35.0781 22.1172L35.25 21.6562L35.7422 21.625C36.1563 21.6016 36.2969 21.5547 36.5313 21.3594C37.0156 20.9688 37.1094 20.7109 37.1094 19.75C37.1094 18.8906 37.0469 18.5859 36.8047 18.3203C36.6875 18.1953 36.6484 17.9766 36.6172 17.1094C36.5703 15.9375 36.4063 15.2344 36.0078 14.4297C35.1641 12.75 33.8359 11.6641 31.9922 11.1641C31.4297 11.0078 31.1797 10.9922 29.5703 10.9922C27.9688 10.9922 27.7031 11.0078 27.1484 11.1562C25.3672 11.6406 23.9453 12.7969 23.1641 14.4141C22.7188 15.3203 22.5859 15.8984 22.5234 17.1484C22.4766 18.0781 22.4609 18.1875 22.2734 18.4297C22.0938 18.6719 22.0703 18.7812 22.0469 19.5234C22.0156 20.3984 22.0859 20.7891 22.3516 21.125C22.5859 21.4297 23.0625 21.6406 23.4922 21.6406L23.8672 21.6484L24.2891 22.5078C24.6484 23.2578 24.7969 23.4688 25.3438 24.0234C25.7109 24.3906 26.1953 24.7891 26.5078 24.9609C26.8438 25.1641 27.0313 25.3203 27.0313 25.4062C27.0313 25.5859 26.7578 25.8594 26.5781 25.8594C26.2266 25.8594 22.1094 27.1406 21.6094 27.4062C20.9922 27.7344 20.2031 28.4766 19.8828 29.0156L19.6641 29.3906L19.2578 28.9297L18.8438 28.4766L19.6016 28.2266C20.5234 27.9141 20.6328 27.8516 20.9766 27.5156C21.3984 27.0938 21.5156 26.625 21.4531 25.6328C21.3125 23.5078 20.6641 20.7812 19.7344 18.4062C18.3203 14.7969 16.2031 12.3906 13.5 11.3203C13.2813 11.2344 12.9141 10.9922 12.6875 10.7891C12.0781 10.2344 11.6563 10.0547 10.8594 10.0234C10.4531 10.0078 10.0703 10.0391 9.88282 10.1016ZM11.3984 11.4062C11.7266 11.5703 12.1484 12.0312 12.2109 12.2812C12.25 12.4141 12.2266 12.4297 12.0469 12.3906C11.5313 12.2812 10.3125 12.25 9.81251 12.3359C9.51563 12.3906 9.25782 12.4141 9.2422 12.3906C9.21876 12.3672 9.28126 12.2188 9.37501 12.0547C9.79688 11.3359 10.7031 11.0469 11.3984 11.4062ZM31.0156 12.2656C32.6172 12.4766 33.9766 13.375 34.7266 14.7188C35.0313 15.2812 35.2813 16.0391 35.3516 16.6406L35.3984 17.0703L35.2578 16.8047C35.0469 16.3984 34.7813 16.3594 34.1484 16.6328C33.5313 16.8984 33.3594 16.9453 32.5625 17.0312C31.6641 17.1328 30.8438 17.0078 29 16.4766C26.6406 15.7969 25.8984 15.6875 24.8672 15.8672C24.25 15.9766 24.0547 16.125 23.8906 16.6562L23.7578 17.0703L23.7969 16.6406C23.9141 15.5234 24.5781 14.2109 25.375 13.5156C26.1406 12.8359 27.0859 12.3984 28.0625 12.2734C28.7578 12.1797 30.3281 12.1797 31.0156 12.2656ZM7.89063 12.8047C7.89063 12.8359 7.65626 13.0078 7.3672 13.1719C6.68751 13.5625 5.64063 14.5625 5.15626 15.2812C4.95313 15.5938 4.67188 16.125 4.54688 16.4609C4.31251 17.0703 4.06251 18.1719 4.06251 18.6094C4.06251 18.7734 3.97657 18.9453 3.79688 19.1484C3.44532 19.5312 3.33595 19.9609 3.37501 20.7812C3.4297 21.8672 3.85938 22.3984 4.75782 22.4766L5.19532 22.5156L5.57032 23.2969C5.89845 23.9844 6.03907 24.1719 6.66407 24.7969C7.12501 25.2578 7.54688 25.6016 7.83595 25.75C8.25001 25.9531 8.28126 26 8.26563 26.2109C8.2422 26.3984 8.19532 26.4531 7.96876 26.5156C7.82032 26.5547 6.9297 26.8047 6.00001 27.0781C5.06251 27.3516 4.23438 27.5781 4.15626 27.5781C3.87501 27.5781 1.54688 26.7812 1.40626 26.6406C1.21095 26.4453 1.20313 25.9844 1.3672 24.7188C1.60938 22.8906 2.06251 21.1016 2.77345 19.2109C3.8672 16.2891 5.4297 14.1875 7.37501 13.0156C7.89063 12.7031 7.89063 12.7031 7.89063 12.8047ZM14.5313 13.3047C15.6094 14.0391 16.6172 15.1641 17.4609 16.6016C18.8281 18.9297 19.9688 22.6953 20.1953 25.6719C20.2734 26.6641 20.25 26.6875 18.5938 27.2109L17.3047 27.625L15.6797 27.1406C14.7891 26.875 13.875 26.6094 13.6484 26.5625C12.9375 26.3906 12.8438 26.1484 13.3828 25.8828C14.4844 25.3438 15.5547 24.1641 16.0625 22.9297C16.2188 22.5391 16.2188 22.5391 16.6484 22.4922C17.3125 22.4219 17.7734 22.1094 17.9609 21.6172C18.0625 21.3438 18.0703 19.8438 17.9766 19.5859C17.9375 19.4766 17.7969 19.2734 17.6719 19.1328C17.4766 18.9062 17.4297 18.7578 17.3516 18.1797C17.0703 16.0703 15.9766 14.3594 14.1875 13.2422C13.8594 13.0391 13.5938 12.8438 13.5938 12.8047C13.5938 12.7109 13.8125 12.8281 14.5313 13.3047ZM11.7813 13.6406C12.6172 13.8047 13.6719 14.3359 14.2813 14.8828C15.3125 15.8203 15.9141 16.9688 16.1172 18.375L16.1641 18.6719H14.3203C12.2188 18.6719 11.9531 18.625 10.8125 18.0859C10.0547 17.7344 9.3672 17.2969 8.67188 16.7344C8.15626 16.3125 7.84376 16.1719 7.42188 16.1719C7.07813 16.1719 6.60938 16.375 6.39063 16.6172C6.20313 16.8203 6.04688 17.2188 5.85157 18C5.69532 18.6172 5.66407 18.6719 5.4922 18.6719C5.31251 18.6719 5.3047 18.6562 5.35157 18.2969C5.52345 17.0703 6.03126 16.0703 6.94532 15.1484C7.50782 14.5859 7.7422 14.4141 8.35938 14.1094C9.50782 13.5469 10.5859 13.3984 11.7813 13.6406ZM26.5938 17.1406C26.9141 17.2031 27.7734 17.4297 28.4922 17.6484C30.4844 18.2344 30.9063 18.3125 32.0703 18.3047C32.7969 18.2969 33.2422 18.25 33.6484 18.1484L34.2109 18L34.2656 18.4297C34.3359 19.0078 34.2422 20.4766 34.0938 21.0547C33.6875 22.6172 32.3125 23.9922 30.7344 24.4141C30.1406 24.5781 29 24.5781 28.4063 24.4141C27.2578 24.1094 26.0156 23.1406 25.4922 22.1484C25.0078 21.2188 24.9219 20.7656 24.9219 19.1484C24.9219 17.7109 24.9844 17.2188 25.1719 17.0938C25.3281 17 25.9453 17.0234 26.5938 17.1406ZM8.08595 17.8906C9.53907 19.0156 10.7266 19.5859 12.1875 19.875C12.375 19.9141 12.3828 19.9375 12.3594 20.4297C12.3203 21.1328 12.375 21.3125 12.6875 21.4531C12.9141 21.5625 12.9766 21.5703 13.1719 21.4766C13.5078 21.3125 13.6094 21.0547 13.5703 20.4453L13.5391 19.9219H14.3828H15.2344V20.6016C15.2344 21.9609 14.8047 23.0078 13.8672 23.9453C12.9922 24.8203 11.9219 25.2656 10.7031 25.2578C9.46095 25.2422 8.50001 24.8281 7.57813 23.9141C6.62501 22.9688 6.25001 22.0547 6.25001 20.6484C6.25001 19.8594 6.25001 19.8516 6.47657 19.6953C6.73438 19.5078 6.79688 19.375 7.07032 18.3203C7.29688 17.4922 7.32032 17.4219 7.41407 17.4219C7.44532 17.4219 7.7422 17.6328 8.08595 17.8906ZM29.5703 25.8203C29.7422 25.8203 30.0859 25.7969 30.3359 25.7812L30.7969 25.7422L30.8984 26.0391C31.0156 26.375 31.0391 26.3672 30.1172 26.4766C29.5547 26.5469 29.3516 26.5312 28.5469 26.3984L28.0703 26.3125L28.1563 26.0078L28.2344 25.7031L28.75 25.7578C29.0313 25.7969 29.3984 25.8203 29.5703 25.8203ZM10.4297 26.5156C10.6484 26.5391 11.0391 26.5312 11.3047 26.5L11.7813 26.4375L11.8672 26.7344C11.9922 27.1406 12.4219 27.5547 12.8281 27.6562C13.7656 27.8828 17.0234 28.8594 17.3359 29.0078C17.8281 29.2344 18.5234 29.9453 18.7734 30.4844C19.0859 31.1484 19.1406 31.7344 19.1406 34.8594V37.7344H18.3594H17.5859L17.5625 34.7812C17.5391 31.4531 17.5703 31.6484 16.8828 30.9766C16.0938 30.2031 15.1875 29.8438 14.0625 29.8438C12.9609 29.8438 11.8906 30.2812 11.2109 31.0156C10.7969 31.4609 10.7656 31.4531 10.1953 30.9453C9.32032 30.1719 8.4922 29.8438 7.38282 29.8438C6.00001 29.8438 4.71095 30.5078 4.14063 31.5156C3.92188 31.8906 3.90626 31.9688 3.90626 32.75C3.90626 33.4922 3.92188 33.6094 4.06251 33.75C4.29688 33.9844 4.71095 33.9844 4.96095 33.7422C5.08595 33.6172 5.12501 33.4609 5.14063 32.8984C5.17188 32.2109 5.17188 32.1953 5.46876 31.8906C5.63282 31.7188 5.97657 31.4766 6.22657 31.3594C6.62501 31.1641 6.76563 31.1328 7.38282 31.1328C7.9922 31.1328 8.14063 31.1641 8.51563 31.3438C8.75001 31.4609 9.16407 31.7578 9.43751 32C10.3672 32.8359 11.0938 32.8438 12 32.0156C12.6953 31.3906 13.2266 31.1484 13.9844 31.1094C14.7578 31.0703 15.3125 31.2734 15.8984 31.8125L16.3281 32.2031V34.9688V37.7344H10.75H5.17188L5.14063 36.7578C5.1172 35.9062 5.09376 35.7656 4.96095 35.6328C4.71095 35.3906 4.29688 35.3906 4.06251 35.625C3.92188 35.7656 3.90626 35.8828 3.90626 36.7578V37.7344H3.12501H2.34376V34.625C2.34376 31.3281 2.3672 31.1094 2.7422 30.3594C2.96876 29.9062 3.71095 29.1797 4.15626 28.9844C4.53126 28.8203 8.00001 27.7812 8.46095 27.7031C8.94532 27.6172 9.53126 26.9922 9.53126 26.5625C9.53126 26.4219 9.57032 26.4062 9.78907 26.4375C9.92188 26.4609 10.2188 26.4922 10.4297 26.5156ZM28.3281 27.6484L28.9688 27.7812L28.3906 28.3125C28.0078 28.6562 27.7969 28.8047 27.7734 28.7344C27.75 28.6797 27.6484 28.3594 27.5469 28.0234C27.3594 27.4219 27.3594 27.4141 27.5156 27.4688C27.6094 27.4922 27.9688 27.5781 28.3281 27.6484ZM31.5938 28.0234C31.4922 28.3594 31.4063 28.6562 31.4063 28.6875C31.4063 28.8438 31.1641 28.6953 30.6719 28.2422C30.1563 27.75 30.1484 27.7344 30.3594 27.7266C30.4844 27.7266 30.8359 27.6562 31.1328 27.5781C31.4375 27.5 31.7031 27.4375 31.7344 27.4297C31.7578 27.4297 31.7031 27.6953 31.5938 28.0234ZM24.7578 28.1797C24.5781 28.5156 24.3828 28.875 24.3203 28.9844C24.0625 29.4844 24.0703 29.5078 26.6094 33.4375C27.9219 35.4766 29.0859 37.2266 29.1875 37.3203C29.4375 37.5469 29.7031 37.5469 29.9531 37.3203C30.0625 37.2266 31.2266 35.4844 32.5391 33.4453C35.3203 29.125 35.1641 29.5312 34.4922 28.3594C34.2578 27.9531 34.0781 27.6172 34.0859 27.6016C34.1406 27.5547 36.4844 28.3047 36.8594 28.4922C37.6563 28.8906 38.2891 29.6406 38.5938 30.5391C38.7422 30.9844 38.75 31.1953 38.75 34.375V37.7344H37.6953H36.6406V34.9688C36.6406 32.1641 36.6172 31.875 36.3438 31.6719C36.1406 31.5156 35.7734 31.5391 35.5703 31.7344L35.3906 31.8984V34.8203V37.7344H29.5313H23.6719V36.7891C23.6719 36.2734 23.6406 35.7812 23.5938 35.7031C23.4766 35.4844 23.1172 35.3906 22.8359 35.5078C22.5156 35.6484 22.4219 35.9531 22.4219 36.9219V37.7344H21.4063H20.3828L20.4063 34.2344L20.4297 30.7344L20.7266 30.1406C21.0703 29.4375 21.6719 28.7969 22.2734 28.4922C22.6094 28.3281 24.7344 27.625 25.0234 27.5859C25.0625 27.5781 24.9453 27.8516 24.7578 28.1797ZM26.9297 30.3281C27.2813 31.5 27.5625 32.4609 27.5469 32.4766C27.5234 32.5 25.625 29.6016 25.5625 29.4453C25.5313 29.3828 26.1875 28.2031 26.25 28.2031C26.2734 28.2031 26.5781 29.1562 26.9297 30.3281ZM33.4453 29.1016L33.6172 29.4219L32.6172 30.9766C32.0625 31.8359 31.5859 32.5703 31.5625 32.6016C31.5078 32.6641 32.7031 28.6719 32.8438 28.3047C32.8906 28.1875 32.9297 28.2109 33.0938 28.4766C33.1953 28.6484 33.3516 28.9297 33.4453 29.1016ZM29.7188 31.2266C29.7422 31.3516 29.8125 31.8594 29.8828 32.3594L30.0078 33.2734L29.7891 33.9844L29.5781 34.6953L29.3594 33.9766L29.1406 33.2656L29.2969 32.1641C29.3828 31.5547 29.4531 31.0469 29.4531 31.0391C29.4531 31.0234 29.5 31.0156 29.5625 31.0156C29.625 31.0156 29.6953 31.1094 29.7188 31.2266Z" fill="#1ECCD1"/>
<path d="M26.875 18.9063C26.6719 19.1095 26.6172 19.3673 26.6563 19.8907C26.7032 20.4766 26.9141 20.672 27.4453 20.6329C27.5157 20.6329 27.6485 20.5548 27.7344 20.4688C27.8672 20.336 27.8907 20.211 27.8907 19.6954C27.8907 19.1173 27.875 19.0626 27.6875 18.9141C27.4219 18.711 27.0782 18.7032 26.875 18.9063Z" fill="#1ECCD1"/>
<path d="M31.4531 18.9138C31.2656 19.0623 31.2499 19.1169 31.2499 19.656C31.2499 19.9841 31.2812 20.3123 31.3281 20.3904C31.4296 20.5857 31.8359 20.7107 32.0703 20.6248C32.4062 20.4998 32.5234 20.2185 32.4843 19.6013C32.4609 19.1326 32.4218 19.0232 32.2734 18.8982C32.039 18.7029 31.7109 18.7107 31.4531 18.9138Z" fill="#1ECCD1"/>
<path d="M27.9062 22.1562C27.7734 22.2499 27.7344 22.3515 27.7344 22.6093C27.7344 22.9062 27.7734 22.9843 28.0547 23.2421C28.5234 23.664 28.8438 23.7812 29.5703 23.7812C30.1016 23.789 30.2578 23.7577 30.625 23.5702C31.1719 23.2968 31.5156 22.8671 31.4531 22.539C31.3438 21.9999 30.8047 21.8749 30.2969 22.2812C30.0312 22.4999 29.9219 22.539 29.5781 22.539C29.2344 22.539 29.125 22.4999 28.8672 22.2812C28.5234 21.9999 28.1875 21.953 27.9062 22.1562Z" fill="#1ECCD1"/>
<path d="M8.28906 19.6954C8.1875 19.7345 8.05469 19.8283 8 19.9064C7.85938 20.0861 7.85938 21.0861 8 21.2658C8.26562 21.6173 8.88281 21.5783 9.05469 21.2033C9.10156 21.0939 9.14062 20.8204 9.14062 20.5861C9.14062 20.047 9.02344 19.797 8.72656 19.6876C8.60156 19.6486 8.49219 19.6095 8.48438 19.6173C8.47656 19.6173 8.39062 19.6564 8.28906 19.6954Z" fill="#1ECCD1"/>
<path d="M9.07812 22.9923C8.96875 23.1017 8.90625 23.2736 8.90625 23.4376C8.90625 23.797 9.4375 24.3048 9.96875 24.4611C11.0938 24.7814 12.4219 24.2892 12.5547 23.4923C12.5859 23.2657 12.5625 23.1798 12.3984 23.0157C12.125 22.7423 11.8125 22.7501 11.4453 23.047C10.9453 23.4454 10.4922 23.4298 9.98438 23.0079C9.6875 22.7579 9.30469 22.7501 9.07812 22.9923Z" fill="#1ECCD1"/>
<path d="M22.6719 31.7188C22.461 31.9219 22.3907 32.2891 22.4375 33.0234C22.4688 33.4609 22.5157 33.6406 22.625 33.75C22.8672 33.9844 23.2813 33.9844 23.5157 33.75C23.6563 33.6094 23.6719 33.4922 23.6719 32.75C23.6719 31.9688 23.6563 31.8906 23.4922 31.7344C23.2657 31.5156 22.8985 31.5156 22.6719 31.7188Z" fill="#1ECCD1"/>
</g>
<defs>
<clipPath id="clip0_535_108">
<rect width="40" height="40" fill="white"/>
</clipPath>
</defs>
</svg>
