<svg width="40" height="40" viewBox="0 0 40 40" fill="none" xmlns="http://www.w3.org/2000/svg">
<path d="M5.07812 0.148438C5.03906 0.234375 5 0.5 5 0.734375C5 1.21094 5.17188 1.48438 5.46875 1.48438C5.76562 1.48438 5.9375 1.21094 5.9375 0.734375C5.9375 0.140625 5.85156 0 5.46875 0C5.24219 0 5.14062 0.0390625 5.07812 0.148438Z" fill="#1ECCD1"/>
<path d="M34.1406 0.148438C34.1016 0.234375 34.0625 0.5 34.0625 0.734375C34.0625 1.21094 34.2344 1.48438 34.5312 1.48438C34.8281 1.48438 35 1.21094 35 0.734375C35 0.140625 34.9141 0 34.5312 0C34.3047 0 34.2031 0.0390625 34.1406 0.148438Z" fill="#1ECCD1"/>
<path d="M19.7031 0.75C19.5469 0.859375 19.5312 0.9375 19.5312 1.625L19.5234 2.38281L18.9609 2.82031C16.5391 4.71875 14.0469 7.15625 13.2344 8.42969C13.2188 8.4375 12.9219 8.19531 12.5625 7.88281C12.2031 7.5625 11.7969 7.21094 11.6641 7.09375C11.4141 6.89062 11.4141 6.88281 11.3906 6.08594C11.3672 5.28125 11.3672 5.27344 11.1562 5.20312C11.0156 5.14844 10.8828 5.15625 10.7422 5.21875C10.5547 5.30469 10.5469 5.32812 10.5469 6.09375V6.875L10.2188 7.17188C7.85938 9.26562 6.88281 10.3281 6.33594 11.4219C5.88281 12.3203 5.75 12.8594 5.79688 13.7109C5.83594 14.3906 6.07031 15.0312 6.55469 15.7344L6.79688 16.0859V20.1875V24.2812L6.53906 24.3672C6.21094 24.4766 5.9375 24.7656 5.67969 25.2734C5.5625 25.4844 5.46875 25.6484 5.46094 25.625C5.46094 25.6016 5.375 22.5781 5.28125 18.9062L5.10938 12.2266L5.26562 11.875C5.47656 11.4062 5.48438 10.5469 5.28125 10.1328C5.19531 9.96094 4.91406 9.59375 4.65625 9.3125C3.77344 8.35156 3.75 8.30469 3.75 7.64062C3.75 7.00781 3.64062 6.79688 3.29688 6.79688C2.95312 6.79688 2.8125 7.05469 2.8125 7.6875C2.8125 8.33594 2.80469 8.35156 1.96875 9.25C1.6875 9.54688 1.39062 9.95312 1.30469 10.1484C1.08594 10.625 1.08594 11.3125 1.3125 11.8359L1.48438 12.2266L1.21094 22.6953C1.07031 28.4531 0.945312 33.1719 0.945312 33.1797C0.9375 33.1953 0.765625 33.2031 0.5625 33.2031C0.125 33.2031 0 33.2969 0 33.6328C0 34.0469 0.0546875 34.0625 1.67188 34.0625L3.16406 34.0703L3.46094 34.6875C3.99219 35.8203 5.01562 36.7031 6.10156 36.9766L6.52344 37.0859L6.5625 38.4688C6.60156 39.9609 6.61719 40 7.03906 40C7.41406 40 7.46094 39.8516 7.5 38.4141L7.53906 37.0859L7.96094 36.9766C8.57812 36.8203 9.11719 36.5078 9.65625 35.9766C10.1172 35.5234 10.6406 34.7109 10.7422 34.2734L10.7969 34.0625H11.6562C12.3828 34.0625 12.5078 34.0781 12.4688 34.1797C12.4453 34.2422 11.8281 35.4297 11.0938 36.8047C10.3594 38.1875 9.74219 39.4062 9.71875 39.5078C9.6875 39.6328 9.71875 39.75 9.80469 39.8438C9.94531 40 10.1172 40 20 40C29.6406 40 30.0625 39.9922 30.1797 39.8594C30.2578 39.7812 30.3125 39.6562 30.3125 39.5859C30.3125 39.5156 29.6953 38.2969 28.9453 36.8828C28.1875 35.4609 27.5547 34.2422 27.5312 34.1797C27.4922 34.0781 27.6094 34.0625 28.3438 34.0625H29.2031L29.2578 34.2734C29.3594 34.7109 29.8828 35.5234 30.3438 35.9766C30.8828 36.5078 31.4219 36.8203 32.0391 36.9766L32.4609 37.0859L32.5 38.4141C32.5391 39.8516 32.5859 40 32.9609 40C33.3828 40 33.3984 39.9609 33.4375 38.4688L33.4766 37.0859L33.8984 36.9766C34.9844 36.7031 36.0078 35.8203 36.5391 34.6875L36.8359 34.0703L38.3281 34.0625C39.9453 34.0625 40 34.0469 40 33.6328C40 33.2969 39.875 33.2031 39.4375 33.2031C39.2344 33.2031 39.0625 33.1953 39.0547 33.1797C39.0547 33.1719 38.9297 28.4531 38.7891 22.6953L38.5156 12.2266L38.6875 11.8359C38.9141 11.3125 38.9141 10.625 38.6953 10.1484C38.6094 9.95312 38.3125 9.54688 38.0312 9.25C37.1953 8.35156 37.1875 8.33594 37.1875 7.6875C37.1875 7.04688 37.0469 6.79688 36.6953 6.79688C36.3672 6.79688 36.25 7.02344 36.25 7.65625C36.25 8.30469 36.2188 8.35156 35.3438 9.3125C35.0859 9.59375 34.8047 9.96094 34.7188 10.1328C34.5156 10.5469 34.5234 11.3984 34.7344 11.875L34.8906 12.2266L34.7266 18.8828C34.6406 22.5391 34.5469 25.5547 34.5234 25.5781C34.5 25.6016 34.3984 25.4453 34.2969 25.2266C34.0781 24.7656 33.7109 24.4141 33.3672 24.3359L33.125 24.2812V20.2109V16.1406L33.4297 15.6719C34.1562 14.5547 34.3672 13.625 34.1406 12.5469C33.8516 11.1406 32.5234 9.52344 29.7891 7.25L29.375 6.91406V6.15625C29.375 5.3125 29.2969 5.15625 28.9062 5.15625C28.5391 5.15625 28.4375 5.39062 28.4375 6.21875V6.92969L27.6562 7.625C27.2266 8.00781 26.8438 8.32031 26.8047 8.32031C26.7656 8.32031 26.5625 8.09375 26.3594 7.8125C25.6094 6.80469 23.5625 4.88281 21.3828 3.125L20.4688 2.39062V1.69531C20.4688 1.07031 20.4531 0.992188 20.2734 0.820312C20.0547 0.59375 19.9453 0.578125 19.7031 0.75ZM20.7422 3.84375C21.1328 4.14844 21.9531 4.84375 22.5781 5.38281L23.7031 6.36719L21.8516 6.39062C20.8359 6.39844 19.1641 6.39844 18.1484 6.39062L16.3047 6.36719L17.1953 5.57812C18.5078 4.41406 19.875 3.28906 19.9609 3.28125C20.0078 3.28125 20.3594 3.53125 20.7422 3.84375ZM25.0938 7.79688C25.875 8.64844 26.4531 9.67969 26.6797 10.6484C26.9844 11.9375 26.7188 12.8438 25.5703 14.3906L25.0625 15.0781H19.9688H14.8672L14.4375 14.4688C13.7266 13.4844 13.5156 13.1172 13.3438 12.5547C12.9141 11.125 13.5391 9.28906 15.0234 7.67188L15.3359 7.34375H20H24.6719L25.0938 7.79688ZM11.7969 8.47656C12.2188 8.84375 12.5938 9.1875 12.6406 9.24219C12.7031 9.32031 12.6719 9.50781 12.5234 9.96875C12.25 10.7734 12.2188 12.2031 12.4531 12.8906C12.6484 13.4844 13.0469 14.2031 13.5547 14.8906L13.9844 15.4688H10.75H7.51562L7.26562 15.0781C6.60938 14.0547 6.54688 13.1484 7.05469 12.0703C7.21875 11.7422 7.45312 11.3203 7.59375 11.1406C8.125 10.4609 10.8203 7.8125 10.9844 7.8125C11.0156 7.8125 11.375 8.10938 11.7969 8.47656ZM29.8984 8.61719C30.4062 9.0625 31.2109 9.83594 31.6875 10.3281C32.3984 11.0703 32.6094 11.3516 32.8906 11.9141C33.4531 13.0469 33.4062 13.9453 32.7422 14.9844L32.4219 15.4688H29.2188C27.4609 15.4688 26.0156 15.4531 26.0156 15.4375C26.0156 15.4141 26.2109 15.1406 26.4531 14.8281C27.6406 13.2656 27.9844 11.6719 27.5 10.0391C27.4062 9.73438 27.3281 9.4375 27.3203 9.375C27.3047 9.26562 28.7969 7.8125 28.9219 7.8125C28.9609 7.8125 29.3984 8.17969 29.8984 8.61719ZM4.5 10.7578C4.53125 10.8672 4.52344 11.0859 4.48438 11.2422L4.41406 11.5234L3.30469 11.5469L2.20312 11.5703L2.10938 11.2891C1.96094 10.8516 2.07812 10.5859 2.71094 9.88281L3.30469 9.23438L3.875 9.89062C4.19531 10.25 4.47656 10.6406 4.5 10.7578ZM37.8906 10.6797C37.9531 10.8594 37.9531 11.0156 37.8906 11.2422L37.8047 11.5625H36.7109H35.625L35.5469 11.3594C35.4453 11.0938 35.4531 10.7812 35.5703 10.5703C35.625 10.4766 35.8906 10.1406 36.1719 9.82031L36.6797 9.23438L37.2422 9.83594C37.5547 10.1641 37.8438 10.5391 37.8906 10.6797ZM4.25 15.6016C4.28125 17.3125 4.32812 18.7734 4.34375 18.8438C4.38281 18.9766 4.29688 18.9844 3.3125 18.9844H2.25L2.29688 16.5C2.32031 15.1406 2.36719 13.6797 2.39062 13.2578L2.4375 12.5H3.32031H4.20312L4.25 15.6016ZM37.6094 13.2578C37.6328 13.6797 37.6797 15.1406 37.7031 16.5L37.75 18.9844H36.6797H35.6094L35.6562 18.7656C35.6797 18.6484 35.7188 17.1953 35.75 15.5234L35.8047 12.5H36.6797H37.5625L37.6094 13.2578ZM25 17.5391V19.0625H19.9609H14.9219V17.5391V16.0156H19.9609H25V17.5391ZM14.0625 17.2656V18.125H10.8984H7.73438V17.2656V16.4062H10.8984H14.0625V17.2656ZM32.1875 17.2656V18.125H29.0625H25.9375V17.2656V16.4062H29.0625H32.1875V17.2656ZM14.0625 26.1328V33.2031H12.5312H10.9922L11.0469 32.8281C11.0859 32.5 11.0312 31.9531 10.8984 31.3125L10.8516 31.1094L11.6797 31.0781C12.7656 31.0469 12.7344 31.0859 12.7344 29.6484C12.7344 28.0625 12.5469 27.5625 11.8125 27.1328C11.5078 26.9453 11.3594 26.9141 10.8984 26.9141C10.3281 26.9219 9.98438 27.0391 9.63281 27.3672C9.53125 27.4531 9.44531 27.5156 9.4375 27.4922C9.42188 27.4766 9.13281 26.8906 8.78906 26.1875C8.44531 25.4844 8.07031 24.8203 7.95312 24.7109L7.73438 24.5V21.7812V19.0625H10.8984H14.0625V26.1328ZM32.1875 21.8281C32.1875 24.1719 32.1719 24.6016 32.0703 24.6328C32.0078 24.6562 31.6328 25.3281 31.2344 26.1328C30.7266 27.1562 30.4922 27.5469 30.4531 27.4609C30.4141 27.3984 30.2188 27.25 30.0156 27.1328C29.3359 26.7266 28.2812 26.8672 27.7578 27.4375C27.3516 27.875 27.2656 28.2266 27.2656 29.5781C27.2656 30.6562 27.2812 30.8594 27.3984 30.9453C27.4766 31.0156 27.7969 31.0625 28.3359 31.0781L29.1484 31.1094L29.1016 31.3125C28.9688 31.9531 28.9141 32.5 28.9531 32.8281L29.0078 33.2031H26.1484H23.2891L23.2656 30.2109L23.2422 27.2188L22.9453 26.625C21.7031 24.1094 18.2109 24.1562 17.0078 26.7031L16.7578 27.2266L16.7344 30.2109L16.7109 33.2031H15.8125H14.9219V26.6016V20H19.9609H25V24.7578C25 28.9844 25.0156 29.5312 25.125 29.6406C25.2734 29.7969 25.5469 29.7969 25.75 29.6562C25.8906 29.5469 25.8984 29.3906 25.9219 24.3047L25.9453 19.0625H29.0625H32.1875V21.8281ZM4.40625 22.0078C4.42969 23.1641 4.47656 24.4766 4.5 24.9375L4.53906 25.7812H3.32812H2.10938V24.9766C2.10938 24.5312 2.13281 23.2109 2.16406 22.0469L2.21094 19.9219H3.28125H4.35938L4.40625 22.0078ZM37.8359 22.0469C37.8672 23.2109 37.8906 24.5312 37.8906 24.9766V25.7812H36.6719H35.4609L35.5 24.9375C35.5234 24.4766 35.5703 23.1641 35.5938 22.0078L35.6406 19.9219H36.7188H37.7891L37.8359 22.0469ZM7.39844 25.5625C7.75781 26.125 9.10156 29.0391 9.51562 30.1562C10.0469 31.5859 10.1875 32.2734 10.0859 33.0078C9.86719 34.5547 8.97656 35.6875 7.6875 36.0625C5.82812 36.6016 3.90625 34.8125 3.90625 32.5312C3.90625 31.7344 4.28906 30.5234 5.19531 28.4766C5.78906 27.1406 6.60156 25.5234 6.75781 25.3594C6.97656 25.1484 7.17188 25.2109 7.39844 25.5625ZM33.2422 25.3594C33.5 25.625 34.8203 28.3984 35.4375 29.9766C36.0781 31.6328 36.2188 32.5312 35.9766 33.4766C35.4844 35.375 33.8672 36.5156 32.3125 36.0625C31.0312 35.6875 30.1562 34.5781 29.9141 33.0391C29.8125 32.3594 29.9453 31.6172 30.4062 30.3594C30.8984 29 32.1484 26.2891 32.625 25.5312C32.8281 25.2109 33.0312 25.1562 33.2422 25.3594ZM21.0859 25.9766C21.5391 26.2266 21.8672 26.5625 22.125 27.0547C22.3047 27.375 22.3047 27.4453 22.3281 30.2891L22.3516 33.2031H20H17.6562V30.4297C17.6562 27.8828 17.6719 27.625 17.8047 27.2656C18.1953 26.2344 19.0391 25.6719 20.125 25.7266C20.5469 25.75 20.7656 25.8047 21.0859 25.9766ZM4.53125 27.1797C4.53125 27.5547 4.46875 27.7734 4.21875 28.3125C3.4375 30.0234 2.96875 31.6172 2.96875 32.5938V33.2031H2.41406H1.85938L1.90625 32.2422C1.92969 31.7188 1.97656 30.2578 2 29L2.05469 26.7188H3.28906H4.53125V27.1797ZM38 29C38.0234 30.2578 38.0703 31.7188 38.0938 32.2422L38.1406 33.2031H37.5859H37.0312V32.5938C37.0312 31.6172 36.5547 29.9844 35.7734 28.2891C35.5312 27.7656 35.4688 27.5469 35.4688 27.1797V26.7188H36.7109H37.9453L38 29ZM11.4219 28.0234C11.7266 28.2969 11.7969 28.5547 11.7969 29.375V30.1641L11.1719 30.1406L10.5391 30.1172L10.2734 29.4531C9.96875 28.7031 9.95312 28.5938 10.1094 28.2891C10.3438 27.8438 11.0625 27.6953 11.4219 28.0234ZM29.6953 28.0938C30.0391 28.4219 30.0469 28.6406 29.7344 29.4219L29.4688 30.1172L28.8359 30.1406L28.2031 30.1641V29.3281C28.2031 28.6875 28.2344 28.4531 28.3359 28.2734C28.625 27.7891 29.2812 27.6953 29.6953 28.0938ZM15.2812 34.1797C15.2578 34.25 14.7188 35.3906 14.0859 36.7188L12.9297 39.1406H11.9375H10.9375L11.4453 38.1797C11.7266 37.6562 12.3281 36.5156 12.7891 35.6406L13.625 34.0625H14.4766C15.2109 34.0625 15.3203 34.0781 15.2812 34.1797ZM24.8047 36.6016L25.9922 39.1016L23 39.125C21.3516 39.1328 18.6484 39.1328 17 39.125L14 39.1016L14.6406 37.7734C14.9844 37.0391 15.5312 35.9062 15.8438 35.25L16.4141 34.0625L20.0156 34.0781L23.6172 34.1016L24.8047 36.6016ZM27.2109 35.6406C27.6719 36.5156 28.2734 37.6562 28.5547 38.1875L29.0625 39.1406H28.0625H27.0703L25.9141 36.7188C25.2812 35.3906 24.7422 34.25 24.7188 34.1797C24.6797 34.0781 24.7891 34.0625 25.5234 34.0625H26.375L27.2109 35.6406Z" fill="#1ECCD1"/>
<path d="M16.8672 17.1016C16.7422 17.2031 16.6875 17.3281 16.6875 17.5234C16.6875 17.9062 16.8984 18.125 17.2656 18.125C17.6328 18.125 17.8438 17.9062 17.8438 17.5234C17.8438 17.1953 17.6016 16.9531 17.2656 16.9531C17.1484 16.9531 16.9688 17.0156 16.8672 17.1016Z" fill="#1ECCD1"/>
<path d="M19.6016 17.1016C19.4766 17.2031 19.4219 17.3281 19.4219 17.5234C19.4219 17.9062 19.6328 18.125 20 18.125C20.3672 18.125 20.5781 17.9062 20.5781 17.5234C20.5781 17.1953 20.3359 16.9531 20 16.9531C19.8828 16.9531 19.7031 17.0156 19.6016 17.1016Z" fill="#1ECCD1"/>
<path d="M22.3359 17.1016C22.2109 17.2031 22.1562 17.3281 22.1562 17.5234C22.1562 17.9062 22.3672 18.125 22.7344 18.125C23.1016 18.125 23.3125 17.9062 23.3125 17.5234C23.3125 17.1953 23.0703 16.9531 22.7344 16.9531C22.6172 16.9531 22.4375 17.0156 22.3359 17.1016Z" fill="#1ECCD1"/>
<path d="M10.2968 20.9688C9.8827 21.1172 9.64832 21.2812 9.42957 21.5781C9.10926 22 9.05457 22.3594 9.07801 23.6719C9.10145 24.8672 9.10145 24.8828 9.29676 24.9766C9.42957 25.0469 9.92176 25.0781 10.8827 25.0781C12.2343 25.0781 12.5233 25.0391 12.6718 24.8125C12.703 24.7656 12.7343 24.2344 12.7343 23.625C12.7343 22.0625 12.5468 21.5469 11.828 21.125C11.4061 20.875 10.7186 20.8047 10.2968 20.9688ZM11.5155 22.1016C11.7577 22.3438 11.7577 22.3594 11.7811 23.2422L11.8124 24.1406H10.9061H9.99988V23.3203C9.99988 22.7344 10.0311 22.4219 10.1171 22.2656C10.3905 21.7422 11.078 21.6641 11.5155 22.1016Z" fill="#1ECCD1"/>
<path d="M28.4995 20.9688C27.9136 21.1797 27.5386 21.5625 27.3511 22.1016C27.2183 22.5078 27.2339 24.6953 27.3745 24.8906C27.4761 25.0235 27.6089 25.0391 28.9527 25.0625C30.5308 25.0938 30.8277 25.0391 30.9058 24.7188C30.9292 24.625 30.937 24 30.9214 23.336C30.898 22.1563 30.8902 22.1328 30.6636 21.75C30.2183 21.0313 29.2495 20.6797 28.4995 20.9688ZM29.7183 22.1016C29.9605 22.3438 29.9605 22.3594 29.9839 23.2422L30.0152 24.1406H29.1089H28.2027V23.2969C28.2105 22.3828 28.2652 22.1953 28.6402 21.9453C28.9605 21.7266 29.4058 21.7891 29.7183 22.1016Z" fill="#1ECCD1"/>
<path d="M25.1793 30.875C24.9839 30.9688 24.8277 31.3438 24.898 31.5469C24.9918 31.8203 25.1793 31.9531 25.4683 31.9531C26.0933 31.9531 26.2964 31.125 25.7261 30.8672C25.4996 30.7656 25.4058 30.7656 25.1793 30.875Z" fill="#1ECCD1"/>
<path d="M3.59362 1.68745C3.2733 1.81245 3.17955 2.23433 3.42174 2.44527C3.59362 2.60152 4.5233 2.63277 4.67174 2.48433C4.80455 2.35152 4.78893 1.91402 4.64049 1.78902C4.51549 1.68745 3.78893 1.61714 3.59362 1.68745Z" fill="#1ECCD1"/>
<path d="M6.40646 1.73431C6.18771 1.8515 6.09396 2.27337 6.25802 2.46869C6.39864 2.64056 7.35958 2.61712 7.52364 2.43744C7.68771 2.26556 7.69552 2.03119 7.54708 1.83587C7.41427 1.65619 6.68771 1.58587 6.40646 1.73431Z" fill="#1ECCD1"/>
<path d="M32.6561 1.68745C32.3358 1.81245 32.2421 2.23433 32.4842 2.44527C32.6561 2.60152 33.5858 2.63277 33.7342 2.48433C33.8671 2.35152 33.8514 1.91402 33.703 1.78902C33.578 1.68745 32.8514 1.61714 32.6561 1.68745Z" fill="#1ECCD1"/>
<path d="M35.469 1.73431C35.2502 1.8515 35.1565 2.27337 35.3205 2.46869C35.4611 2.64056 36.4221 2.61712 36.5861 2.43744C36.7502 2.26556 36.758 2.03119 36.6096 1.83587C36.4768 1.65619 35.7502 1.58587 35.469 1.73431Z" fill="#1ECCD1"/>
<path d="M5.15625 2.96875C5.03906 3.08594 5 3.22656 5 3.57812C5 4.09375 5.14062 4.29688 5.48438 4.29688C5.80469 4.29688 5.9375 4.07031 5.9375 3.53125C5.9375 3.125 5.91406 3.03906 5.76562 2.9375C5.53125 2.77344 5.34375 2.78125 5.15625 2.96875Z" fill="#1ECCD1"/>
<path d="M34.2344 2.9375C34.0859 3.03906 34.0625 3.125 34.0625 3.55469C34.0625 4.11719 34.1719 4.29688 34.5234 4.29688C34.8594 4.29688 35 4.07812 35 3.57031C35 2.91406 34.6641 2.63281 34.2344 2.9375Z" fill="#1ECCD1"/>
</svg>
