<svg width="40" height="40" viewBox="0 0 40 40" fill="none" xmlns="http://www.w3.org/2000/svg">
<path d="M22.0172 3.99859C21.9234 4.14736 20.6421 6.44832 19.181 9.0964C17.1965 12.6966 16.5012 13.8868 16.4387 13.7975C16.384 13.738 15.7433 12.5677 15.0011 11.2089C14.2588 9.84024 13.6025 8.66993 13.5322 8.60051C13.4619 8.541 13.2822 8.48149 13.1259 8.48149C12.9697 8.48149 12.79 8.541 12.7196 8.60051C12.6493 8.66993 9.7585 13.4107 6.29732 19.1333C0.429718 28.8132 0 29.5571 0 29.9141C0 30.172 0.0546913 30.3703 0.156261 30.4993C0.312522 30.6976 0.414092 30.6976 12.5009 30.6976C24.5877 30.6976 24.6892 30.6976 24.8455 30.4993C25.033 30.2612 25.0564 29.6463 24.8767 29.329L24.7596 29.1108H29.7208C34.6587 29.1108 34.6899 29.1108 34.854 28.9025C34.979 28.7438 35.0103 28.605 34.9868 28.2876C34.9634 28.0595 34.9243 27.7917 34.8931 27.6925C34.8306 27.5338 34.9712 27.5239 37.2604 27.5239C39.5887 27.5239 39.6981 27.514 39.8466 27.3255C40.0575 27.0578 40.0497 26.4825 39.8309 26.0362C39.745 25.8478 39.2371 24.7965 38.7137 23.7055C35.104 16.1679 33.0179 11.8833 32.9086 11.7742C32.7211 11.5957 32.2132 11.6255 32.0569 11.8337C31.9788 11.9329 31.3928 13.1132 30.7444 14.462C30.1037 15.8108 29.5568 16.9117 29.5333 16.9117C29.5099 16.9117 28.1035 14.1149 26.4081 10.6932C24.7127 7.28142 23.2282 4.31596 23.1032 4.09777C22.9157 3.76056 22.8532 3.72089 22.5485 3.72089C22.2672 3.72089 22.1734 3.77048 22.0172 3.99859ZM24.0954 9.24517C24.7205 10.5147 25.2362 11.5759 25.2362 11.6056C25.2362 11.6354 25.1111 11.6552 24.9627 11.6552C24.5877 11.6552 24.3767 11.9428 24.3767 12.4487C24.3767 13.1032 24.5564 13.2421 25.3846 13.2421H26.08L28.041 17.1795L30.0021 21.1268L29.4864 21.1764C28.8927 21.2359 28.752 21.3847 28.752 21.9897C28.752 22.6542 28.9161 22.7633 29.9474 22.7633H30.8225L31.9788 25.0841C32.6117 26.3635 33.1273 27.4346 33.1273 27.4644C33.1273 27.4941 31.0412 27.514 28.502 27.5041L23.8689 27.4743L21.7437 23.5766C20.5796 21.4343 19.6342 19.6193 19.6498 19.5598C19.6654 19.4904 20.353 16.5844 21.1812 13.0933C22.0015 9.60221 22.6891 6.70618 22.7125 6.66651C22.7594 6.56733 22.7203 6.47807 24.0954 9.24517ZM19.6186 13.7281L18.6419 17.8837L17.9935 16.6935C17.6341 16.0389 17.345 15.4835 17.345 15.4538C17.345 15.3943 20.5483 9.57246 20.5874 9.57246C20.5952 9.57246 20.1655 11.437 19.6186 13.7281ZM16.9465 17.7746C18.8841 21.3351 20.4702 24.2708 20.4702 24.3006C20.4702 24.3303 20.2983 24.3502 20.0795 24.3502C19.5795 24.3502 19.3764 24.5783 19.3764 25.1436C19.3764 25.8279 19.5404 25.937 20.5405 25.937H21.3999L22.0797 27.1966C22.4547 27.9008 22.8532 28.6149 22.9547 28.7835L23.1423 29.1108H15.4855H7.82868L8.07088 28.3173L8.3209 27.5239H9.00063C9.821 27.5239 10.0007 27.385 10.0007 26.7305C10.0007 26.1552 9.79756 25.937 9.25846 25.937C9.02407 25.937 8.82875 25.9172 8.82875 25.8874C8.82875 25.8577 11.4071 17.3084 13.2119 11.3676C13.2587 11.2288 13.3134 11.1692 13.3525 11.2188C13.3916 11.2684 15.0089 14.214 16.9465 17.7746ZM33.2602 15.6521L33.979 17.1597L33.6586 17.2192C33.2758 17.2886 33.1273 17.5167 33.1273 18.0027C33.1273 18.6374 33.2523 18.7366 34.0727 18.7961L34.7915 18.8457L35.5259 20.3632C35.9244 21.1963 36.2525 21.9004 36.2525 21.9203C36.2525 21.95 36.0416 21.9699 35.7838 21.9699C35.1978 21.9699 35.0025 22.1682 35.0025 22.7633C35.0025 23.4476 35.1587 23.5567 36.1979 23.5567H37.0729L37.6355 24.7469L38.2058 25.937L36.0885 25.9172L33.9633 25.8874L32.1819 22.317C31.2053 20.3532 30.4006 18.687 30.4006 18.6077C30.3928 18.4688 32.432 14.1446 32.5023 14.1446C32.5257 14.1446 32.8617 14.819 33.2602 15.6521ZM10.6726 14.9976C10.5789 15.3149 6.54734 28.605 6.43014 28.9818C6.39889 29.081 5.87541 29.1108 4.17217 29.1108H1.96108L6.3442 21.8707C8.75843 17.8837 10.7429 14.6306 10.7508 14.6306C10.7664 14.6306 10.7273 14.7992 10.6726 14.9976Z" fill="#1ECCD1"/>
<path d="M22.6562 17.6696C22.5547 17.7798 22.5 17.9493 22.5 18.1783C22.5 18.4072 22.5547 18.5768 22.6562 18.687C22.7578 18.7972 22.9141 18.8566 23.125 18.8566C23.3359 18.8566 23.4922 18.7972 23.5938 18.687C23.6953 18.5768 23.75 18.4072 23.75 18.1783C23.75 17.9493 23.6953 17.7798 23.5938 17.6696C23.4922 17.5593 23.3359 17.5 23.125 17.5C22.9141 17.5 22.7578 17.5593 22.6562 17.6696Z" fill="#1ECCD1"/>
<path d="M22.0312 21.7394C21.9297 21.8496 21.875 22.0192 21.875 22.2481C21.875 22.8416 22.0312 22.9264 23.125 22.9264C24.2188 22.9264 24.375 22.8416 24.375 22.2481C24.375 21.6546 24.2188 21.5698 23.125 21.5698C22.2891 21.5698 22.1719 21.5868 22.0312 21.7394Z" fill="#1ECCD1"/>
<path d="M25.7812 25.8091C25.6797 25.9193 25.625 26.0889 25.625 26.3178C25.625 26.7672 25.8359 26.9961 26.25 26.9961C26.6641 26.9961 26.875 26.7672 26.875 26.3178C26.875 26.0889 26.8203 25.9193 26.7188 25.8091C26.6172 25.6989 26.4609 25.6395 26.25 25.6395C26.0391 25.6395 25.8828 25.6989 25.7812 25.8091Z" fill="#1ECCD1"/>
<path d="M13.2812 19.0261C13.1797 19.1363 13.125 19.3059 13.125 19.5348C13.125 19.7638 13.1797 19.9333 13.2812 20.0436C13.3828 20.1538 13.5391 20.2131 13.75 20.2131C13.9609 20.2131 14.1172 20.1538 14.2188 20.0436C14.3203 19.9333 14.375 19.7638 14.375 19.5348C14.375 19.3059 14.3203 19.1363 14.2188 19.0261C14.1172 18.9159 13.9609 18.8565 13.75 18.8565C13.5391 18.8565 13.3828 18.9159 13.2812 19.0261Z" fill="#1ECCD1"/>
<path d="M12.6562 23.0959C12.5547 23.2062 12.5 23.3757 12.5 23.6047C12.5 24.1982 12.6562 24.283 13.75 24.283C14.8438 24.283 15 24.1982 15 23.6047C15 23.0112 14.8438 22.9264 13.75 22.9264C12.9141 22.9264 12.7969 22.9433 12.6562 23.0959Z" fill="#1ECCD1"/>
<path d="M15.1562 27.1656C15.0547 27.2759 15 27.4454 15 27.6744C15 27.9033 15.0547 28.0729 15.1562 28.1831C15.2578 28.2933 15.4141 28.3527 15.625 28.3527C15.8359 28.3527 15.9922 28.2933 16.0938 28.1831C16.1953 28.0729 16.25 27.9033 16.25 27.6744C16.25 27.4454 16.1953 27.2759 16.0938 27.1656C15.9922 27.0554 15.8359 26.9961 15.625 26.9961C15.4141 26.9961 15.2578 27.0554 15.1562 27.1656Z" fill="#1ECCD1"/>
</svg>
