<svg width="40" height="40" viewBox="0 0 40 40" fill="none" xmlns="http://www.w3.org/2000/svg">
<g clip-path="url(#clip0_1499_2420)">
<path d="M7.42217 0.148439C6.77373 0.351564 6.31279 0.656251 5.78154 1.21875C5.52373 1.5 5.28154 1.70313 5.23467 1.67969C5.10186 1.59375 4.12529 1.80469 3.74248 1.99219C1.56279 3.10156 1.60967 6.19531 3.81279 7.28125L4.33623 7.53906L9.51592 7.5625L14.6956 7.58594L14.969 7.3125C15.3362 6.94531 15.3362 6.57031 14.969 6.20313L14.7034 5.9375H13.2269H11.7425L12.0003 5.4375C13.0237 3.39844 11.9378 0.828126 9.75811 0.148439C9.14092 -0.0468736 8.02373 -0.0468736 7.42217 0.148439ZM9.57842 1.85938C10.8753 2.52344 11.1253 4.28906 10.0784 5.30469C9.48467 5.88281 9.20342 5.9375 6.86748 5.9375C4.62529 5.9375 4.48467 5.91406 4.10186 5.45313C3.64873 4.91406 3.67217 4.20313 4.17217 3.70313C4.51592 3.35938 4.88311 3.27344 5.47686 3.375C6.06279 3.49219 6.39092 3.35938 6.59404 2.92969C7.14092 1.78125 8.49248 1.29688 9.57842 1.85938Z" fill="#1ECCD1"/>
<path d="M26.6253 3.42969L26.3675 3.65625L26.3441 17.6875L26.3284 31.7188H25.3909H24.4534V22.2578V12.7969L24.1878 12.5312L23.9222 12.2656H22.7034H21.4847V11.2812C21.4847 10.3047 21.4847 10.2969 21.2581 10.0703L21.0316 9.84375H17.9691H14.9066L14.68 10.0703C14.4534 10.2969 14.4534 10.3047 14.4534 11.2812V12.2656H13.2816C11.9925 12.2656 11.7425 12.3281 11.5784 12.6953C11.5159 12.8359 11.4847 13.4922 11.4847 14.7969V16.6953L10.8597 16.4766C9.82063 16.1094 9.01594 15.9922 7.81282 16.0391C6.67219 16.0859 5.92219 16.2422 4.97688 16.6406C3.17219 17.3984 1.4925 19.0703 0.726877 20.8828C-0.0309351 22.6797 -0.116873 24.8203 0.492502 26.6406L0.67219 27.1719L0.492502 27.4297C0.125315 27.9688 -0.0153101 28.4922 0.0159399 29.2578C0.0393774 29.8672 0.0784399 30.0391 0.289377 30.4766C0.781565 31.4766 1.66438 32.0469 2.78938 32.0938C3.51594 32.1328 4.10188 31.9922 4.56282 31.6797L4.85969 31.4844L5.60969 31.7266C6.02375 31.8594 6.69563 32.0078 7.09407 32.0547L7.81282 32.1406V33.6328V35.125L7.08625 35.4297C4.64094 36.4531 1.75813 38.0859 1.25813 38.7188C1.02375 39.0156 1.03938 39.4531 1.29719 39.7578L1.50032 40H12.43H23.3675L23.555 39.8125C23.9066 39.4609 23.9066 38.9766 23.555 38.625L23.3675 38.4375L14.0081 38.4297H4.64875L5.50813 37.9922C6.89875 37.2812 7.76594 36.9219 7.805 37.0469C7.82063 37.1016 7.93782 37.2422 8.055 37.3594C8.35188 37.6641 8.81282 37.6641 9.14094 37.3594C9.34407 37.1875 9.39094 37.0703 9.43 36.7031L9.47688 36.2578L10.6566 35.8672C18.2894 33.3438 27.2113 32.6875 37.4613 33.8984C38.4534 34.0156 39.3363 34.0938 39.43 34.0781C39.5238 34.0625 39.6956 33.9531 39.805 33.8516L40.0003 33.6484V18.6562V3.65625L39.7738 3.42969L39.5472 3.20312H33.2113H26.8753L26.6253 3.42969ZM38.4378 15.9766V27.1094H33.2034H27.9691V15.9766V4.84375H33.2034H38.4378V15.9766ZM19.8597 12.4609C19.8831 13.4062 19.8909 13.4375 20.1019 13.6484C20.3128 13.8672 20.3206 13.8672 21.5628 13.8906L22.8128 13.9141V22.8828V31.8438L21.4691 31.9766C19.0159 32.2188 15.2347 32.8516 13.5394 33.3125L13.1253 33.4219V32.5859V31.75H13.93C15.1644 31.75 16.1097 31.3984 16.9144 30.625L17.2269 30.3203L18.9456 30.2969C20.8753 30.2734 21.0238 30.2344 21.1566 29.7344C21.2581 29.3828 21.1956 29.1094 20.9613 28.8672C20.7659 28.6719 20.7503 28.6719 19.4456 28.6719H18.1253L18.18 28.3359C18.305 27.6484 18.2269 26.6094 18.0081 26.0703C17.9534 25.9453 18.0472 25.9375 19.3597 25.9375C20.7503 25.9375 20.7581 25.9375 20.9613 25.7422C21.1956 25.5 21.2581 25.2266 21.1566 24.875C21.0238 24.3672 20.8988 24.3438 18.7113 24.2969C16.7894 24.2578 16.7503 24.2578 16.4691 24.0625C16.1956 23.8828 16.1722 23.8359 16.1722 23.5C16.1722 23.1719 16.0003 22.125 15.8988 21.7812C15.8519 21.6484 15.9534 21.6406 18.2738 21.6406H20.6878L20.9222 21.4453C21.3363 21.1016 21.2894 20.4297 20.8363 20.1484C20.6019 20.0078 20.4378 20 17.8597 20L15.1331 20.0078L14.7816 19.4766C14.5863 19.1875 14.1331 18.6562 13.7816 18.2969L13.1253 17.6484V15.7812V13.9062H14.2816C15.9691 13.9062 16.0941 13.7891 16.0941 12.2422V11.4844H17.9613H19.8284L19.8597 12.4609ZM9.72688 17.8438C10.2972 18 11.2034 18.4219 11.6956 18.7578C13.3597 19.8906 14.5238 21.9688 14.5394 23.8203C14.5472 24.7188 14.6175 24.875 15.2034 25.2422C16.1644 25.8516 16.6019 26.5781 16.5941 27.5781C16.5863 28.9375 15.4222 30.0938 14.0706 30.1016C13.4847 30.1094 13.0863 29.9922 12.5706 29.6719C12.1097 29.3906 11.7816 29.3906 11.2425 29.6875C10.7191 29.9688 9.82063 30.3125 9.60969 30.3125C9.45344 30.3125 9.45344 30.25 9.45344 27.8516C9.45344 25 9.41438 25.1875 10.2425 24.3281C10.7659 23.7812 10.8206 23.6797 10.7894 23.2031C10.7659 22.8906 10.3675 22.5781 9.9925 22.5781C9.69563 22.5781 9.6175 22.625 9.00813 23.2188C8.10188 24.1094 7.8675 24.5859 7.82844 25.6484L7.79719 26.4219L7.19563 25.8281C6.85969 25.4922 6.4925 25.2031 6.35969 25.1641C6.09407 25.0938 5.7425 25.1719 5.53938 25.3594C5.3675 25.5156 5.27375 25.9297 5.35188 26.1875C5.38313 26.2812 5.85969 26.8203 6.41438 27.3828C7.57844 28.5625 7.71907 28.8125 7.78938 29.8047L7.83625 30.4688H7.60969C7.18 30.4609 6.32063 30.2422 5.53157 29.9219C5.00032 29.7109 4.67219 29.6172 4.53157 29.6484C4.42219 29.6719 4.16438 29.8516 3.96125 30.0391C3.72688 30.25 3.48469 30.4062 3.31282 30.4375C2.40657 30.6094 1.64094 30.0234 1.64094 29.1562C1.64094 28.7188 1.73469 28.5156 2.14094 28.0547C2.57844 27.5703 2.59407 27.3828 2.27375 26.6562C1.85969 25.7031 1.75813 25.2188 1.76594 24.0625C1.76594 22.875 1.87532 22.3672 2.31282 21.4219C3.21125 19.4609 4.96125 18.1328 7.18782 17.7031C7.59407 17.625 9.26594 17.7188 9.72688 17.8438ZM38.4378 30.5469C38.4378 31.5312 38.4222 32.3438 38.4066 32.3438C38.3909 32.3438 37.7816 32.2734 37.055 32.1875C34.6253 31.9062 30.5003 31.6406 28.4613 31.6406H27.9691V30.1953V28.75H33.2034H38.4378V30.5469ZM11.4847 32.6406V33.8672L10.4691 34.1875L9.45344 34.5078V33.2812V32.0547L10.1331 31.8828C10.5003 31.7891 10.9534 31.6484 11.1253 31.5703C11.305 31.4844 11.4534 31.4141 11.4691 31.4141C11.4769 31.4062 11.4847 31.9609 11.4847 32.6406Z" fill="#1ECCD1"/>
<path d="M29.8203 7.35156C29.5156 7.53125 29.4531 7.88281 29.4531 9.53906C29.4531 11.25 29.5078 11.5312 29.8906 11.7109C30.0234 11.7734 31.0703 11.7969 33.3281 11.7969H36.5781L36.8047 11.5703L37.0312 11.3438V9.51562V7.6875L36.8125 7.47656L36.5938 7.26562H33.2734C31.0625 7.27344 29.9141 7.29688 29.8203 7.35156ZM35.3906 9.49219V10.1562H33.2422H31.0938V9.49219V8.82812H33.2422H35.3906V9.49219Z" fill="#1ECCD1"/>
<path d="M30.0155 13.8359C29.8593 13.8828 29.6952 14.0078 29.6014 14.1641C29.4608 14.3984 29.453 14.5312 29.4686 16.1562L29.4921 17.9062L29.7499 18.1328L29.9999 18.3594H33.2889H36.578L36.8046 18.1328L37.0311 17.9062V16.0703V14.2422L36.8358 14.0469C36.7264 13.9375 36.5311 13.8281 36.3983 13.7969C36.0077 13.7188 30.2968 13.7578 30.0155 13.8359ZM35.3905 16.0547V16.7188H33.2421H31.0936V16.0547V15.3906H33.2421H35.3905V16.0547Z" fill="#1ECCD1"/>
<path d="M29.9456 20.4297C29.4847 20.6328 29.4456 20.8203 29.4691 22.7422L29.4925 24.4688L29.7503 24.6953L30.0003 24.9219H33.2894H36.5784L36.805 24.6953L37.0316 24.4688V22.6562C37.0316 20.6641 37.0081 20.5547 36.5472 20.3984C36.1566 20.2578 30.2659 20.2891 29.9456 20.4297ZM35.3909 22.6172V23.2812H33.2425H31.0941V22.6172V21.9531H33.2425H35.3909V22.6172Z" fill="#1ECCD1"/>
<path d="M15.0079 15.8125C14.4844 16.1016 14.4766 16.9531 14.9922 17.2266C15.1875 17.3281 15.6407 17.3437 17.9454 17.3437C20.961 17.3437 20.9219 17.3516 21.1407 16.8359C21.2657 16.5312 21.1719 16.1094 20.9297 15.8906C20.7735 15.75 20.5938 15.7422 17.9766 15.7266C15.7657 15.7109 15.1563 15.7266 15.0079 15.8125Z" fill="#1ECCD1"/>
<path d="M17.4844 6.0859C16.9297 6.53121 17.1094 7.42184 17.7891 7.54684C18.1016 7.60153 18.4766 7.46871 18.6328 7.23434C18.8125 6.98434 18.7813 6.45309 18.5703 6.2109C18.3203 5.91403 17.7813 5.85934 17.4844 6.0859Z" fill="#1ECCD1"/>
<path d="M25.8288 38.6797C25.3757 39.2188 25.7116 40 26.4069 40C26.8054 40 27.0788 39.8281 27.1882 39.4922C27.2976 39.1641 27.2273 38.8906 26.9773 38.6328C26.821 38.4766 26.696 38.4375 26.4069 38.4375C26.0788 38.4375 26.0007 38.4688 25.8288 38.6797Z" fill="#1ECCD1"/>
<path d="M29.2658 38.6797C28.9767 39.0234 28.9845 39.4688 29.2892 39.7734L29.5158 40H34.5548H39.5861L39.797 39.7969C39.9611 39.6328 40.0002 39.5156 40.0002 39.2188C40.0002 38.9219 39.9611 38.8047 39.797 38.6406L39.5861 38.4375H34.5314H29.4689L29.2658 38.6797Z" fill="#1ECCD1"/>
</g>
<defs>
<clipPath id="clip0_1499_2420">
<rect width="40" height="40" fill="white"/>
</clipPath>
</defs>
</svg>
