<svg width="40" height="40" viewBox="0 0 40 40" fill="none" xmlns="http://www.w3.org/2000/svg">
<g clip-path="url(#clip0_1507_521)">
<path d="M3.03911 1.39844L2.81255 1.625V4.04688V6.46875L2.53911 6.51562C2.07818 6.60156 2.0313 6.75781 2.0313 8.08594C2.0313 9.41406 2.07818 9.57031 2.53911 9.65625L2.81255 9.70312V13.2891V16.875H2.63286C2.5313 16.875 2.37505 16.9531 2.2813 17.0547C2.11724 17.2266 2.10943 17.3125 2.10943 18.4453C2.10943 19.6172 2.11724 19.6641 2.28911 19.8281C2.39068 19.9219 2.54693 20 2.64068 20H2.81255V23.5938V27.1875H2.61724C2.50786 27.1875 2.32818 27.2734 2.22661 27.3828C2.03911 27.5625 2.0313 27.6016 2.0313 28.7656C2.0313 30.1172 2.07818 30.2734 2.53911 30.3594L2.81255 30.4062V33.9922V37.5781H1.56255C0.414115 37.5781 0.296927 37.5938 0.156302 37.7344C-0.0624477 37.9531 -0.0546352 38.4375 0.164115 38.6406C0.328177 38.7891 0.765676 38.7891 20.0001 38.7891C39.2344 38.7891 39.6719 38.7891 39.836 38.6406C40.0547 38.4375 40.0626 37.9531 39.8438 37.7344C39.7032 37.5938 39.586 37.5781 38.5547 37.5781H37.4219V33.9844V30.3984L37.6485 30.2812C37.7735 30.2109 37.8907 30.1016 37.9219 30.0391C37.9454 29.9688 37.9688 29.3906 37.9688 28.7578C37.9688 27.4609 37.9141 27.3047 37.461 27.2188L37.1876 27.1719V23.5859V20H37.4532C37.6485 20 37.7657 19.9453 37.8829 19.7969C38.0313 19.6094 38.0469 19.4844 38.0469 18.4375C38.0469 17.3906 38.0313 17.2656 37.8829 17.0781L37.7266 16.875H31.0235C24.3907 16.875 24.3282 16.875 24.1563 17.0312C23.8985 17.2734 23.9219 17.75 24.1876 17.9609C24.3985 18.125 24.4454 18.125 30.5938 18.125H36.7969V18.4375V18.75H20.0782H3.35943V18.4375V18.125H12.8985H22.4376L22.6719 17.8906C22.8672 17.6875 22.8985 17.6094 22.8594 17.3984C22.7579 16.8828 22.7188 16.875 20.3516 16.875H18.2188L17.4141 14.7031C16.9766 13.5156 16.3751 11.9062 16.086 11.1328L15.5704 9.72656L16.0001 9.67969C16.6876 9.60156 16.7188 9.52344 16.7188 8.08594C16.7188 6.42188 16.8516 6.53125 14.836 6.48438L13.2579 6.44531L12.3438 4.02344C11.836 2.6875 11.4063 1.54688 11.3751 1.47656C11.2501 1.1875 11.0157 1.17188 7.10161 1.17188H3.26568L3.03911 1.39844ZM11.1407 4.40625C11.5469 5.47656 11.8751 6.38281 11.8751 6.41406C11.8751 6.45312 10.1172 6.48438 7.9688 6.48438H4.06255V5.74219V5.00781L6.06255 4.98438C8.05474 4.96094 8.06255 4.96094 8.21099 4.77344C8.4063 4.53906 8.39849 4.21094 8.19536 3.95312L8.03911 3.75H6.04693H4.06255V3.08594V2.42188L7.23443 2.4375L10.4141 2.46094L11.1407 4.40625ZM15.4688 8.08594V8.4375H9.37505H3.2813V8.08594V7.73438H9.37505H15.4688V8.08594ZM14.2813 9.89844C14.3438 10.0781 15.0235 11.9141 16.6485 16.2656L16.8672 16.875H15.0079H13.1407L13.1094 14.8984L13.086 12.9297L12.8594 12.4375C12.4141 11.4766 11.5313 10.9062 10.4688 10.9062C9.67974 10.9062 9.18755 11.1094 8.63286 11.6719C7.9063 12.4141 7.86724 12.5469 7.82818 14.8984L7.79693 16.875H7.26568H6.72661L6.70318 14.8594C6.67974 12.8828 6.67974 12.8438 6.47661 12.4219C6.0938 11.6172 5.29693 11.0234 4.43755 10.8984L4.06255 10.8438V10.2656V9.6875H9.13286H14.2032L14.2813 9.89844ZM4.81255 12.3672C4.94536 12.4531 5.14068 12.6484 5.24224 12.7969C5.42193 13.0703 5.42974 13.1172 5.45318 14.9766L5.47661 16.875H4.77349H4.06255V14.4844V12.0938L4.32036 12.1484C4.45318 12.1797 4.67974 12.2734 4.81255 12.3672ZM10.9219 12.2266C11.2657 12.375 11.5313 12.6094 11.7032 12.9297C11.8126 13.125 11.8438 13.4766 11.8594 15.0156L11.8907 16.875H10.4688H9.04693L9.07818 15.0156C9.10161 13.0312 9.12505 12.9141 9.54693 12.5234C9.76568 12.3203 10.211 12.1172 10.4532 12.1094C10.5469 12.1094 10.7579 12.1641 10.9219 12.2266ZM22.3438 23.2188C23.0001 24.9922 23.6016 26.6094 23.6797 26.8125L23.8282 27.1875H21.6876H19.5391L19.5157 25.1719C19.4844 22.8906 19.4532 22.7578 18.8126 22.0625C18.3126 21.5156 17.6954 21.25 16.9376 21.25C15.8438 21.25 14.9844 21.7656 14.5313 22.6953C14.3438 23.0781 14.336 23.1406 14.3126 25.1328L14.2891 27.1875H13.7032H13.1251V25.5625C13.1251 24.6719 13.086 23.7188 13.0391 23.4375C12.8985 22.5625 12.4141 21.8906 11.6251 21.4688C11.336 21.3125 11.1719 21.2891 10.4688 21.2891C9.71099 21.2891 9.61724 21.3047 9.23443 21.5156C8.7188 21.8047 8.32036 22.2344 8.06255 22.8047C7.85943 23.2344 7.85943 23.2812 7.82818 25.2109L7.79693 27.1875H7.25786H6.7188V25.3594C6.7188 23.75 6.70318 23.4688 6.56255 23.0234C6.27349 22.0938 5.4063 21.3672 4.48443 21.2734L4.06255 21.2266V20.6172V20H12.6016H21.1485L22.3438 23.2188ZM35.9376 20.5781V21.1562L35.5704 21.2109C34.6876 21.3359 33.9063 21.9141 33.5235 22.7266C33.3204 23.1562 33.3204 23.1875 33.2969 25.1719L33.2735 27.1875H32.7266H32.1876V25.4766C32.1876 23.1484 32.0782 22.6641 31.3907 21.9609C30.8672 21.4297 30.336 21.2109 29.5313 21.2109C28.961 21.2109 28.8047 21.2422 28.4219 21.4297C27.8751 21.6953 27.2813 22.3281 27.0782 22.8594C26.9532 23.1875 26.9219 23.5156 26.8907 25.2109L26.8594 27.1875H26.0157C25.2891 27.1875 25.1641 27.1719 25.1172 27.0469C25.0235 26.8047 23.0391 21.4688 22.7735 20.7188L22.5079 20H29.2188H35.9376V20.5781ZM29.9376 22.5C30.2891 22.6016 30.7422 23.0859 30.8516 23.4922C30.8985 23.6562 30.9376 24.5312 30.9376 25.4844V27.1875H29.5235H28.1094L28.1407 25.3281C28.1641 23.3125 28.1797 23.2422 28.6563 22.7891C29.0079 22.4531 29.4219 22.3594 29.9376 22.5ZM35.9376 24.8047V27.1875H35.2266H34.5235L34.5469 25.2891L34.5704 23.3828L34.7813 23.0703C34.8985 22.8906 35.1251 22.6875 35.3282 22.5859C35.9766 22.2656 35.9376 22.1172 35.9376 24.8047ZM4.67193 22.6094C4.96099 22.7578 5.20318 23.0391 5.35161 23.375C5.44536 23.6094 5.4688 24.0156 5.4688 25.4297V27.1875H4.76568H4.06255V24.8438V22.5H4.25786C4.37505 22.5 4.55474 22.5469 4.67193 22.6094ZM11.2266 22.7031C11.5313 22.9297 11.7188 23.2109 11.7969 23.5625C11.836 23.7266 11.8751 24.6172 11.8751 25.5234V27.1875H10.461H9.04693L9.07818 25.3281C9.0938 23.7891 9.12505 23.4375 9.23443 23.2422C9.39068 22.9531 9.66411 22.6953 9.92193 22.5859C10.2266 22.4531 10.9844 22.5234 11.2266 22.7031ZM17.4844 22.6094C17.7735 22.7578 18.0157 23.0391 18.1641 23.375C18.2579 23.6094 18.2813 24.0156 18.2813 25.4297V27.1875H16.9141H15.5469V25.3516C15.5469 23.6719 15.5626 23.4844 15.7032 23.2031C15.8438 22.9219 16.1329 22.6562 16.4063 22.5547C16.6329 22.4688 17.2735 22.5 17.4844 22.6094ZM36.7188 28.7891V29.1406H22.8985H9.07036L8.91411 29.3438C8.64068 29.6953 8.71099 30.0859 9.07036 30.2734C9.25786 30.375 11.086 30.3906 22.7344 30.3906H36.1719V30.9688V31.5391L35.7657 31.5938C34.8985 31.7109 34.0938 32.3125 33.7266 33.1094C33.5704 33.4531 33.5547 33.6172 33.5313 35.5234L33.5079 37.5781H32.9297H32.3516L32.3282 35.4844L32.3047 33.3984L32.0938 33.0078C31.8282 32.5 31.3126 32.0078 30.8204 31.7812C30.5001 31.6328 30.2969 31.6016 29.7266 31.6016C29.0782 31.6016 28.9844 31.625 28.5313 31.8672C27.9532 32.1797 27.6329 32.5234 27.3516 33.125C27.1485 33.5469 27.1485 33.5859 27.1251 35.5625L27.1016 37.5781H26.5235H25.9454L25.9219 35.5234C25.8985 33.6172 25.8829 33.4531 25.7266 33.1094C25.4922 32.5938 24.9766 32.0703 24.461 31.8203C24.0782 31.6328 23.9376 31.6016 23.3204 31.6016C22.7188 31.6094 22.5547 31.6406 22.1797 31.8203C21.6641 32.0703 21.1485 32.5938 20.9141 33.1094C20.7579 33.4531 20.7422 33.6172 20.7188 35.5234L20.6954 37.5781H20.1172H19.5391L19.5157 35.5625C19.4922 33.5859 19.4922 33.5469 19.2891 33.125C19.0079 32.5234 18.6876 32.1797 18.1094 31.8672C17.6563 31.625 17.5626 31.6016 16.9141 31.6016C16.3594 31.6016 16.1329 31.6328 15.8438 31.7734C15.3516 32 14.7969 32.5234 14.5469 33.0078L14.336 33.3984L14.3126 35.4844L14.2891 37.5781H13.7032H13.1251V35.9141C13.1251 35.0078 13.0938 34.0547 13.0469 33.7969C12.8985 32.8906 12.3751 32.1875 11.5782 31.8125C11.2032 31.6328 11.0235 31.6016 10.4688 31.6016C9.91411 31.6016 9.73443 31.6328 9.35943 31.8125C8.56255 32.1875 8.03911 32.8906 7.89068 33.7969C7.8438 34.0547 7.81255 35.0078 7.81255 35.9141V37.5781H7.27349H6.72661L6.70318 35.5703C6.67974 33.5859 6.67974 33.5469 6.47661 33.125C6.36724 32.8828 6.16411 32.5625 6.0313 32.4141C5.71099 32.0469 4.97661 31.6641 4.4688 31.5938L4.06255 31.5391V30.9688V30.3906H5.58599C6.7813 30.3906 7.16411 30.3672 7.33599 30.2734C7.69536 30.0859 7.76568 29.6953 7.49224 29.3438L7.33599 29.1406H5.30474H3.2813V28.7891V28.4375H20.0001H36.7188V28.7891ZM4.66411 32.9609C4.86724 33.0547 5.07036 33.2344 5.21099 33.4453L5.42974 33.7734L5.45318 35.6797L5.47661 37.5781H4.77349H4.06255V35.1953C4.06255 32.5156 4.02349 32.6719 4.66411 32.9609ZM11.2032 33.0547C11.3516 33.1562 11.5547 33.3828 11.6563 33.5547C11.8282 33.8516 11.836 33.9531 11.8594 35.7188L11.8907 37.5781H10.4688H9.05474L9.07818 35.7188L9.10161 33.8672L9.31255 33.5078C9.71099 32.8281 10.5704 32.6172 11.2032 33.0547ZM17.4766 32.9609C17.6797 33.0547 17.8829 33.2344 18.0235 33.4453L18.2422 33.7734L18.2657 35.6797L18.2891 37.5781H16.9141H15.5469V35.75C15.5469 33.8047 15.5704 33.625 15.9219 33.25C16.3438 32.8047 16.8985 32.7031 17.4766 32.9609ZM23.8047 32.9297C24.1797 33.0859 24.3594 33.25 24.5391 33.6094C24.6719 33.8672 24.6876 34.0859 24.6876 35.7422V37.5781H23.3204H21.9532V35.7812C21.9532 33.5625 22.0313 33.3047 22.7735 32.9609C23.1563 32.7812 23.4297 32.7734 23.8047 32.9297ZM30.211 32.8984C30.3282 32.9375 30.5313 33.0703 30.6485 33.1875C31.0782 33.5938 31.0938 33.6641 31.0938 35.7031V37.5781H29.7188H28.3516L28.3751 35.6797L28.3985 33.7734L28.6094 33.4609C28.9532 32.9375 29.6563 32.6875 30.211 32.8984ZM36.1719 35.1953V37.5781H35.4688H34.7657V35.7812C34.7657 33.5625 34.8438 33.3047 35.586 32.9609C36.211 32.6719 36.1719 32.5156 36.1719 35.1953Z" fill="#1ECCD1"/>
</g>
<defs>
<clipPath id="clip0_1507_521">
<rect width="40" height="40" fill="white"/>
</clipPath>
</defs>
</svg>
