<svg width="50" height="50" viewBox="0 0 50 50" fill="none" xmlns="http://www.w3.org/2000/svg">
<g clip-path="url(#clip0_2214_37652)">
<path d="M46.3266 35.1872V31.1034L28.6307 18.0493C28.6847 14.6088 28.6803 11.1285 28.5716 7.5801C28.3737 3.38773 26.7499 0 24.9992 0C23.2491 0 21.6253 3.38773 21.4274 7.5801C21.3189 11.1285 21.3144 14.6089 21.3684 18.0493L3.67188 31.1035V35.1873L21.6571 27.7793C21.8829 33.2998 22.159 38.77 22.3576 44.2714L16.8823 47.3032V49.9999L24.9992 48.584L33.1156 49.9999V47.3032L27.6415 44.2714C27.8394 38.77 28.1148 33.2998 28.3421 27.7793L46.3266 35.1872Z" fill="#FF800F"/>
<path d="M14.8907 20.7401H11.5801V26.2973H14.8907V20.7401Z" fill="#FF800F"/>
<path d="M38.42 20.7401H35.1094V26.2973H38.42V20.7401Z" fill="#FF800F"/>
</g>
<defs>
<clipPath id="clip0_2214_37652">
<rect width="50" height="50" fill="white"/>
</clipPath>
</defs>
</svg>
