<svg width="20" height="22" viewBox="0 0 20 22" fill="none" xmlns="http://www.w3.org/2000/svg">
<path d="M9.14062 0.0644665C7.85156 0.352356 6.78164 1.18595 6.21875 2.34181C5.86211 3.06798 5.82344 3.26134 5.80195 4.4129L5.78047 5.40978L4.28945 5.42267C2.9832 5.43556 2.78555 5.44415 2.66953 5.50861C2.50625 5.59884 2.34297 5.78361 2.27422 5.95548C2.22695 6.08009 0.890625 20.7926 0.890625 21.2008C0.890625 21.493 1.01953 21.7379 1.24297 21.884L1.42344 22H9.98711C19.3285 22 18.6539 22.0172 18.9031 21.7551C19.0492 21.6004 19.1094 21.4414 19.1094 21.2008C19.1094 20.8485 17.7816 6.17033 17.7344 6.00704C17.6785 5.81368 17.5152 5.60744 17.3305 5.50861C17.2145 5.44415 17.0168 5.43556 15.7105 5.42267L14.2195 5.40978L14.198 4.4129C14.1766 3.26134 14.1379 3.06798 13.7812 2.34181C13.2613 1.28048 12.2773 0.459778 11.1172 0.124622C10.6961 0.00431061 9.57031 -0.0300655 9.14062 0.0644665ZM10.6918 1.70158C11.5469 1.95509 12.243 2.64689 12.5137 3.52345C12.5695 3.69533 12.5953 3.97892 12.6082 4.58478L12.634 5.41408H10H7.36602L7.3918 4.58478C7.41328 3.67384 7.45195 3.49337 7.70977 2.99923C8.0707 2.30743 8.80547 1.77462 9.57461 1.63712C9.87109 1.58126 10.3953 1.61564 10.6918 1.70158ZM5.78906 7.83751C5.78906 8.29298 5.81055 8.684 5.83633 8.75275C5.94375 9.04494 6.24453 9.23829 6.58398 9.23829C6.92344 9.23829 7.22422 9.04494 7.33164 8.75275C7.35742 8.684 7.37891 8.29298 7.37891 7.83751V7.04689H10H12.6211V7.83751C12.6211 8.29298 12.6426 8.684 12.6684 8.75275C12.7758 9.04494 13.0766 9.23829 13.416 9.23829C13.7555 9.23829 14.0563 9.04494 14.1637 8.75275C14.1895 8.684 14.2109 8.29298 14.2109 7.83751V7.04689H15.2207C15.775 7.04689 16.2305 7.05978 16.2305 7.07697C16.2305 7.14142 17.3863 20.0535 17.4078 20.2254L17.4336 20.4102H9.9957H2.56211L2.58789 20.2039C2.60938 20.0492 3.76953 7.11564 3.76953 7.05978C3.76953 7.05118 4.225 7.04689 4.7793 7.04689H5.78906V7.83751Z" fill="#09100D"/>
</svg>
