<?xml version="1.0" encoding="utf-8"?>
<!-- Generator: Adobe Illustrator 25.2.1, SVG Export Plug-In . SVG Version: 6.00 Build 0)  -->
<svg version="1.1" id="Layer_1" xmlns="http://www.w3.org/2000/svg" xmlns:xlink="http://www.w3.org/1999/xlink" x="0px" y="0px"
	 viewBox="0 0 595 763" style="enable-background:new 0 0 595 763;" xml:space="preserve">
<style type="text/css">
	.st0{fill:#FFFFFF;}
</style>
<g>
	<path class="st0" d="M306.27,182.57c-0.04-0.27-0.09-0.53-0.15-1.24c-0.22-1.1-0.41-1.76-0.61-2.42c-0.07-0.7-0.13-1.4-0.21-2.57
		c-0.08-0.59-0.16-0.72-0.23-0.84c0.01-0.31,0.02-0.62,0.06-1.34c-0.12-0.63-0.27-0.84-0.42-1.06c-0.02-0.95-0.04-1.91-0.02-3.31
		c-0.07-1.07-0.18-1.69-0.29-2.3c-0.3-3.98-0.03-7.94,0.62-12.36c0.65-2.11,0.95-3.79,1.53-5.37c2.49-6.78,5.54-13.3,8.95-19.67
		c3.63-5.34,7.31-10.64,10.87-16.03c2.42-3.66,4.62-7.47,7.01-11.15c1.87-2.88,2.4-6.08,2.53-9.39c0.07-1.83-0.04-3.67,0.04-5.49
		c0.13-2.98-0.54-5.79-1.55-8.57c-2.2-6.08-5.05-11.88-7.54-17.84c-0.52-1.24-1.19-2.42-1.62-3.68c-1.68-5-4.31-9.53-6.85-14.12
		c-2.24-4.05-4.46-8.13-5.45-12.73c-0.6-2.78-0.58-5.58-0.29-8.38c0.16-1.6,0.66-1.82,2.86-1.48c1.88,4.55,4.84,8.4,7.96,12.14
		c4.23,5.07,8.73,9.88,14.19,13.66c2.61,1.8,5.3,3.48,7.99,5.17c6.89,4.33,12.74,9.81,17.79,16.16c2.37,2.98,4.05,6.38,5.61,9.81
		c1.91,4.19,1.67,8.54,0.38,12.87c-0.2,0.67-0.44,1.33-0.66,1.98c0.37,0.16,0.61,0.36,0.75,0.31c3.76-1.4,7.47-2.96,11.28-4.21
		c2.65-0.87,5.44-1.32,8.16-1.95c1.7-0.39,1.7-0.39,2.9-2.57c-0.59,0.07-1.04,0.09-1.48,0.18c-0.95,0.2-1.89,0.51-2.84,0.66
		c-4.34,0.68-5.22-0.72-6.22-3.44c-0.61-1.66-1.84-2.84-3.06-4.03c-2.71-2.64-5.46-5.25-8.18-7.87c-0.62-0.59-1.2-1.22-1.83-1.8
		c-2.35-2.13-4.65-4.3-7.08-6.33c-1.73-1.44-3.1-3.1-3.91-5.19c-0.52-1.33,0.02-2.43,1.33-2.95c2.06-0.82,4.11-0.43,6.11,0.16
		c2.1,0.62,4.19,1.32,6.21,2.15c7.26,2.95,14.93,4.46,22.51,6.23c3.32,0.77,6.78,1.09,9.98,2.18c6.46,2.18,13.09,3.87,19.33,6.68
		c3,1.35,6.03,2.63,9.07,3.87c4.51,1.83,9.07,3.55,13.58,5.39c4.06,1.65,8.01,3.59,12.14,5.05c8.04,2.83,16.09,5.67,24.46,7.41
		c3.55,0.74,6.71,2.17,9.3,4.77c2.9-0.29,5.48-1.33,8.02-2.52c2.17-1.02,4.37-1.36,6.7-0.7c0.78,2.41-0.42,3.96-1.99,5.18
		c-1.03,0.81-2.32,1.33-3.56,1.84c-1.9,0.79-3.85,1.46-6.28,2.37c0.99,0.42,1.55,0.67,2.12,0.89c6.71,2.59,13.37,5.29,20.13,7.71
		c5.22,1.87,10.01,4.46,14.51,7.64c1.77,1.25,3.77,1.67,5.84,1.91c0.72,0.08,1.47-0.01,2.2,0.03c2.17,0.11,2.87,1.07,2.27,3.07
		c-0.57,1.89-1.67,3.1-3.76,3.51c-2.86,0.56-5.61,0.4-8.24-0.78c-1.26-0.57-2.51-0.77-3.87-0.87c-3.27-0.26-6.52-0.68-9.78-1.08
		c-2.41-0.3-4.82-0.67-7.7-1.14c-0.89-0.07-1.29-0.01-1.7,0.04c-0.5-0.09-1.01-0.18-2.06-0.42c-1.42-0.3-2.28-0.45-3.3-0.73
		c-0.8-0.1-1.44-0.06-2.32-0.01c0.9,0.91,1.66,1.34,2.88,1.33c1.06,0.26,1.87,0.45,2.69,0.63c5.16,2.19,10.38,4.25,15.36,6.87
		c4.25,2.24,8.19,4.86,11.35,8.52c1.11,1.29,2.17,2.65,3.07,4.09c1.92,3.11,3.75,6.28,5.56,9.46c1.58,2.77,0.18,5.17-1.14,7.52
		c-0.44,0.78-1.54,0.9-2.27,0.35c-0.67-0.51-1.4-1.05-1.84-1.74c-2.47-3.81-6.08-6.34-9.85-8.61c-7.98-4.79-16.32-8.82-25.41-11.08
		c-2-0.5-4.08-0.69-6.12-1.01c-3.48-0.55-6.97-1.1-10.66-1.68c-0.3,0.38-0.68,0.83-1.03,1.3c-0.65,0.88-0.73,1.85-0.13,2.74
		c0.75,1.1,1.48,2.27,2.48,3.13c3.63,3.11,7.68,5.55,12.08,7.49c4.82,2.13,9.91,3.42,14.88,5.07c4.74,1.57,9.51,3.05,14.01,5.31
		c5.09,2.55,9.65,5.76,13.49,9.93c3.39,3.68,6.63,7.5,9.94,11.25c0.89,1,1.82,1.97,2.7,2.98c0.85,0.96,1.34,2.06,0.97,3.37
		c-0.3,1.06-0.54,2.27-1.7,2.67c-1.22,0.42-2.06-0.49-2.83-1.27c-2.66-2.71-5.57-5.1-8.77-7.18c-4.01-2.6-8.25-4.74-12.67-6.53
		c-2.26-0.91-4.63-1.53-6.87-2.48c-2.75-1.18-5.7-1.15-8.69-2.01c0.05,0.57-0.04,0.94,0.11,1.17c7.03,11.01,14.06,22.02,22.43,32.09
		c3.12,3.75,6.42,7.38,9.9,10.79c6.62,6.48,12.03,13.8,15.86,22.22c2.38,5.22,3.83,10.79,5.31,16.32c0.16,0.59,0.22,1.21,0.43,1.77
		c3.67,9.82,6.68,19.87,10.89,29.5c2.46,5.62,5.49,10.89,8.99,15.9c1.02,1.47,1.8,3.01,1.31,4.77c-0.42,1.5-1.09,2.96-1.83,4.34
		c-0.49,0.93-1.53,1.15-2.56,1.14c-1.52-0.02-2.87-0.59-4.12-1.39c-1.54-0.98-3.08-1.98-4.57-3.05c-5.86-4.19-11.7-8.4-16.87-13.47
		c-5.62-5.51-10.27-11.75-14.45-18.36c-4.69-7.43-9.19-14.97-14.3-22.13c-4.75-6.65-8.92-13.69-12.93-20.81
		c-1.44-2.55-2.98-5.04-4.39-7.6c-2.36-4.27-4.62-8.59-6.99-12.85c-1.49-2.66-3.09-5.26-4.67-7.87c-2.28-3.75-4.59-7.5-6.91-11.22
		c-0.64-1.03-1.48-1.95-2.11-2.98c-1.5-2.47-3.82-3.27-6.53-3.31c-1.47-0.02-2.93-0.02-4.4,0c-0.61,0.01-1.23,0.04-1.82,0.17
		c-2.17,0.49-2.94,1.42-2.66,3.62c0.75,5.93,1.93,11.75,4.33,17.3c2.59,5.98,6.03,11.43,9.79,16.69
		c7.37,10.34,14.77,20.65,22.24,30.91c5.83,8.01,12.19,15.57,19.34,22.45c6.69,6.44,13.38,12.87,20.03,19.35
		c5.17,5.03,9.87,10.49,14.21,16.25c3.45,4.58,6.8,9.24,9.95,14.03c4.9,7.46,9.01,15.35,11.82,23.86c0.68,2.07,1.19,4.24,1.48,6.4
		c0.57,4.22,0.91,8.47,1.38,12.71c0.32,2.9,0.73,5.8,1.05,8.7c0.16,1.45,0.22,2.91,0.32,4.36c0.11,1.65-0.43,3.12-1.21,4.52
		c-1.08,1.93-2.59,2.17-4.04,0.44c-0.84-1.01-1.62-2.22-1.96-3.47c-2.13-7.79-6.48-14.42-10.84-21.04
		c-4.77-7.25-10.02-14.13-15.64-20.73c-5-5.86-10.53-11.21-16.32-16.29c-4.96-4.35-9.42-9.19-13.81-14.11
		c-3.48-3.9-7.3-7.52-10.88-11.18c-1.07,0.21-0.89,0.92-0.9,1.47c-0.03,6.38,1.79,12.24,5,17.72c2.86,4.89,6.76,8.94,10.6,13.03
		c3.26,3.46,6.64,6.81,9.99,10.2c4.54,4.6,9.15,9.15,13.64,13.8c5.61,5.8,10.69,12.04,15.2,18.74c2.93,4.36,5.76,8.77,8.2,13.42
		c3.31,6.29,5.92,12.8,7.14,19.86c1.06,6.12,1.97,12.24,2.02,18.46c0.02,1.94-0.21,3.89-0.45,5.81c-0.37,3.01-0.86,6.01-1.28,9.02
		c-0.2,1.45-0.33,2.91-0.57,4.35c-0.66,4.08-1.33,8.17-2.07,12.24c-0.21,1.18-0.58,2.38-2.01,2.91c-1.19-0.51-1.84-1.38-1.94-2.75
		c-0.23-2.91-0.62-5.8-0.79-8.72c-0.29-4.9-1.14-9.69-2.73-14.33c-1.5-4.38-3.05-8.75-4.59-13.11c-1.63-4.6-3.28-9.18-4.91-13.78
		c-2.04-5.8-4.94-11.14-8.6-16.07c-1.74-2.35-3.6-4.61-5.34-6.96c-2.8-3.77-6.42-6.67-10.05-9.56c-9.28-7.38-18.15-15.19-26.11-24
		c-3.19-3.53-6.52-6.94-9.76-10.43c-4.29-4.64-7.22-10.09-9.46-15.95c-2.46-6.43-3.7-13.12-4.36-19.95
		c-0.24-2.42-0.72-4.81-1.14-7.21c-0.76-4.32-1.75-8.6-2.3-12.95c-0.93-7.39-2.39-14.67-4.15-21.88c-1.51-6.18-3.9-12.07-7.67-17.3
		c-0.5-0.69-1.04-1.36-1.64-1.96c-2.3-2.29-3.4-2.51-7.11-1.43c-0.06,0.63-0.24,1.34-0.16,2.02c0.88,7.38,2.26,14.65,3.98,21.89
		c1.37,5.8,2.21,11.73,3.22,17.61c0.6,3.48,1.03,6.99,1.62,10.47c0.24,1.44,0.73,2.83,1.07,4.26c2.28,9.6,4.32,19.27,6.88,28.79
		c2.21,8.22,5.93,15.73,12.4,21.6c4.15,3.77,8.3,7.56,12.35,11.43c7.52,7.18,14.38,14.95,20.29,23.52c2.98,4.32,5.55,8.9,7.83,13.63
		c2.18,4.5,4.46,8.97,6.37,13.59c1.48,3.59,2.62,7.34,3.64,11.1c1.77,6.46,3.58,12.92,5.35,19.38c1.47,5.38,2.67,10.9,3.34,16.43
		c0.48,3.94,0.28,8-0.19,12.03c-0.57,4.86-1.57,9.61-2.56,14.37c-0.4,1.91-0.92,3.8-1.56,5.64c-2.08,6.03-2.93,12.33-4.24,18.52
		c-0.45,2.14-0.93,4.28-1.41,6.42c-0.08,0.35-0.24,0.69-0.41,1.02c-0.64,1.25-2.14,1.38-2.98,0.21c-1.24-1.73-1.86-3.63-1.84-5.82
		c0.08-5.99,0.13-11.98-0.01-17.96c-0.1-3.89-0.47-7.78-0.89-11.65c-0.48-4.48-1.2-8.94-1.74-13.42c-0.82-6.8-2.53-13.4-4.7-19.86
		c-1.86-5.54-3.73-11.09-6.41-16.33c-3.16-6.19-6.02-12.53-10.17-18.17c-3.54-4.82-6.98-9.71-10.36-14.63
		c-2.2-3.22-4.23-6.56-6.31-9.86c-4.17-6.6-8.14-13.33-12.53-19.79c-3.97-5.84-8.35-11.42-12.63-17.05
		c-3.84-5.06-7.56-10.18-10.31-15.96c-1.15-2.42-2.56-4.72-3.93-7.03c-3.16-5.35-6.51-10.6-9.51-16.03
		c-3.24-5.87-6.19-11.9-9.23-17.88c-0.88-1.74-1.62-3.55-2.41-5.33c-1.2-2.72-1.76-5.57-1.76-8.53c0-1.95,0.04-3.91-0.02-5.86
		c-0.03-0.83-0.07-1.75-0.43-2.47c-1.45-2.93-1.77-6.1-1.79-9.25c-0.02-3.27,0.48-6.54,0.7-9.81c0.39-5.74,2.33-11.2,3.04-16.89
		c0.21-1.72,0.22-3.34,0-5.06c-0.74-5.92-1.52-11.85-1.27-17.85c0.15-3.6,0.91-6.94,2.83-10.07c2.42-3.95,4.28-8.15,5.8-12.57
		c2.3-6.71,4.23-13.51,5.63-20.44c1.26-6.2,2.41-12.46,3.01-18.76c0.55-5.82,0.28-11.69-1.58-17.38c-0.58-1.78-1.43-3.35-2.42-4.89
		c-3.8-5.89-8.46-11.05-13.61-15.76c-2.83-2.59-6.38-4.12-10.11-4.91c-8.45-1.8-16.97-1.98-25.43-0.03
		c-4.65,1.07-9.07,2.93-13.31,5.11c-7.98,4.09-14.95,9.67-21.74,15.46c-3.06,2.61-6.18,5.2-8.6,8.46c-1.96,2.64-4.04,5.22-5.76,8.01
		c-3.37,5.47-7.38,10.31-12.63,14.07c-1.09,0.78-2.24,1.48-3.35,2.23c-2.21,1.51-4.61,2.82-6.58,4.6c-2.67,2.41-4.52,5.42-4.54,9.23
		c-0.01,1.46-0.1,2.93-0.16,4.39c-0.03,0.61,0.13,1.37-0.17,1.79c-1.28,1.77-1.04,3.65-0.76,5.6c0.05,0.35-0.43,1.1-0.62,1.09
		c-0.53-0.04-1.33-0.27-1.49-0.64c-0.41-0.99-0.73-2.1-0.74-3.17c-0.01-3.29,0.15-6.59,0.22-9.88c0.06-2.44,0.16-4.88,0.11-7.31
		c-0.07-3.54-0.32-7.07-0.38-10.61c-0.06-3.59,0.72-7.01,2.24-10.28c3.11-6.69,7.14-12.71,12.1-18.2
		c6.43-7.12,13.79-13.11,21.7-18.45c3.73-2.52,7.68-4.66,11.97-6.25c7.32-2.7,14.65-5.4,21.72-8.71c2.34-1.1,4.9-1.46,7.4-1.98
		c2.14-0.45,4.27-0.95,7.01-1.45c1.69-0.11,2.82-0.06,3.87-0.31c2.54-0.62,5.02-0.58,7.54,0.09c0.86,0.23,1.81,0.12,3.04,0.18
		c-1.68-2.11-3.86-1.53-5.64-1.85c-3.5-0.62-6.98,0.04-10.39,1.01c-2.64,0.42-5.29,0.75-7.91,1.27c-5.06,1-10.12,1.36-15.27,0.65
		c-1.23-0.17-2.67,0.28-3.84,0.81c-3.44,1.56-6.84,3.16-10.5,4.19c-2.25,0.64-4.07,1.98-5.56,3.92c-2.85,3.71-6.52,6.61-10.47,9.03
		c-4.8,2.95-9.2,6.42-13.56,9.93c-1.97,1.59-3.82,2.49-6.3,1.79c-0.21-0.06-0.48,0.05-0.85,0.11c-5.17,5.09-9.5,10.94-13.02,17.39
		c-3.52,6.43-5.44,13.29-5.09,20.66c0.27,5.59,0,11.2,0.83,16.77c0.5,3.36,0.8,6.76,1.14,10.14c0.11,1.08,0.12,2.19,0.04,3.28
		c-0.07,1-0.71,1.2-2.38,0.4c-0.46-1-0.67-1.61-0.88-2.23c-0.03-0.28-0.06-0.56-0.1-1.24c-0.19-0.61-0.37-0.82-0.55-1.02
		c-0.1-0.47-0.21-0.94-0.29-1.85c-0.14-0.64-0.31-0.85-0.47-1.06c0,0-0.02-0.27-0.05-0.6c-0.11-0.43-0.2-0.54-0.28-0.65
		c-0.05-0.32-0.1-0.64-0.15-1.33c-0.03-0.64-0.17-0.82-0.42-0.91c-0.02-0.31-0.04-0.61-0.04-1.34
		C306.58,183.02,306.43,182.79,306.27,182.57z M370.71,117.53c-0.32,0.26-0.65,0.52-1.4,0.98c-1.06,0.69-2.12,1.38-3.69,2.13
		c-1.43,1.12-2.81,2.3-4.29,3.35c-4.89,3.45-9.56,7.19-13.92,11.28c-4.98,4.67-9.99,9.34-14.21,14.74c-2.25,2.88-4.52,5.76-6.2,9.03
		c-1.22,2.37-2.15,4.81-1.85,7.74c0.47-0.25,0.84-0.35,1.06-0.58c2.46-2.56,5.32-4.65,8.11-6.83c2.19-1.71,4.13-3.77,6.12-5.74
		c3.07-3.04,5.07-6.84,7.32-10.45c2.39-3.84,4.89-7.59,8.13-10.77c2.52-2.48,5.11-4.89,7.64-7.37c1.21-1.18,2.34-2.45,3.98-3.68
		c1-0.75,2.01-1.51,3.42-2.37c0.29-0.3,0.59-0.59,1.24-1.11c0.14-0.25,0.28-0.5,0.42-0.74c-0.2-0.05-0.44-0.19-0.6-0.13
		C371.67,117.1,371.42,117.32,370.71,117.53z"/>
	<path class="st0" d="M130.69,451.17c-2.42-2.03-5.43-2.71-8.38-3.39c-3.58-0.82-7.03-1.9-10.59-3.8c-0.42-0.38-0.56-0.37-0.68-0.23
		c-0.17-0.06-0.34-0.11-0.77-0.45c-0.44-0.41-0.6-0.4-0.76-0.26c-0.9-0.27-1.69-0.02-2.41,0.52c-2.33,1.77-4.66,3.54-6.97,5.34
		c-2.12,1.65-4.24,3.29-6.31,5c-1.12,0.93-2.22,1.91-3.14,3.02c-1.7,2.07-3.34,4.21-4.87,6.42c-1.41,2.04-3.12,3.73-5.06,5.24
		c-1.28,1-2.09,1.05-3.24,0.1c-2.12-1.75-3.22-3.94-2.74-6.75c0.1-0.6,0.27-1.18,0.44-1.93c-1.08-1.92-2.2-3.94-3.34-5.95
		c-1.7-2.98-3.1-6.1-4.05-9.39c-0.47-1.63-0.64-3.34-0.98-5.01c-0.8-3.88-0.11-7.73,0.09-11.6c0.13-2.43,0.06-4.87,0.04-7.31
		c-0.01-1.5-0.5-2.87-1.35-4.1c-2.21-3.2-4.43-6.4-6.75-9.73c-1.32,0.66-0.89,2.32-2.31,3.13c-4.03-0.21-7.05,2.72-10.24,5.04
		c-4.74,3.45-8.88,7.61-12.71,12.07c-1.75,2.03-3.65,3.94-5.53,5.85c-5.75,5.84-9.82,12.7-12.39,20.45
		c-0.38,1.15-0.47,2.39-0.66,3.59c-0.63,3.85-1.21,7.71-1.9,11.55c-0.37,2.03-0.86,4.05-1.44,6.03c-0.35,1.19-1.79,1.36-2.65,0.42
		c-0.96-1.04-1.3-2.35-1.5-3.68c-0.51-3.37-1.15-6.73-1.37-10.12c-0.24-3.77-0.27-7.59,0-11.35c0.25-3.5,1.01-6.97,1.58-10.45
		c0.91-5.61,3.21-10.76,5.64-15.81c4.03-8.37,8.88-16.28,14.49-23.69c1.25-1.65,2.52-3.33,3.99-4.78c1.37-1.36,2.96-2.55,4.58-3.61
		c1.31-0.86,2.84-1.4,4.23-2.15c2.83-1.53,5.8-2.53,9.23-2.42c0.18-0.66,0.39-1.2,0.47-1.77c0.14-1.01,0.72-1.48,1.69-1.6
		c1-0.13,1.63,0.3,2.01,1.19c0.13,0.31,0.3,0.62,0.5,1.02c0.9-1.1,1.7-2.18,2.6-3.15c0.96-1.04,2.26-1.06,3.22-0.07
		c0.91,0.94,1.72,1.98,2.79,3.23c0.84-2.01,1.57-3.75,2.3-5.5c-1.73-1.57-3.53-3-5.07-4.67c-1.54-1.66-2.83-3.56-4.45-5.63
		c-0.79,2.31-1.46,4.25-2.11,6.2c-0.19,0.58-0.3,1.19-0.54,1.74c-0.91,2.14-1.54,2.29-3.92,1.04c-0.57,0.41-1.15,0.83-1.86,1.34
		c-3.23-1.56-4.51-4.4-4.96-7.62c-0.37-2.67-0.07-5.38,0.77-7.97c1.1-3.38,3.58-5.44,6.8-6.66c1.04-0.39,2.05-0.67,2.51-1.87
		c0.15-0.4,0.63-0.78,1.05-0.96c3.21-1.34,6.47-1.99,9.97-0.97c3.39,0.99,6.82,1.91,10.29,2.52c5.35,0.94,10.64,0.87,15.75-1.47
		c3.34-1.53,6.87-2.45,10.61-2.54c2.53-0.06,4.88,0.33,6.97,1.75c1.64,1.12,3.39,1.86,5.33,2.31c2.53,0.58,4.77,1.83,6.82,3.41
		c1.73,1.33,3.68,1.94,5.84,1.53c0.95-0.18,1.91-0.48,2.76-0.92c1.4-0.73,2.74-1.59,4.06-2.47c1.74-1.16,3.53-2.18,5.54-2.79
		c1.62-0.49,2.95,0.37,3.05,2.02c0.1,1.6-0.11,3.15-0.64,4.68c-1.66,4.83-4.51,8.91-8.01,12.55c-1.1,1.14-2.29,2.21-3.48,3.25
		c-3.54,3.1-7.5,5.35-12.14,6.5c-3.78,0.94-7.46,2.26-11.3,3.45c-0.41,3.48-0.44,6.88-0.05,10.24c0.45,3.87,0,7.51-1.67,11.02
		c-0.3,0.62-0.5,1.41-0.4,2.08c0.35,2.41,0.72,4.83,1.32,7.18c0.52,2.02,1.48,3.84,3.49,4.9c4.24,2.24,7.84,5.38,11.58,8.33
		c3.46,2.72,7.13,5,11.2,6.82c5.36,2.4,10.91,4.21,16.39,6.22c3.66,1.34,7.39,2.48,11.15,3.49c3.17,0.85,6.44,1.34,9.64,2.06
		c2.49,0.56,4.97,1.21,7.43,1.88c2.94,0.8,5.86,1.66,8.79,2.5c2.08,0.6,3.86,0.15,5.26-1.53c1.94-2.33,4.2-4.43,5.46-7.26
		c-2.84-2.24-6.65-3.82-9.83-4.22c-4.72-0.59-9.44-1.18-14.15-1.9c-1.55-0.24-3.1-0.73-4.53-1.37c-0.82-0.37-1.52-1.18-2.08-1.93
		c-0.65-0.87,0.02-2.01,1.13-2.08c0.6-0.04,1.23-0.02,1.82,0.09c5.03,1,10.15,1.25,15.23,1.78c2.91,0.3,5.86,0.4,8.7,1.03
		c2.46,0.55,4.78,1.74,7.21,2.67c1.72-1.76,4.54-6.75,6.76-12.09c0.09-0.46,0.06-0.64,0.02-0.82c-0.19,0.09-0.37,0.19-0.56,0.28
		c-2.39,0.43-4.78,0.88-7.17,1.27c-3.97,0.65-7.94,1.26-11.92,1.89c-1.31,0.21-2.62,0.43-3.93,0.65c-1.32,0.22-2.64,0.54-3.97,0.62
		c-4.26,0.27-8.52,0.51-12.78,0.66c-5.79,0.21-10.69-2.04-15.01-5.69c-0.4-0.34-0.58-0.94-0.85-1.39c0.88-0.95,1.74-0.66,2.53-0.48
		c11.69,2.69,23.49,2.51,35.33,1.48c0.73-0.06,1.46-0.17,2.19-0.18c5.52-0.11,10.84-1.47,16.22-2.53c2.74-0.54,3.87-2.19,4.07-4.84
		c-1.19-0.58-2.14,0.27-3.17,0.4c-1.09,0.13-2.18,0.28-3.24,0.54c-3.93,0.94-7.91,1.41-11.96,1.48c-5.61,0.1-11.22,0.41-16.84,0.58
		c-1.46,0.05-2.94-0.16-4.4-0.07c-3.75,0.23-6.88-1.41-9.94-3.21c-0.53-0.31-0.81-1.04-1.39-1.83c0.91-0.22,1.48-0.49,2.04-0.47
		c2.8,0.07,5.61-0.32,8.4,0.35c0.81,0.2,1.7,0.08,2.56,0.13c5.23,0.28,10.49,0.35,15.69,0.92c5,0.55,9.97,0.68,14.96,0.41
		c2.3-0.12,4.59-0.54,6.85-0.99c0.61-0.12,1.41-0.73,1.6-1.29c1.21-3.44,2.44-6.89,2.34-10.84c-0.64-0.07-1.21-0.2-1.77-0.19
		c-2.92,0.1-5.82,0.37-8.72,0.83c-3.85,0.61-7.75,0.81-11.61,1.34c-2.65,0.37-5.25,1.03-7.88,1.52c-3.24,0.6-6.48,1.18-9.72,1.74
		c-2.64,0.46-5.32,0.73-7.92,1.35c-4.55,1.07-9.21,0.88-13.81,1.34c-3.39,0.34-6.82,0.3-10.23,0.47c-1.9,0.09-3.61-0.4-5.22-1.4
		c-1.35-0.84-2.75-1.58-4.12-2.38c-0.82-0.47-1.28-1.12-0.85-2.29c2.81-0.79,5.69-1.68,8.79-1.67c6.84,0.02,13.69-0.02,20.53-0.09
		c1.45-0.02,2.89-0.25,4.33-0.44c6.89-0.92,13.79-1.74,20.65-2.81c7.87-1.23,15.79-1.09,23.71-1.21c1.19-0.02,2.46,0.29,3.69-0.68
		c0.29-3.38,0.19-6.88,0.03-10.6c-3.41,0.06-6.56,0.77-9.67,1.71c-3.75,1.13-7.56,1.85-11.5,1.82c-5.37-0.05-10.75-0.02-16.11,0.5
		c-1.21,0.12-2.47,0.19-3.66,0.01c-4.48-0.67-8.74,0.41-13.01,1.45c-5.21,1.27-10.38,2.71-15.72,3.43c-3.99,0.53-7.94,1.01-12,0.41
		c-2.28-0.34-4.23-1.1-5.98-2.47c-0.96-0.75-1.89-1.55-2.74-2.42c-0.28-0.29-0.28-0.85-0.45-1.43c3.27-0.96,6.4-1.1,9.51-0.28
		c3.5,0.93,6.94,0.71,10.49,0.18c7.01-1.06,13.81-2.93,20.65-4.72c3.16-0.83,6.5-0.99,9.76-1.42c2.78-0.36,5.55-0.8,8.34-0.95
		c4.02-0.22,8.07-0.48,12.06-0.2c3.45,0.25,6.86,0.09,10.21-0.4c2.79-0.4,5.56-0.67,8.36-0.69c0.35,0,0.69-0.13,1.19-0.22
		c-0.13-2.92-0.14-5.8-0.57-8.67c-0.68-4.57-1.22-9.16-1.86-13.73c-0.52-3.75-1.37-7.34-3.38-10.69c-2.77-4.6-5.5-9.2-8.72-13.5
		c-3.73-4.99-7.02-10.27-9.99-15.75c-0.58-1.07-1.07-2.19-1.46-3.34c-1.56-4.53-2.5-9.17-2.16-14c0.21-2.95,0.93-5.79,2.06-8.49
		c1.62-3.87,4.1-7.2,7.22-10.01c0.88-0.8,2.02-1.37,3.12-1.87c2.89-1.3,5.87-2.39,8.72-3.75c3.52-1.67,7.06-3.35,10.38-5.36
		c1.83-1.11,3.31-2.84,4.84-4.39c2.33-2.36,4.95-4.33,7.66-6.21c1.3-0.9,2.57-1.86,3.93-2.67c4.37-2.63,7.54-6.51,10.92-10.19
		c1.15-1.25,2.29-2.52,3.47-3.74c1.62-1.68,3.08-3.41,3.78-5.73c1.02-3.38,2.32-6.68,3.34-10.06c0.52-1.73,0.67-3.57,1.05-5.35
		c0.15-0.71,0.38-1.42,0.73-2.05c0.19-0.35,0.69-0.53,1.28-0.95c0.92,3.25,0.44,6.29,0.44,9.28c0,3.02-0.35,6.04-0.55,9.08
		c2.34,1.14,4.73,2.32,7.13,3.46c0.43,0.2,0.93,0.33,1.41,0.36c6.42,0.35,12.45,2.19,18.34,4.62c0.33,0.14,0.69,0.21,0.98,0.3
		c4.14-1.56,7.31-4.43,10.55-7.2c1.67-1.42,3.36-2.83,5.17-4.07c0.97-0.66,2.2-0.95,3.1-1.31c2,0.52,3.32,1.55,4.54,2.79
		c6.27,6.43,10.57,13.98,12.79,22.67c2.06,8.05,3.28,16.22,3.43,24.54c0.06,3.58-0.53,7.07-1.54,10.46
		c-1.39,4.67-2.9,9.31-5.08,13.71c-1.57,3.16-3,6.4-4.36,9.65c-2.56,6.13-6.22,11.59-10.06,16.95c-0.28,0.39-0.53,0.79-0.79,1.18
		c0.26,0.22,0.42,0.45,0.62,0.51c6.55,1.89,11.03,6.18,13.6,12.34c1.39,3.34,2.18,6.9,1.48,10.65c-0.62,3.35-0.82,6.76-0.65,10.18
		c0.11,2.23-0.33,4.37-1.05,6.46c-0.2,0.57-0.43,1.15-0.75,1.66c-0.7,1.13-2,1.15-2.62,0c-0.81-1.5-1.55-3.04-1.5-4.84
		c0.15-4.72-1.58-9.1-2.61-13.6c-0.39-1.68-1.56-2.98-2.68-4.29c-3.86-4.49-8.43-8.06-13.42-11.05c-0.65,0.2-1.15,0.27-1.56,0.5
		c-3.1,1.79-6.44,2.89-9.88,3.8c-1.74,0.46-3.4,1.33-5,2.19c-1.64,0.87-2.48,2.37-2.3,4.25c0.16,1.69,0.18,3.49,0.8,5.03
		c1.26,3.15,1.4,6.45,1.58,9.69c0.27,4.74,0.42,9.55,0,14.27c-1.12,12.59-4.59,24.39-12.73,34.45c-3.37,4.17-6.45,8.58-9.77,12.79
		c-2.64,3.35-5.5,6.52-8.19,9.83c-3.46,4.26-6.79,8.63-10.29,12.86c-1.7,2.06-3.61,3.96-5.53,5.83c-2.01,1.95-4.19,3.72-6.22,5.65
		c-1.46,1.39-3.11,2.4-5.08,2.75c-3.47,0.63-6.96,1.17-10.45,1.7c-3.67,0.55-7.27,0.39-10.8-0.98c-1.7-0.66-3.6-0.83-5.26-1.56
		c-5.02-2.22-10.37-3.53-15.42-5.63c-4.76-1.98-9.75-3.02-14.86-4.34c-0.8,1.17,0.39,2.4-0.26,3.74c-0.46-0.14-1.14-0.14-1.42-0.48
		c-1-1.21-1.88-2.52-2.77-3.82c-0.47-0.69-1.03-0.96-2.06-0.55c-0.16,1.19,0.89,2.09,1.1,3.21c0.11,0.59,0.48,1.15,0.54,1.74
		c0.04,0.4-0.16,0.9-0.42,1.22c-0.12,0.15-0.76,0.08-0.98-0.11c-2.44-2.06-4.85-4.16-5.29-7.6c-0.11-0.89-0.7-1.21-1.84-1.79
		c-1.48-0.37-2.53-0.42-3.69-0.72c-2.02-0.84-3.93-1.44-5.96-2.22c-0.7-0.32-1.28-0.45-1.86-0.58c-1.85-0.7-3.7-1.4-5.82-2.08
		C130.65,451.21,130.69,451.17,130.69,451.17z M277.46,275.91c0.01,0.19,0.01,0.38,0.02,0.57c0.29-0.09,0.57-0.19,1.15-0.54
		c-0.01-0.17-0.03-0.35-0.04-0.52C278.33,275.49,278.07,275.57,277.46,275.91z M275.48,277.4c-0.5,0.33-0.99,0.67-1.95,1.2
		c-2.24,1.49-4.47,2.98-7.17,4.65c-2.39,1.68-4.85,3.22-7.48,4.57c-3.24,1.66-6.29,3.72-9.36,5.7c-1.45,0.93-2.45,2.32-3.33,3.83
		c-1.72,2.96-3.31,5.96-4.82,9.5c-0.94,1.94-2.35,3.65-3.08,6.24c-0.48,0.84-1.03,1.65-1.42,2.53c-0.54,1.25-0.15,2.13,1.21,3.15
		c0.59-2.04,1.18-4.1,2.06-6.48c0.69-1.49,1.37-2.98,2.44-4.81c1.43-2.29,3.46-4.05,5.33-5.95c4.17-4.23,8.35-8.45,13.15-12.01
		c2.33-1.73,4.51-3.66,7.26-5.58c2.09-1.62,4.17-3.25,6.79-5.09c0.5-0.57,1-1.15,1.62-1.94
		C276.27,276.59,276.01,276.72,275.48,277.4z M243.43,410.17c-0.37,3.53-1.24,6.93-2.5,10.26c-0.53,1.4-0.74,2.93-1.29,5.25
		c1.12-1.14,1.66-1.6,2.09-2.14c0.75-0.95,1.47-1.93,2.13-2.95c2.41-3.71,3.93-7.86,5.56-11.92c1.73-4.28,3.41-8.64,4.47-13.12
		c1.46-6.14,2.4-12.41,3.39-18.65c0.73-4.56,1.08-9.18,1.77-13.75c0.85-5.66,1.91-11.29,3.7-16.75c1.08-3.29,2.65-6.32,5.17-8.73
		c5.07-4.85,10.82-8.84,17.22-11.61c6.49-2.81,11.67-7.12,15.83-12.61c3.9-5.15,7.46-10.56,10.9-16.03
		c2.34-3.72,4.13-7.76,4.26-12.3c0.09-3.17,0.39-6.35,0.19-9.5c-0.24-3.74-0.13-7.57-1.57-11.17c-0.54-1.35-0.98-2.76-1.42-4.15
		c-1.77-5.6-5.24-10.07-9.38-14.38c-0.98,1.1-1.85,2.08-2.77,3.11c0.36,0.68,0.66,1.2,0.91,1.73c0.88,1.87,1.82,3.72,2.59,5.64
		c2.45,6.07,3.29,12.44,3.5,18.93c0.23,7.09-1.37,13.8-4.55,20.1c-1.09,2.16-2.46,4.26-4.04,6.08c-4.83,5.53-10.78,9.45-17.75,11.84
		c-2.77,0.95-5.5,2.02-8.19,3.16c-4.99,2.11-9.48,4.93-13.23,8.96c-1.72,1.85-3.01,3.8-3.67,6.21c-0.49,1.76-0.88,3.56-1.55,5.25
		c-0.76,1.91-1.75,3.74-2.74,5.56c-0.23,0.42-0.85,0.63-1.62,1.17c-0.13-0.98-0.26-1.55-0.28-2.13c-0.16-4.18,0.5-8.27,1.45-12.32
		c0.3-1.29,0.82-2.56,1.42-3.75c1.9-3.75,4.62-6.93,7.66-9.74c4.32-3.99,9.26-7.12,14.63-9.6c4.42-2.03,8.88-4,12.89-6.85
		c5.73-4.09,10.1-9.19,12.01-16.07c0.64-2.32,0.72-4.8,1.1-7.2c0.99-6.22,0.8-12.42-0.7-18.51c-0.5-2.04-0.82-4.32-2.66-5.92
		c-1.7,0.82-3.37,1.49-4.77,2.67c0,2.53-0.15,4.99,0.04,7.41c0.3,3.82-1.15,6.83-3.63,9.6c-3.83,4.28-7.85,8.36-12.2,12.11
		c-3.05,2.63-6.11,5.26-9.27,7.74c-6.27,4.92-11.76,10.61-17.18,16.42c-3.81,4.08-6.16,8.69-7.2,14.08
		c-0.09,0.48-0.17,0.96-0.31,1.43c-0.68,2.2-1.13,4.5-2.76,5.99c0.39,1.64,0.82,3.05,1.04,4.49c0.58,3.84,1.12,7.69,1.58,11.55
		c0.39,3.25,0.63,6.53,0.96,9.79c0.17,1.69,0.5,3.38,0.56,5.07c0.19,4.88,0.41,9.75,0.38,14.63c-0.03,5.85-0.26,11.7-0.48,17.55
		c-0.1,2.8-0.33,5.59-0.57,8.38C244.27,403.51,243.93,406.53,243.43,410.17z M210.48,302.69c-0.69,5.48-0.77,10.97,0.23,16.4
		c1.46,7.93,4.06,15.55,6.71,23.13c2.18,6.25,3.75,12.69,4.02,19.24c0.35,8.51,1.05,17.01,0.85,25.55c-0.17,7.32-0.12,14.65,0,21.98
		c0.07,3.92-0.77,7.74-0.81,11.64c0,0.48-0.14,0.97-0.24,1.44c-0.57,2.61-1.27,5.21-1.71,7.85c-0.62,3.76-1.74,7.34-3.1,10.88
		c-0.55,1.43-1.18,2.85-1.53,4.46c0.5-0.08,0.8-0.04,0.94-0.17c4.29-3.81,8.29-7.91,11.78-12.47c1.47-1.93,2.87-3.98,3.94-6.15
		c3.12-6.32,4.71-13.06,4.72-20.1c0.01-5.13,0.47-10.22,0.88-15.32c0.18-2.18,0.4-4.36,0.42-6.54c0.01-2.31-0.18-4.63-0.32-6.94
		c-0.13-2.19-0.23-4.39-0.46-6.57c-0.33-3.15-0.76-6.29-1.15-9.43c-0.12-0.97-0.19-1.95-0.4-2.9c-1.36-6.33-3.38-12.46-5.83-18.43
		c-2.77-6.76-5.63-13.48-7.57-20.54c-0.36-1.29-0.61-2.61-0.88-3.92c-1.19-5.81-0.59-11.68-0.37-17.5c0.15-3.93,2.19-7.39,5.45-9.53
		c3.96-2.6,8.15-4.92,12.73-6.37c0.8-0.25,1.66-0.4,2.49-0.43c1.11-0.04,1.78,0.76,1.74,1.89c-0.05,1.43-0.52,2.49-1.96,3.2
		c-1.96,0.97-3.83,2.15-5.63,3.39c-1.94,1.33-3.6,2.99-3.8,5.52c-0.22,2.79-0.32,5.59,0.05,8.38c0.25,1.89,0.69,3.67,2.2,5.32
		c0.38-1.46,0.79-2.62,0.96-3.82c0.69-4.76,2.29-9.15,4.64-13.37c2.44-4.38,5.92-7.39,10.52-9.17c2.61-1.01,5.29-1.81,7.92-2.77
		c1.71-0.63,3.45-1.23,5.03-2.11c3.51-1.96,6.96-4.05,10.39-6.16c3.66-2.25,6.98-4.92,9.84-8.14c2.03-2.28,3.34-4.89,3.96-7.9
		c-3.21-0.62-5.75,0.44-8.16,2.01c-3.7,2.41-7.15,5.12-9.97,8.55c-4.43,5.4-10.14,8.24-17.08,8.74c-1.57,0.11-3.13,0.47-4.7,0.61
		c-2.06,0.19-4.13,0.44-6.18,0.38c-3.27-0.09-6.54-0.4-9.37-0.58c-2.17,1.5-3.95,2.77-5.77,4c-2.12,1.44-4.42,2.65-6.34,4.31
		c-2.21,1.9-4.07,4.21-6.11,6.31c-0.89,0.92-1.35,1.96-1.53,3.23C211.51,296.53,211.01,299.28,210.48,302.69z M65.85,404.15
		c0.09,0.48,0.19,0.95,0.26,1.43c0.48,3.71,1.61,7.1,4.35,9.83c1.81,1.8,2.66,4.13,2.8,6.61c0.16,3.03,0.33,6.12-0.02,9.12
		c-1.05,8.91,1.11,17.11,5.02,25.3c1.24-1.31,2.25-2.65,3.15-4.09c4.18-6.73,8.28-13.52,12.59-20.16c1.57-2.42,2.79-4.71,2.35-7.73
		c-0.31-2.16,0.09-4.45-0.4-6.54c-1.46-6.33-3.74-12.35-7.9-17.5c-0.77-0.95-1.54-1.9-2.24-2.9c-3.92-5.52-8.59-10.27-14.34-13.9
		c-0.65-0.41-1.42-0.65-2.16-0.98c-1.52,3.85-2.87,7.5-5.64,10.73c0.21,1.36,0.39,2.93,0.69,4.47
		C64.73,399.77,65.22,401.66,65.85,404.15z M249.68,267.13c0.04-1.44,0.89-2.48,1.82-3.44c1.25-1.28,2.53-2.52,4-3.97
		c-2.27-1.47-4.35-2.83-6.46-4.2c-1.8,1.15-2.96,2.67-4.16,4.33c0.37,1.42,0.66,2.85,1.12,4.23
		C246.51,265.63,247.36,266.94,249.68,267.13z M264.63,254.11c-0.5,0-1.06,0.09-1.01,0.7c0.08,1.08,0.33,2.15,0.45,3.22
		c0.11,1.02,0.13,2.05,0.21,3.53c1.76-1.23,3.12-2.22,4.51-3.14c1.4-0.93,2.84-1.79,4.44-2.8
		C270.41,255.1,267.83,254.62,264.63,254.11z M238.02,268.56c1.64,0.05,3.28,0.19,5.26-0.18c-0.77-1.51-1.41-2.75-2.06-4.04
		C239.39,264.96,238.96,266.78,238.02,268.56z M49.36,367.1c0.17,0.74-0.17,1.63,1.25,2.93c-0.27-2.87,0.83-4.85,0.56-7.34
		C49.48,363.74,48.92,364.93,49.36,367.1z M257.68,254.02c0.92-0.83,0.98-1.79,0.09-2.12c-1.38-0.51-2.79-0.88-4.26,0.35
		C254.82,252.83,256.01,253.36,257.68,254.02z M255.15,266.37c-0.07,0.32-0.14,0.64-0.2,0.96c0.44-0.02,0.9,0.05,1.3-0.07
		c0.56-0.17,0.66-0.69,0.43-1.15C256.39,265.55,255.91,265.74,255.15,266.37z"/>
	<path class="st0" d="M362.95,445.08c4.76-3.65,9.27-7.2,13.88-10.61c4.33-3.2,8.44-6.64,12.3-10.38
		c4.64-4.51,9.34-8.96,13.86-13.59c4.01-4.1,7.8-8.41,11.71-12.61c1.85-1.99,3.19-4.3,4.42-6.7c0.72-1.41,1.29-2.91,2.11-4.25
		c2.59-4.2,4.05-8.86,5.6-13.48c0.76-2.27,1.14-4.67,1.63-6.73c1.85-1.22,2.64,0.87,4.22,0.62c0-0.62,0.13-1.31-0.02-1.93
		c-1.44-5.92-2.81-11.86-3.64-17.91c-0.49-3.62-0.85-7.26-1.2-10.9c-0.33-3.39-0.47-6.8-0.9-10.18c-0.66-5.18-1.17-10.4-3.07-15.35
		c-0.61-1.58-1.03-3.25-1.39-4.91c-1.44-6.6-4.03-12.78-6.75-18.91c-0.55-1.23-1.14-2.43-1.67-3.67
		c-2.45-5.78-6.44-10.24-11.62-13.73c-4.25-2.87-8.38-5.91-12.62-8.79c-1.4-0.95-2.94-1.73-4.47-2.47c-2.98-1.44-5.9-2.95-7.96-5.67
		c-0.37-0.49-0.85-0.95-1.01-1.51c-1.03-3.42-3.98-5.09-6.46-7.17c-1.78-1.48-3.7-2.8-5.52-4.24c-0.67-0.53-1.26-1.22-0.89-2.2
		c0.23-0.62,1.25-0.95,2.26-0.67c0.7,0.2,1.39,0.48,2.02,0.84c1.06,0.6,2.05,1.33,3.11,1.94c1.89,1.09,3.81,2.04,5.94,2.72
		c3.35,1.07,6.72,2.25,9.68,4.26c1.95,1.32,4.15,1.96,6.41,2.57c3.64,0.99,7.26,2.1,10.8,3.39c3.27,1.19,6.02,3.27,8.05,6.13
		c2.47,3.48,4.88,7.01,7.21,10.58c2.07,3.17,4.05,6.39,5.97,9.65c4.33,7.36,8.35,14.87,11.73,22.74c2.31,5.37,5.15,10.51,7.73,15.76
		c2.26,4.59,4.49,9.2,6.72,13.81c3.03,6.26,6.35,12.35,10.11,18.21c2.9,4.51,5.66,9.12,8.69,13.55
		c7.23,10.57,14.2,21.33,22.33,31.27c4.8,5.87,8.67,12.37,11.96,19.21c2.22,4.62,4.65,9.13,6.79,13.78
		c1.94,4.21,3.78,8.47,5.36,12.82c2.5,6.87,4.94,13.77,7.03,20.77c2.02,6.77,3.86,13.62,5.24,20.54c1.96,9.85,2.26,19.87,1.07,29.84
		c-0.48,4.07-1.01,8.21-2.55,12.12c-0.62,1.57-0.73,3.32-1.13,4.98c-0.23,0.94-0.54,1.87-0.88,2.77c-0.18,0.49-1.2,0.6-1.6,0.24
		c-0.78-0.68-1.18-1.56-1.23-2.57c-0.03-0.6,0-1.23,0.13-1.82c0.95-4.13,0.11-8.26-0.09-12.36c-0.27-5.6-1.26-11.12-2.88-16.52
		c-1.85-6.19-3.61-12.4-5.25-18.64c-1.34-5.1-3.47-9.89-5.44-14.75c-0.82-2.03-1.78-4.01-2.75-5.97c-0.54-1.08-1.22-2.1-1.88-3.12
		c-3.77-5.78-8.58-10.6-13.82-15.04c-2.04-1.73-3.98-3.6-5.85-5.53c-4.92-5.08-9.74-10.26-14.87-15.15
		c-3.88-3.7-7.42-7.75-11.04-11.72c-2.79-3.06-5.56-6.16-8.17-9.38c-1.99-2.45-3.95-4.99-5.51-7.73c-3.2-5.61-6.47-11.2-8.95-17.19
		c-0.18-0.43-0.5-0.81-0.7-1.14c-0.86-0.1-0.93,0.46-0.88,0.89c0.11,0.95,0.28,1.9,0.52,2.83c1.39,5.43,3.03,10.9,2.53,16.54
		c-0.66,7.38-1.46,14.72-4.69,21.65c-4.25,9.12-9.19,17.73-15.62,25.49c-2.41,2.91-4.73,5.91-6.98,8.95
		c-2.85,3.86-6.4,7.06-9.82,10.34c-3.6,3.45-7.6,6.48-11.43,9.69c-0.56,0.47-1.16,0.9-1.76,1.31c-5.84,4-11.67,8.02-17.53,11.99
		c-4.56,3.08-8.9,6.44-12.9,10.21c-4.45,4.18-8.81,8.44-13.17,12.72c-4.46,4.38-8.04,9.49-11.8,14.45
		c-1.25,1.65-2.46,3.34-3.73,4.98c-3.68,4.75-6.78,9.79-9.13,15.36c-2.18,5.18-4.13,10.42-5.66,15.81c-0.3,1.04-0.49,2.14-0.56,3.22
		c-0.52,7.54-0.87,15.09-1.1,22.65c-0.13,4.38-0.57,8.78-0.28,13.14c0.27,3.9,0.35,7.79,0.37,11.68c0.02,4.15,0.18,8.31-0.05,12.45
		c-0.2,3.64-0.77,7.26-1.32,10.87c-0.49,3.25-1.27,6.45-1.75,9.7c-0.61,4.12-1.78,8.09-3,12.04c-0.79,2.56-1.61,5.11-2.54,7.63
		c-0.37,1.01-1,1.95-1.64,2.83c-0.54,0.75-1.51,0.71-2.26,0.08c-1.16-0.99-1.91-2.22-2.18-3.71c-1.12-6.11-2.22-12.23-3.34-18.34
		c-0.46-2.52-0.85-5.05-1.46-7.53c-1.27-5.21-2.7-10.37-4-15.57c-1.33-5.32-2.63-10.65-3.86-15.99c-0.66-2.85-1.3-5.71-1.69-8.6
		c-1.03-7.74-1.98-15.5-1.47-23.32c0.4-6.19,1.14-12.35,1.77-18.53c0.28-2.78,0.66-5.55,0.99-8.32c1.01-8.53,3.58-16.68,6.46-24.7
		c4.08-11.38,10.35-21.45,18.91-30.11c7.92-8.01,16.55-15.14,25.56-21.86c8.61-6.42,17.23-12.84,25.85-19.25
		C361.31,446.18,362.03,445.72,362.95,445.08z"/>
	<path class="st0" d="M338.82,659.17c4.99-6.66,9.88-13.06,14.59-19.59c1.99-2.76,3.6-5.8,5.39-8.7c2.05-3.32,4.08-6.65,6.19-9.93
		c1.89-2.94,2.83-6.23,3.49-9.57c1.39-6.94,2.04-13.97,1.96-21.05c-0.03-3.43-0.47-6.79-1.52-10.07
		c-1.93-6.04-3.72-12.13-5.75-18.13c-1.64-4.85-3.48-9.62-5.34-14.39c-3.01-7.75-4.17-15.78-3.62-24.04
		c0.18-2.7,1.12-5.24,2.76-7.45c0.92-1.25,2.08-2.08,3.78-1.43c0.45,0.17,0.94,0.23,1.56,0.37c0.25,2.29,2.19,3.36,3.6,4.84
		c5.24,5.47,10.81,10.59,16.54,15.54c2.58,2.23,5.41,4.17,8,6.39c3.45,2.95,6.5,6.32,8.87,10.18c3.02,4.92,5.06,10.2,5.9,16.01
		c0.88,6.04,1.54,12.09,1.44,18.18c-0.16,9.95-1.91,19.63-5.89,28.81c-0.87,2.01-1.96,3.93-3.06,5.83
		c-2.26,3.91-4.62,7.75-6.88,11.66c-1.53,2.65-3.71,4.49-6.52,5.64c-0.56,0.23-1.08,0.55-1.56,0.79
		c-4.27,6.66-9.05,12.82-14.71,18.25c-3.96,3.79-8.1,7.39-12.04,11.2c-2.99,2.88-5.81,5.92-8.67,8.93c-2.61,2.74-5.28,5.43-7.7,8.33
		c-4,4.77-7.82,9.68-11.74,14.52c-1.84,2.28-3.65,4.59-5.64,6.74c-3.94,4.25-6.87,9.15-9.73,14.13c-0.36,0.63-0.6,1.35-1.02,1.94
		c-3.12,4.33-3.94,9.38-4.54,14.49c-0.07,0.6-0.01,1.25-0.2,1.81c-1.23,3.82-0.91,7.62-0.28,11.5c0.39,2.4-0.83,4.49-2.32,6.32
		c-0.25,0.31-1.26,0.39-1.65,0.15c-0.8-0.5-1.6-1.17-2.08-1.97c-3.74-6.29-7.47-12.59-11.07-18.96
		c-4.32-7.65-8.71-15.26-13.61-22.56c-2.45-3.65-4.79-7.36-7.3-10.96c-4.12-5.93-8.98-11.25-13.81-16.59
		c-4.16-4.6-8.2-9.34-12.09-14.17c-1.98-2.46-3.61-5.21-5.24-7.93c-3.58-5.97-6.58-12.23-8.72-18.88
		c-3.94-12.2-5.62-24.68-4.7-37.51c0.57-7.92,0.79-15.85,0.78-23.79c0-5.64-0.38-11.21-2.05-16.65c-0.68-2.21-1.13-4.49-1.64-6.75
		c-1.26-5.56-4.13-10.4-6.87-15.29c-2.24-3.98-5.31-7.28-8.68-10.31c-0.7-0.62-1.64-0.99-2.51-1.4c-1.28-0.6-2.2-1.48-2.72-2.82
		c-0.42-1.1-0.01-1.87,1.18-2.17c1.02-0.25,1.93-0.04,2.82,0.45c2.35,1.29,4.76,2.49,7.05,3.87c3.14,1.88,6.17,3.92,9.29,5.82
		c3.64,2.22,7.36,4.32,11,6.55c4.64,2.84,8.41,6.57,11.59,11.01c3.1,4.32,5.55,8.94,7.01,13.99c2,6.9,4.16,13.76,5.17,20.93
		c0.76,5.42,1.82,10.79,2.74,16.19c0.12,0.72,0.21,1.46,0.22,2.19c0.12,6.6,1.27,13.05,2.49,19.51c0.36,1.91,0.46,3.87,0.72,5.8
		c0.71,5.35,2.4,10.45,4.1,15.53c2.39,7.15,4.87,14.26,8.02,21.15c4.13,9.02,11.16,14.96,19.44,19.72c1.65,0.95,3.66,1.29,5.54,1.78
		c0.66,0.17,1.46,0.11,2.14-0.07c3.57-1.01,6.84-2.63,9.56-5.2c2.21-2.1,4.43-4.21,6.45-6.49c3.49-3.94,7.27-7.58,11.35-10.88
		C332.13,667.25,335.58,663.51,338.82,659.17z"/>
	<path class="st0" d="M405.69,393.92c-7.15,9.45-15.67,17.04-25.13,23.68c-3.89,2.73-7.61,5.72-11.4,8.58
		c-4.68,3.53-9.41,6.99-14.03,10.59c-3.36,2.63-6.62,5.39-9.84,8.19c-4.97,4.32-9.84,8.75-14.79,13.09
		c-5.23,4.58-10.52,9.09-15.76,13.67c-1.83,1.61-3.56,3.34-5.36,4.98c-3.6,3.29-7.18,6.61-10.84,9.83
		c-4.33,3.81-6.97,8.73-9.38,13.82c-0.42,0.88-0.72,1.81-1.11,2.71c-1.47,3.36-2.52,6.84-3.46,10.39c-0.62,2.34-1.65,4.58-2.53,6.85
		c-0.17,0.45-0.46,0.86-0.75,1.25c-0.73,0.95-1.93,1.18-2.92,0.46c-1.97-1.43-3.33-3.36-3.32-5.82c0.03-4.51,0.09-9.04,0.55-13.52
		c0.49-4.83,1.48-9.61,2.19-14.42c1-6.84,3.61-13.12,6.55-19.3c4.32-9.08,10.13-17.22,15.87-25.41c5.54-7.9,11.4-15.55,17.85-22.73
		c4.08-4.53,8.21-9.02,12.7-13.17c7.71-7.13,15.36-14.32,22.89-21.64c5.17-5.02,9.95-10.4,14.08-16.35
		c2.64-3.8,5.47-7.47,8.27-11.17c2.53-3.35,4.12-7.19,5.87-10.94c1.18-2.54,2.33-5.11,3.24-7.76c0.9-2.63,1.55-5.36,2.2-8.08
		c0.74-3.07,1.4-6.17,2.01-9.27c0.37-1.91,0.61-3.84,0.85-5.77c0.81-6.42,1.03-12.88,0.98-19.35c-0.04-4.55-0.64-8.98-2.66-13.14
		c-0.58-1.2-1.06-2.48-1.39-3.77c-0.88-3.35-2.39-6.38-4.45-9.14c-0.92-1.23-1.37-2.61-0.85-4.11c0.1-0.27,0.86-0.59,1.14-0.47
		c0.53,0.22,1.06,0.67,1.37,1.16c1.71,2.68,4.3,4.63,6.09,7.24c0.41,0.6,1.03,1.06,1.41,1.68c4.21,6.76,9.75,12.47,14.65,18.68
		c2.96,3.75,4.95,8.11,6.37,12.68c1.84,5.93,3.62,11.89,5.33,17.86c0.6,2.1,1,4.27,1.33,6.43c0.35,2.28,0.58,4.58,0.76,6.88
		c0.41,4.99,0.59,10,0.15,14.99c-0.33,3.76-1.04,7.47-2.64,10.96c-0.65,1.42-1.06,2.97-1.48,4.49c-1.51,5.54-3.33,10.96-5.95,16.09
		C409,388.52,407.73,391.29,405.69,393.92z"/>
	<path class="st0" d="M298.34,196.96c7.42,5.35,14.88,10.65,22.26,16.06c4.03,2.96,7.97,6.04,11.88,9.16c2,1.59,3.95,3.28,5.74,5.11
		c3.09,3.14,6.44,5.98,9.93,8.65c5.83,4.45,11.24,9.38,16.53,14.44c4.09,3.92,7.32,8.5,9.48,13.78c0.18,0.45,0.28,0.97,0.56,1.35
		c2.26,2.98,3.07,6.61,4.49,9.97c2.29,5.41,3.57,11.13,5.17,16.75c0.2,0.7,0.36,1.43,0.38,2.16c0.22,5.61,0.48,11.21-0.6,16.78
		c-0.65,3.34-1.05,6.73-1.75,10.06c-0.57,2.74-1.22,5.48-2.16,8.11c-3.07,8.55-7.26,16.5-12.94,23.65
		c-5.76,7.26-11.32,14.68-17.15,21.89c-2.99,3.7-6.26,7.17-9.58,10.58c-3.4,3.5-7.09,6.72-10.51,10.2
		c-2.13,2.17-4.02,4.58-5.92,6.96c-0.69,0.87-1.28,1.67-2.41,2.1c-0.85,0.32-1.61,1.06-2.25,1.76c-1.72,1.89-3.35,3.88-5.04,5.8
		c-0.54,0.61-1.17,1.14-1.74,1.68c-1.25-0.59-1.12-1.51-0.76-2.25c0.64-1.31,1.38-2.59,2.24-3.76c1.23-1.68,2.38-3.39,3.07-5.38
		c0.12-0.34,0.28-0.68,0.48-0.99c3.19-4.95,4.99-10.55,7.37-15.88c3.09-6.91,6.27-13.76,10.9-19.83c0.96-1.26,1.93-2.52,2.96-3.72
		c2.61-3.06,5.29-6.08,7.88-9.15c1.04-1.23,2.19-2.27,3.53-3.15c0.69-0.45,1.31-1.1,1.75-1.8c1.77-2.78,3.54-5.56,5.15-8.43
		c2.48-4.41,3.66-9.28,4.79-14.16c1.2-5.14,0.88-10.42,1.4-15.62c0.66-6.57,0.58-13.15,0.65-19.73c0.07-6.44-1.41-12.54-3.57-18.56
		c-1.4-3.9-3.84-7.07-6.48-10.11c-3.6-4.14-7.31-8.19-11.14-12.11c-2.47-2.53-5.33-4.66-7.85-7.14c-4.11-4.06-8.84-7.23-13.72-10.28
		c-7.66-4.79-15.01-10.06-22.01-15.78c-3.2-2.62-6.12-5.6-9.09-8.5c-2.88-2.81-5.67-5.71-8.5-8.57c-0.26-0.26-0.52-0.54-0.83-0.71
		c-2.99-1.63-5.85-3.54-9.18-4.49c-1.67-0.48-3.32-0.42-5.06-0.33c-4.97,0.26-8.68,2.88-12.27,5.9c-4.01,3.38-8.04,6.73-12.4,10.3
		c-0.5,0.41-0.65,0.61-0.81,0.8c0,0,0.09,0.14-0.21,0.15c-2.25,1.78-4.78,2.87-6.36,5.1c-1.92,1.49-3.83,3-5.78,4.45
		c-4.5,3.35-9.19,6.4-14.11,9.14c-5.22,2.91-10.25,6.13-15.14,9.56c-4.09,2.87-8.24,5.66-12.42,8.41
		c-4.39,2.89-8.42,6.23-12.45,9.59c-5.08,4.25-9.49,9.11-13.63,14.26c-1.75,2.18-3.68,4.28-5.84,6.04c-3.04,2.48-5.72,5.3-8.52,8.01
		c-1.49,1.44-2.95,2.92-4.53,4.26c-1.01,0.86-2.19,1.55-3.35,2.2c-0.9,0.51-1.64,0.3-2.3-0.41c-1.46-1.58-1.57-2.71-0.28-4.53
		c1.06-1.49,2.23-2.89,3.31-4.36c3.48-4.71,7.01-9.38,10.37-14.17c1.96-2.79,3.76-5.7,5.39-8.69c2.53-4.63,5.44-8.97,8.94-12.89
		c4.31-4.83,8.94-9.36,14.14-13.24c6.45-4.81,12.99-9.51,19.58-14.12c2.49-1.74,5.19-3.2,7.9-4.56c5.24-2.62,10.3-5.54,15.23-8.69
		c1.34-0.85,2.58-1.85,3.93-2.69c8.7-5.41,17.64-10.39,26.76-15.04c4.62-2.36,9.55-3.56,14.8-3.4c3.41,0.11,6.86-0.19,10.07,1.35
		c0.32,0.15,0.71,0.17,1.07,0.2c5.84,0.4,10.51,3.38,15.34,7.07c1.24,0.95,1.99,1.91,3.25,1.83c-0.02,0-0.03-0.03,0.04,0.24
		c0.5,0.52,0.87,1.17,1.43,0.48c-0.01,0,0-0.01-0.16,0.18C297.85,196.61,298.09,196.79,298.34,196.96z"/>
	<path class="st0" d="M368.5,500.47c4.24-4.41,8.31-8.62,12.35-12.86c1.18-1.23,2.31-2.51,3.46-3.77c2.7-2.95,6.05-4.92,9.72-6.33
		c1.28-0.49,2.08-1.16,2.17-2.59c0.03-0.46,0.27-0.95,0.54-1.33c0.58-0.8,1.32-1.03,2.35-0.23c0.13,2.64,0.25,5.43,0.41,8.21
		c0.09,1.46,0.14,2.93,0.4,4.36c0.47,2.54,1.34,4.92,3.01,6.98c3.55,4.36,7.18,8.66,11.59,12.18c2.47,1.98,5.12,3.75,7.76,5.51
		c4.98,3.32,9.74,6.9,14.31,10.78c4.48,3.8,7.7,8.5,10.21,13.68c2.39,4.93,4.49,10.02,5.32,15.51c0.88,5.79,1.74,11.62,1.18,17.46
		c-0.62,6.42-1.68,12.79-4.21,18.83c-2.3,5.51-4.39,11.11-6.67,16.62c-1.82,4.41-4.06,8.6-6.73,12.56c-2.22,3.29-5,6.03-8.25,8.22
		c-4.01,2.7-7.29,6.12-10.36,9.76c-1.76,2.09-3.82,3.81-6.08,5.24c-4.55,2.85-9.19,5.55-13.82,8.27c-1.34,0.79-2.19,0.64-3.34-0.35
		c-1.34-1.15-2.14-2.65-2.65-4.3c-0.32-1.03,0.04-1.93,0.86-2.62c0.28-0.23,0.59-0.43,0.91-0.61c4.04-2.32,6.82-5.86,9.3-9.68
		c3.19-4.93,5.58-10.27,8-15.6c1.83-4.02,3.37-8.11,4.13-12.47c0.12-0.72,0.33-1.44,0.36-2.16c0.29-5.36,0.76-10.72,0.49-16.09
		c-0.36-7.06-0.83-14.1-1.83-21.11c-0.63-4.4-2.06-8.52-3.72-12.59c-0.18-0.45-0.38-0.91-0.66-1.31
		c-3.92-5.51-8.22-10.63-14.29-13.94c-0.53-0.29-1.08-0.55-1.65-0.74c-5.71-1.98-10.24-5.58-14.1-10.13c-1.66-1.95-3.26-3.95-5-5.83
		c-1.74-1.88-3.53-3.71-5.72-5.12c-1.02-0.66-1.99-1.43-2.85-2.29c-1.72-1.74-1.88-3.58-0.46-5.6
		C365.99,503.48,367.18,502.09,368.5,500.47z"/>
	<path class="st0" d="M300.74,168.22c-0.08,0.49-0.15,0.98-0.38,1.86c-0.1,0.64-0.04,0.89,0.01,1.15c-0.02,0.29-0.04,0.58-0.2,1.28
		c-0.11,0.56-0.07,0.71-0.03,0.86c-0.61,4.6-0.07,9.15,0.55,13.7c0.23,1.68,0.27,3.39,0.25,5.08c-0.01,1.49-0.44,2.87-2.21,3.78
		c-0.57,0.03-0.69,0.08-0.81,0.13c0,0-0.01,0.02-0.08-0.22c-0.52-0.33-0.97-0.42-1.42-0.51c0,0,0.01,0.03,0.12-0.19
		c-0.46-0.97-0.8-1.98-1.99-1.99c-2.97-4.41-7.04-7.6-11.57-10.23c-1.57-0.91-3.21-1.72-4.85-2.51c-1.87-0.9-3.81-1.54-5.92-1.63
		c-3.03-0.13-6.07-0.53-9.09-0.41c-3.85,0.15-7.47-0.49-11.36-2.27c-0.62-0.33-0.86-0.38-1.1-0.43c-0.37-0.11-0.74-0.23-1.15-0.75
		c0.35-1.28,0.74-2.15,1.13-3.02c1.19-1.84,2.99-2.86,5.01-3.37c1.39-0.35,2.36-1.1,3.31-2.09c1.51-1.59,3.12-3.08,4.72-4.58
		c3.91-3.69,7.31-7.81,10.66-12.01c3.34-4.19,6.9-8.2,10.29-12.35c6.97-8.56,11.81-18.09,13.46-29.14c0.42-2.84,0.17-5.57-0.25-8.76
		c0.03-0.59-0.03-0.74-0.12-0.87c-1.14-3.1-2.28-6.2-3.45-9.64c-0.03-0.34-0.15-0.58-0.15-0.58c-2.83-5.64-5.64-11.3-8.5-16.92
		c-2.21-4.33-4.49-8.63-6.76-13.28c-0.02-0.33-0.13-0.57-0.13-0.57c-1.17-2.39-2.35-4.78-3.54-7.51c-0.02-0.33-0.1-0.53-0.1-0.53
		c-0.45-1.11-0.9-2.23-1.38-3.74c-0.06-0.53-0.12-0.65-0.21-0.75c-0.42-1.1-0.84-2.21-1.26-3.68c0-0.37-0.09-0.63-0.09-0.63
		c-0.92-2.21-1.37-4.53-1.26-7.35c0.79-1.28,0.72-1.96-0.29-2.41c-0.12-0.58-0.35-1.15-0.35-1.73c-0.01-3.36,0.03-6.73,0.41-10.5
		c1.06-1.37,1.09-2.29,0.15-3.14c-0.29-3.2,0.5-6.07,2.79-8.4c0.59-0.6,1.28-1.15,2.03-1.53c1.52-0.78,2.91-0.05,3.33,1.63
		c0.67,2.72,1.33,5.43,2.01,8.15c1.69,6.76,5.12,12.67,9.47,17.99c6.35,7.74,13.21,15.04,20.34,22.08
		c3.82,3.77,7.66,7.51,10.85,11.86c3.02,4.11,4.94,8.66,5.79,13.68c0.89,5.22,1.04,10.43-0.04,15.63c-0.2,0.95-0.43,1.9-0.68,2.84
		c-1.87,6.98-4.81,13.55-7.97,20.02c-1.6,3.29-3.25,6.55-5.15,10.25c-3.18,6.29-5.65,12.34-7.89,18.49
		c-0.78,2.15-1.78,4.23-1.95,6.56c-0.12,0.27-0.24,0.55-0.57,1.14c-0.21,0.55-0.21,0.78-0.21,1.02c0,0-0.11,0.3-0.31,0.61
		c-0.23,0.77-0.25,1.23-0.27,1.69c0,0-0.09,0.3-0.34,0.59c-0.33,0.96-0.41,1.62-0.49,2.29c-0.05,0.51-0.09,1.01-0.35,1.88
		c-0.2,0.62-0.19,0.88-0.18,1.14c-0.04,0.31-0.07,0.62-0.23,1.27C300.69,167.39,300.71,167.8,300.74,168.22z"/>
	<path class="st0" d="M417.33,501.18c-5.52-4.1-8.48-9.72-10.89-15.61c-1.04-2.55-1.53-5.4-1.81-8.17
		c-1.2-11.61,2.61-21.32,11.43-29.03c3.57-3.12,7.18-6.2,10.68-9.41c1.15-1.05,2.11-2.36,2.99-3.67c2.8-4.15,5.35-8.44,7.48-12.98
		c1.29-2.75,2.62-5.51,4.78-7.75c0.38-0.39,0.45-1.07,0.7-1.6c0.58-1.27,1.74-1.86,2.96-1.33c0.75,0.33,1.51,0.84,2.02,1.47
		c1.06,1.33,2.12,2.71,2.89,4.21c1.45,2.81,2.85,5.68,4.01,8.62c2.63,6.69,5.19,13.4,7.61,20.17c2.22,6.21,3.63,12.63,4.67,19.14
		c0.63,3.96,1.35,7.9,1.93,11.86c0.34,2.29,0.47,4.6,0.74,6.9c0.62,5.32,0.97,10.66,1.03,16.02c0.04,3.53,0.39,7.06,0.34,10.59
		c-0.1,6.21-0.41,12.42-0.61,18.63c-0.2,5.84-0.76,11.65-1.45,17.45c-0.24,2.05-0.35,4.11-0.63,6.15c-0.13,0.95-0.39,1.91-0.78,2.78
		c-0.62,1.37-1.96,1.5-2.88,0.25c-0.56-0.76-1-1.68-1.24-2.59c-0.41-1.52-0.76-3.09-0.88-4.65c-0.31-4.06-1.58-7.88-2.81-11.69
		c-1.52-4.72-4.45-8.63-7.78-12.25c-5.76-6.27-12.54-11.16-20.12-15.01C426.79,507.21,421.83,504.82,417.33,501.18z"/>
	<path class="st0" d="M195.64,486.3c-0.44-1.48-2.16-2.39-1.9-4.3c0.35-0.07,0.75-0.3,1-0.19c2.35,1.04,4.59,2.25,6.43,4.1
		c3.32,3.33,7.21,5.82,11.58,7.54c2.27,0.89,4.61,1.57,6.92,2.34c0.46,0.15,0.96,0.23,1.4,0.44c6.59,3.14,13.45,5.71,19.68,9.65
		c5.18,3.28,10.12,6.79,14.57,11c0.15,0.15,0.43,0.16,0.87,0.3c0-0.5,0.06-0.95-0.01-1.37c-0.91-5.65-4.15-9.87-8.6-13.12
		c-4.84-3.53-10.12-6.3-15.76-8.41c-4.35-1.63-8.51-3.61-12.1-6.71c-1.98-1.71-3.16-4-4.91-5.85c-0.32-0.33-0.34-1.19-0.17-1.7
		c0.75-2.25,2.43-3.66,4.65-4.27c2.01-0.55,4.16-0.74,6.11,0.09c5.6,2.4,11.36,4.48,16.45,7.93c1.01,0.68,2.11,1.33,2.88,2.24
		c1.85,2.18,4.17,3.74,6.45,5.36c2.29,1.63,4.61,3.21,6.88,4.86c5.35,3.91,9.3,8.97,11.93,15.02c1.17,2.68,2.26,5.42,3.04,8.23
		c0.71,2.57,1.31,5.27,1.3,7.91c-0.01,4.17,0.97,8.22,1.04,12.36c0.04,2.07,0.29,4.13,0.32,6.2c0.05,3.79,0.06,7.57,0,11.36
		c-0.06,3.29-0.37,6.58-0.34,9.86c0.06,6.7,0.82,13.34,1.79,19.98c1.31,8.94,3.45,17.69,5.31,26.51c0.78,3.69,1.73,7.35,2.44,11.06
		c0.77,4.06,1.35,8.16,2,12.25c0.4,2.52,0.76,5.05,1.16,7.57c1.05,6.61,2.11,13.21,3.14,19.83c0.15,0.96,0.12,1.95,0.2,2.92
		c0.22,2.55,0.61,5.01,1.75,7.41c1.55,3.26,1.17,4.94-1.03,8.5c-0.92,0.15-1.36-0.49-1.56-1.17c-0.56-1.91-1.7-3.46-2.83-5.05
		c-1.12-1.59-2.04-3.32-3-5.02c-3.04-5.42-6.3-10.74-9.01-16.33c-2.01-4.15-3.54-8.57-4.82-13.01c-1.32-4.55-2.11-9.26-3.05-13.91
		c-0.29-1.43-0.37-2.9-0.48-4.36c-0.49-6.19-0.95-12.37-2.02-18.51c-1.15-6.59-1.7-13.29-2.67-19.92
		c-0.88-6.02-2.03-12.01-4.15-17.75c-1.1-2.99-2.68-5.76-4.52-8.33c-4.85-6.79-10.68-12.7-16.94-18.18c-2-1.75-4.4-3.04-6.67-4.47
		c-2.26-1.43-4.68-2.64-6.85-4.2c-5.14-3.71-10.24-7.5-15.23-11.42c-2.29-1.8-4.45-3.83-6.39-6.01
		c-5.47-6.14-10.12-12.84-13.43-20.41c-0.19-0.44-0.45-0.87-0.59-1.33c-0.22-0.69,0.21-1.38,0.94-1.74
		c1.26-0.63,2.35-0.39,3.36,0.54c1.25,1.16,2.48,2.35,3.78,3.46c1.95,1.66,3.94,3.26,6.28,5.17c3.72,2.98,7.55,4.83,11.57,6.31
		c5.49,2.02,10.93,4.16,15.76,7.55c1.5,1.05,2.95,2.21,4.56,3.04c3.45,1.78,5.97,4.59,8.51,7.38c1.96,2.16,3.89,4.36,5.93,6.44
		c4.53,4.61,9.22,9.06,13.09,14.27c0.12,0.15,0.42,0.17,0.83,0.32c0.29-1.22-0.04-2.35-0.26-3.49c-0.55-2.86-1.28-5.71-1.55-8.6
		c-0.17-1.83-0.81-3.28-1.9-4.61c-3.16-3.86-6.3-7.67-10.52-10.56c-5.22-3.59-10.38-7.24-16.08-10.04
		c-3.38-1.66-6.81-3.24-10.23-4.84c-1.43-0.67-2.86-1.35-4.33-1.92c-4.9-1.9-9.75-3.88-13.73-7.47c-0.36-0.32-0.82-0.52-1.3-1.01
		c-0.79-0.77-1.1-1.84-2.23-1.86c-0.02,0.01,0.01-0.02,0.03-0.25c-0.24-0.32-0.51-0.42-0.78-0.49c-0.01,0.02,0.03,0,0.04-0.22
		c-0.26-0.33-0.52-0.43-0.78-0.51c0,0.02,0.05,0.02,0.02-0.19c-0.27-0.33-0.52-0.45-0.76-0.53c0,0.03,0.06,0.03,0.07-0.22
		c-0.25-0.35-0.52-0.45-0.79-0.52c0,0.02,0.04,0.02,0.1-0.26c-0.15-0.68-0.45-0.75-0.83-0.48c0,0.02,0.05,0.03,0.24-0.14
		C196.62,487.58,196.13,486.94,195.64,486.3z"/>
	<path class="st0" d="M250.66,171.54c-0.39,1.2-0.78,2.07-1.19,3.16c-0.41-0.06-0.8-0.33-1.28-0.68c-1.04,1.16-2.05,2.37-3.15,3.49
		c-4.79,4.89-10.06,9.15-15.81,12.91c-3.54,2.32-7.16,4.54-10.32,7.5c-3,2.82-6.49,5.12-9.84,7.55c-2.46,1.79-5,3.47-7.58,5.1
		c-4.55,2.88-9.48,5-14.56,6.71c-6.01,2.02-11.19,5.28-15.86,9.47c-1.63,1.46-3.32,2.85-4.98,4.26c-1.7,1.44-3.54,2.17-5.79,0.85
		c-3.97,4.39-8.61,8.05-11.37,13.34c-0.11,0.22-0.26,0.41-0.39,0.62c-1.3,2.1-1.99,2.61-2.89,2.13c-1.6-0.86-2.55-3.04-1.96-4.67
		c0.29-0.79,0.76-1.52,1.2-2.25c2.16-3.58,5.04-6.55,7.95-9.51c1.11-1.13,2.2-2.27,3.66-3.69c1.2-1.1,2.06-1.9,2.86-2.76
		c0.29-0.31,0.44-0.76,0.63-1.15c-0.02,0-0.02,0.03,0.21,0.08c1.07-0.61,1.91-1.27,2.99-2.04c0.92-0.63,1.61-1.15,2.45-1.66
		c0.43-0.31,0.69-0.63,0.95-0.95c5.45-4.12,11.02-8.1,16.32-12.41c4.36-3.55,8.2-7.63,11.14-12.53c3.33-5.53,6.97-10.88,10.39-16.36
		c1.84-2.94,2.42-6.36,3.27-9.66c1.35-5.24,1.71-10.57,1.54-15.97c-0.21-6.83-0.43-13.66-0.43-20.5c0.01-7.69-0.04-15.4,0.52-23.06
		c0.39-5.31,0.51-10.68,1.62-15.95c0.58-2.73,0.73-5.54,1.01-8.33c0.45-4.51,1.61-8.87,2.79-13.23c1.15-4.23,2.34-8.45,3.4-12.71
		c0.76-3.06,1.32-6.18,2-9.26c0.15-0.7,0.33-1.43,0.69-2.03c0.2-0.33,0.84-0.6,1.23-0.53c0.36,0.06,0.86,0.56,0.93,0.93
		c0.3,1.66,0.45,3.35,0.7,5.02c0.14,0.96,0.28,1.93,0.54,2.87c0.6,2.23,1.3,4.44,1.91,6.67c1.29,4.73,3.15,9.23,5.35,13.59
		c0.77,1.52,1.66,2.99,2.62,4.4c2.05,3.01,3.14,6.23,3.07,9.94c-0.14,7.81,0.07,15.64-0.16,23.45c-0.18,6.21-1.19,12.34-2.52,18.42
		c-1.34,6.11-3.6,11.85-6.12,17.56c-2.38,5.37-4.74,10.71-7.99,15.61c-1.14,1.72-2.71,3.22-3.58,5.06
		c-0.87,1.83-0.99,4.01-1.65,5.96c-1.38,4.05-3.16,7.91-5.83,11.32c-2.03,2.59-3.91,5.3-6.24,8.19c-0.75,0.91-1.11,1.6-1.62,2.39
		c-0.15,0.28-0.14,0.44-0.13,0.61c0.26-0.07,0.52-0.14,0.97-0.25c0.45-0.29,0.71-0.53,0.96-0.78c3.91-2.49,7.84-4.94,11.71-7.5
		c2.36-1.56,4.36-3.48,5.77-6.02c2.13-3.84,4.43-7.58,6.57-11.41c2-3.58,2.62-7.55,2.9-11.58c0.08-1.09,0.07-2.2,0.05-3.3
		c-0.07-4.02,1.15-7.64,3.1-11.12c1.43-2.55,2.58-5.25,3.89-7.86c0.87-1.73,1.79-3.42,2.58-4.9c1.33-0.41,2.25-0.46,3.14,0.19
		c2.85,2.08,5.69,4.18,8.59,6.19c1.82,1.25,2.98,2.81,3.27,5.04c0.28,2.16,0.95,4.3,0.98,6.46c0.03,2.15-0.41,4.34-0.83,6.47
		c-0.74,3.85-1.88,7.58-3.75,11.05C250.96,170.02,250.85,170.64,250.66,171.54z"/>
	<path class="st0" d="M355.56,623.17c-2.81,8.06-6.58,15.24-12.02,21.51c-2.48,2.85-4.86,5.81-7.05,8.88
		c-4.06,5.68-8.85,10.71-13.56,15.83c-2.64,2.87-5.2,5.83-7.86,8.69c-2.4,2.59-4.79,5.18-8.03,6.86c-1.49,0.77-2.7,2.06-4.07,3.08
		c-1.15,0.86-1.81,0.85-2.97-0.01c-1.78-1.33-2.66-3.22-2.7-5.35c-0.02-0.85,0.56-1.89,1.18-2.56c5.78-6.26,9.82-13.65,13.62-21.15
		c2.25-4.46,3.73-9.27,4.77-14.18c0.86-4.05,1.73-8.11,2.25-12.21c0.59-4.58,0.93-9.2,1.14-13.82c0.38-8.52,0.86-17.04,1.85-25.51
		c0.55-4.73,0.43-9.47,0.8-14.2c0.28-3.51,0.44-7.03,0.69-10.54c0.24-3.4,0.54-6.79,0.77-10.18c0.21-3.19,0.82-6.3,1.82-9.32
		c2.03-6.13,3.94-12.31,6.57-18.22c0.94-2.11,2.12-4.12,3.3-6.11c3.37-5.66,6.78-11.31,11.54-15.97c3.39-3.33,6.67-6.78,10.61-9.51
		c1.18-0.82,2.26-1.91,3.08-3.09c1.15-1.65,2.51-2.96,4.21-3.99c0.72-0.43,1.33-1.05,2.02-1.56c0.28-0.21,0.62-0.51,0.93-0.5
		c0.57,0.01,1.23,0.09,1.66,0.4c0.24,0.17,0.27,0.98,0.08,1.33c-0.52,0.95-1.11,1.9-1.84,2.7c-2.48,2.68-5.08,5.26-7.56,7.95
		c-1.9,2.06-3.79,4.14-5.53,6.34c-3.24,4.1-4.85,8.95-6.27,13.9c-2.16,7.52-2.22,15.14-1.56,22.85c0.37,4.3,1.56,8.4,2.82,12.45
		c2.63,8.51,4.85,17.12,7.11,25.73c0.8,3.06,1.36,6.17,1.57,9.36c0.25,3.9,0.57,7.79,0.4,11.69c-0.17,3.89-0.31,7.81-1.42,11.58
		C357.23,618.55,356.4,620.71,355.56,623.17z"/>
	<path class="st0" d="M423.91,152.08c0.88,0.24,1.48,0.38,2.03,0.63c2,0.87,2.43,2.85,0.85,4.35c-1.59,1.5-3.35,2.83-4.99,4.29
		c-0.69,0.61-1.24,1.37-2.18,2.42c0.92,0.14,1.34,0.26,1.77,0.26c1.71,0.02,3.42-0.01,5.13,0.02c2.45,0.04,4.89-0.04,7.19-1.02
		c1.33-0.57,2.81-0.77,3.76,0.33c1.07,1.24,0.59,2.83-0.29,4.08c-1.55,2.18-3.15,4.33-4.87,6.38c-1.88,2.24-3.86,4.41-5.92,6.49
		c-2.36,2.38-4.16,5.11-5.33,8.23c-1.03,2.77-2.49,5.29-4.16,7.71c-2.91,4.21-5.78,8.45-8.79,12.59c-1.79,2.46-3.94,4.63-6.39,6.5
		c-1.39,1.06-2.87,1.79-4.56,2.22c-5.66,1.45-11.04,1.03-16.19-1.97c-5.05-2.94-10.17-5.79-15.34-8.51c-3.42-1.8-6.26-4.2-8.75-7.09
		c-0.31-0.36-0.64-0.75-0.81-1.18c-1.85-4.63-3.79-9.23-4-14.33c-0.14-3.45,0.06-6.8,1.6-9.97c0.26-0.54,0.4-1.15,0.58-1.73
		c1.54-5.09,4.2-9.56,7.52-13.67c2.46-3.04,5.08-5.91,8.18-8.31c3.81-2.95,7.97-5.1,12.68-6.25c4.15-1.01,8.34-1.68,12.6-2.03
		c2.55-0.21,5.1-0.5,7.63-0.88c3.53-0.53,7.04-0.76,10.48,0.43c1.29,0.44,2.41,0.05,3.54-0.38c1.12-0.42,2.19-1.07,3.63-0.51
		c0,0.95,0,1.88,0,2.83c-2.47,2.51-6.04,3.45-8.9,5.99c1.44,0.88,2.85,0.43,4.08,0.81c1.27,0.39,2.64,0.39,3.97,0.59
		C420.98,151.57,422.3,151.81,423.91,152.08z"/>
	<path class="st0" d="M133.12,530.37c0.17,0.3,0.34,0.61,0.3,1.29c-0.75,1.19-0.71,1.88,0.22,2.37c0.22,0.56,0.53,1.1,0.65,1.68
		c0.51,2.55,1.65,4.82,2.82,7.11c2.1,4.13,4.1,8.3,5.99,12.53c1.44,3.23,2.41,6.64,3.1,10.12c0.26,1.29,0.93,2.54-0.06,3.85
		c-0.21,0.28-0.06,0.94,0.09,1.37c0.32,0.92,0.73,1.8,1.12,2.69c5.08,11.69,11.59,22.56,19.06,32.84
		c5.68,7.83,12.43,14.72,19.69,21.1c1.56,1.37,3.13,2.72,4.6,4.18c0.85,0.85,1.51,1.91,2.24,2.88c1.4,1.86,0.79,3.72-0.17,5.48
		c-0.23,0.42-1.03,0.82-1.51,0.76c-0.94-0.13-1.88-0.51-2.75-0.93c-6.95-3.32-13.52-7.31-20.06-11.35
		c-7.68-4.74-15.4-9.43-23.08-14.17c-2.29-1.41-4.57-2.83-6.77-4.36c-5.11-3.55-10.21-7.12-15.24-10.78
		c-3.96-2.89-7.24-6.51-10.42-10.22c-5.29-6.18-9.15-13.22-12.65-20.48c-1.37-2.85-2.74-5.71-4.09-8.58
		c-2.2-4.68-3.21-9.71-4.37-14.69c-1-4.28-1.78-8.57-1.92-12.98c-0.12-4.06,0.12-8.02,1.95-11.75c0.64-1.31,1.03-2.74,1.64-4.07
		c0.29-0.65,0.72-1.32,1.26-1.75c1.45-1.16,3.35-0.92,4.54,0.54c0.45,0.56,0.74,1.25,1.09,1.89c1.23,2.25,2.41,4.52,3.68,6.75
		c0.72,1.26,1.56,2.44,2.42,3.76c0.72-0.14,1.33-0.17,1.87-0.38c1.94-0.76,3.33,0.12,4.49,1.51c0.86,1.02,1.59,2.15,2.27,3.09
		c1.88,0.14,3.68-0.08,5.2,0.48c1.41,0.51,2.52,1.85,3.83,2.88c1.44-0.57,2.53-1.48,3.51-2.59c0.81-0.91,1.58-1.88,3.36-2.15
		C132.06,530.34,132.59,530.36,133.12,530.37z"/>
	<path class="st0" d="M507.32,536.52c-3.16,8.63-6.13,17.02-9.28,25.34c-1.82,4.8-4.24,9.31-7.19,13.53c-3,4.3-5.96,8.63-9.1,12.83
		c-3.36,4.5-7.04,8.74-11.55,12.16c-1.15,0.87-2.47,1.58-3.79,2.18c-1.14,0.52-2.15,0.15-2.95-0.8c-1.49-1.78-1.6-3.84-0.83-5.86
		c0.9-2.39,1.94-4.74,3.16-6.98c3.94-7.21,6.94-14.76,8.62-22.8c0.42-2.02,0.54-4.11,0.82-6.16c0.8-5.78,1.66-11.55,2.42-17.33
		c0.72-5.43,1.15-10.89,1.24-16.38c0.11-6.22,0.49-12.43,0.64-18.64c0.07-2.92-0.14-5.85-0.23-8.77c-0.05-1.59-0.03-3.18-0.15-4.76
		c-0.48-6.31-0.98-12.62-1.51-18.93c-0.25-3.03-0.58-6.05-0.88-9.07c-0.05-0.48-0.1-0.98-0.25-1.43c-1.44-4.4-2.84-8.81-4.39-13.17
		c-0.69-1.94-1.68-3.76-2.5-5.57c0.36-0.68,0.63-1.22,0.89-1.72c0.76-0.25,1.45-0.48,2.15-0.7c1.48-0.48,2.9-0.26,4.23,0.5
		c2.54,1.44,4.98,2.99,7.29,4.82c5.34,4.23,9.65,9.27,13.2,15.04c1.72,2.8,3.6,5.51,5.43,8.24c3.51,5.25,5.47,11.13,6.85,17.21
		c0.78,3.43,1.64,6.86,1.61,10.45c-0.03,2.55,0.28,5.1,0.25,7.65c-0.03,2.43-0.28,4.85-0.47,7.28
		C510.5,521.97,509.35,529.17,507.32,536.52z"/>
	<path class="st0" d="M155.43,226.73c-3.56,2.11-7.13,4.2-10.69,6.33c-3.37,2.02-6.27,4.62-9.04,7.38c-0.41,0.41-0.8,0.98-0.9,1.53
		c-0.41,2.27-0.85,4.55-1.02,6.85c-0.17,2.31-0.07,4.64-0.03,6.96c0.13,7.38-1.21,14.55-3.2,21.62c-0.36,1.29-0.91,2.52-1.45,4.02
		c0.43,0.21,0.92,0.41,1.37,0.67c0.42,0.24,0.8,0.54,1.38,0.93c0.16,4.47-0.66,8.59-4.15,11.88c-3.55,3.35-7.06,6.73-10.51,10.17
		c-7.18,7.14-14.29,14.35-21.47,21.49c-1.38,1.37-2.89,2.62-4.42,3.84c-4.77,3.81-9.46,7.72-14.39,11.3
		c-3.04,2.21-6.46,3.91-9.74,5.77c-1.8,1.02-3.68,1.91-5.55,2.82c-1.29,0.63-2.62,1.2-4.1,1.87c-0.32-0.64-0.72-1.06-0.68-1.43
		c0.07-0.69,0.22-1.54,0.66-1.98c0.94-0.94,2.04-1.75,3.18-2.45c4.7-2.91,8.77-6.56,12.65-10.46c4.73-4.76,9.57-9.41,14.28-14.19
		c2.65-2.68,5.21-5.46,7.7-8.3c6.03-6.88,11.94-13.86,18-20.71c2.42-2.74,5.06-5.29,7.7-7.82c0.76-0.73,1.83-1.17,2.81-1.63
		c1.08-0.51,2.21-0.91,3.51-1.43c-0.85-2.21-1.03-4.29-0.7-6.5c0.26-1.77-0.1-3.63-0.2-5.45c-0.04-0.85-0.14-1.7-0.14-2.55
		c-0.01-4.64-0.1-9.28,0.02-13.92c0.12-4.64,0.7-9.23,2.45-13.6c1.19-2.98,2.92-5.56,5.12-7.94c3.44-3.71,7.62-6.46,11.59-9.5
		c3.98-3.05,7.78-6.29,11.26-9.92c2.36-2.47,4.94-4.72,7.38-7.11c1.48-1.45,2.87-3,4.32-4.48c1.28-1.31,2.49-2.71,3.92-3.84
		c2.34-1.85,4.14-4.12,5.76-6.57c2.09-3.15,4.08-6.37,6.21-9.49c2.41-3.52,4.98-6.94,7.41-10.44c1.74-2.5,3.37-5.08,5.05-7.62
		c0.67-1.01,1.34-2.02,2.15-3.25c-0.11-0.87-0.06-2.02-0.43-3.01c-1.18-3.17-1.24-6.45-1.25-9.75c-0.01-1.22-0.04-2.44,0.01-3.66
		c0.07-1.65-0.34-3.1-1.3-4.47c-0.77-1.09-1.47-2.28-1.91-3.53c-1.04-2.96-2.87-5.35-4.96-7.61c-3.94-4.27-6.9-9.15-8.65-14.7
		c-0.47-1.49-0.73-3.07-0.94-4.62c-0.15-1.08,0-2.2-0.05-3.29c-0.26-5.21,1.55-9.8,4.19-14.15c0.88-1.46,1.85-2.87,2.74-4.33
		c2.23-3.65,4.52-7.22,7.5-10.34c1.76-1.84,3.19-4,4.87-5.93c0.7-0.8,1.58-1.5,2.51-2.02c0.91-0.51,1.99,0.25,2.14,1.29
		c0.18,1.27-0.12,2.44-0.81,3.49c-1.3,1.97-1.91,4.15-2.35,6.46c-0.32,1.65-1.14,3.2-1.74,4.79c-0.56,1.48-1.34,2.91-1.64,4.44
		c-0.63,3.14-1.82,6.06-3.02,9c-1.3,3.19-2.18,6.51-1.49,9.97c0.4,2.02,0.98,4.03,1.8,5.92c1.25,2.9,2.69,5.73,4.21,8.51
		c2.89,5.27,5.5,10.61,6.06,16.72c0.05,0.6,0.16,1.25,0.47,1.75c2.21,3.62,1.56,7.53,1.2,11.4c-0.11,1.2-0.52,2.38-0.88,3.55
		c-0.53,1.77-0.76,3.43-0.31,5.35c0.57,2.4-0.18,4.85-1.08,7.14c-2.11,5.36-4.69,10.45-8.37,14.94c-4.4,5.38-8.64,10.9-13.76,15.66
		c-1.42,1.32-2.76,2.76-4,4.25c-1.16,1.4-2.16,2.94-3.19,4.44c-0.96,1.4-1.87,2.84-3.09,4.52c-0.52,0.39-0.63,0.59-0.61,0.86
		c0,0-0.09,0.06-0.27,0.11c-0.4,0.16-0.49,0.33-0.46,0.57c0,0-0.13,0.07-0.31,0.15c-0.39,0.19-0.46,0.36-0.42,0.59
		c0,0-0.13,0.07-0.32,0.17c-0.4,0.23-0.47,0.42-0.41,0.66c0,0-0.06,0.06-0.26,0.11c-0.43,0.18-0.52,0.37-0.48,0.63
		c0,0-0.06,0.05-0.26,0.1c-0.43,0.18-0.52,0.37-0.48,0.63c0,0-0.06,0.05-0.25,0.09c-0.41,0.13-0.52,0.31-0.49,0.56
		c0,0-0.12,0.07-0.38,0.2c-1.04,1.05-1.82,1.96-2.63,2.89c-0.02,0.01-0.05,0.06-0.21,0.06c-0.38,0.11-0.48,0.28-0.5,0.54
		c-0.03,0.02-0.07,0.09-0.31,0.17c-1.03,0.83-1.85,1.55-2.59,2.34c-0.11,0.11,0.12,0.54,0.19,0.82c0,0,0-0.03-0.17-0.26
		C158.23,224.55,156.83,225.64,155.43,226.73z"/>
	<path class="st0" d="M58.08,455.62c1.32-1.41,2.64-2.82,4.06-4.34c1.09,0,2.32-0.1,3.51,0.02c1.73,0.19,2.59,1.32,2.35,3.03
		c-0.13,0.95-0.47,1.87-0.69,2.73c2.43,4.78,4.87,9.41,7.16,14.11c1.87,3.83,3.72,7.68,5.28,11.65c2.15,5.47,3.14,11.22,3.69,17.07
		c0.57,6.07,0.96,12.14,0.88,18.25c-0.07,5.13-0.14,10.26,0.02,15.39c0.14,4.5,0.39,9.01,0.97,13.47c0.4,3.12,1.42,6.16,2.2,9.22
		c0.99,3.89,1.93,7.79,3.15,11.63c1.85,5.86,4.59,11.28,7.33,16.73c0.88,1.74,1.82,3.46,2.65,5.22c0.77,1.65,0.63,3.32-0.15,4.94
		c-0.68,1.4-2.2,1.63-3.3,0.5c-0.25-0.26-0.44-0.59-0.66-0.87c-2.81-3.53-5.63-7.05-8.42-10.6c-6.11-7.77-12.18-15.57-17.18-24.12
		c-2.46-4.21-4.68-8.56-6.87-12.92c-0.81-1.62-1.32-3.41-1.81-5.17c-2.01-7.28-4.02-14.56-5.89-21.87
		c-0.81-3.18-1.38-6.43-1.86-9.67c-0.92-6.26-1.3-12.58-2.09-18.85c-0.65-5.17-0.47-10.47,0.19-15.7c0.05-0.36,0.13-0.73,0.11-1.09
		c-0.16-3.2,0.46-6.3,1.38-9.88c0.93-2.12,1.56-3.78,2.27-5.41C56.88,457.9,57.5,456.77,58.08,455.62z"/>
	<path class="st0" d="M195.94,535.45c3.96,3.78,6.51,8.19,8.67,12.87c0.41,0.88,1.01,1.67,1.46,2.53c0.62,1.19,1.33,2.35,1.73,3.61
		c1.61,5.11,3.11,10.26,4.65,15.39c2.18,7.25,3.33,14.72,4.48,22.17c0.72,4.68,1,9.43,1.63,14.13c0.82,6.05,1.14,12.12,1.24,18.21
		c0.06,3.31,0.45,6.54,1.46,9.72c1.4,4.41,2.7,8.86,4.65,13.07c1.17,2.53,1.58,5.36,3.32,7.69c0.95,1.27,0.3,3.76-0.99,5.04
		c-0.48,0.47-1.13,0.51-1.68,0.14c-0.5-0.34-0.92-0.79-1.35-1.21c-3.41-3.31-6.82-6.63-10.23-9.95c-3.32-3.23-6.63-6.46-9.96-9.68
		c-0.96-0.93-2.04-1.73-2.99-2.67c-3.31-3.27-6.23-6.84-8.77-10.75c-2.95-4.56-5.11-9.41-6.31-14.69c-0.43-1.9-0.74-3.83-0.98-5.76
		c-0.6-4.83-1.14-9.67-1.65-14.52c-0.11-1.08-0.07-2.19,0.05-3.26c0.72-6.42,2.17-12.7,3.7-18.97c1.51-6.21,1.79-12.51,0.52-18.82
		c-0.38-1.9-0.92-3.77-1.25-5.68c-0.59-3.47-1.06-6.97-1.61-10.45c-0.27-1.69-0.74-3.28-1.78-4.74c-1.27-1.79-0.49-3.59,1.6-4.19
		c2.31-0.66,3.58-0.12,4.82,2.06c0.24,0.42,0.55,0.83,0.68,1.29C191.88,530.93,193.57,533.25,195.94,535.45z"/>
	<path class="st0" d="M118.23,158.14c0.69,0.45,1.43,0.85,2.07,1.37c5.53,4.6,11.24,9.02,15.78,14.67c1.61,2,3.27,3.97,4.65,6.12
		c2.51,3.89,4.95,7.84,7.2,11.89c2.1,3.78,3.1,7.92,3.05,12.28c-0.04,3.4-1.28,6.21-4.24,8.04c-2.59,1.6-5.26,3.07-7.92,4.56
		c-4.04,2.28-8.08,4.55-12.15,6.77c-1.28,0.7-2.65,1.24-3.96,1.87c-0.75,0.36-1.57,0.66-2.2,1.18c-1.11,0.91-2.23,0.94-3.4,0.29
		c-5.16-2.84-10.72-4.67-16.29-6.46c-2.3-0.74-4.21-1.91-5.31-4.16c-0.42-0.85-0.13-1.71,0.74-2.12c1.14-0.53,2.26-0.78,3.51-0.19
		c2.2,1.03,4.45,1.95,6.68,2.92c1.66,0.71,3.39,1.14,5.43,1.78c-0.77-2.45-2.8-4.03-1.96-6.69c0.64-0.03,1.37-0.24,1.99-0.07
		c1.69,0.45,3.09,1.39,4.13,2.85c1.06,1.49,2.2,2.91,3.82,3.89c1.8-0.38,2.8-1.63,3.48-3.06c1.89-3.96,3.69-7.89,3.57-12.51
		c-0.07-2.66,0.16-5.32-0.04-8c-0.47-6.3-2.09-12.22-5.28-17.69c-1.11-1.9-2.12-3.85-3.19-5.76c-1.44-2.56-3.49-4.37-6.42-5.07
		c-2.01-0.48-3.85-1.53-5.99-1.56c-3.66-0.06-6.91,1.29-10.1,2.84c-0.66,0.32-1.26,0.75-1.89,1.13c-3.41,2.06-5.54,5.03-6.57,8.88
		c-0.56,2.11-1.38,4.16-2.11,6.22c-0.16,0.45-0.41,0.9-0.73,1.24c-0.53,0.56-1.24,0.89-1.96,0.39c-0.69-0.47-1.36-1.02-1.92-1.64
		c-3.61-3.96-3.84-8.61-2.23-13.36c1.95-5.77,5.21-10.72,10.27-14.33c4.38-3.13,8.8-6.18,14.02-7.77c3.02-0.92,6.1-1.66,9.16-2.44
		c0.7-0.18,1.47-0.28,2.17-0.18c6.01,0.9,12.12,1.43,17.49,4.73c0.93,0.57,1.96,0.99,2.97,1.42c7.94,3.4,13.75,9.25,18.15,16.45
		c1.68,2.75,2.57,6.05,3.45,9.2c0.99,3.52,1.33,7.17,1.21,10.86c-0.09,2.93,0.07,5.86,0.08,8.79c0,1.34-0.04,2.69-0.16,4.02
		c-0.12,1.29-0.82,2.15-1.6,2.14c-0.76-0.01-1.51-0.77-1.76-2.06c-0.52-2.62-0.94-5.26-1.4-7.9c-0.64-3.72-1.07-7.49-1.96-11.15
		c-1.19-4.91-3.23-9.46-7.18-12.88c-1.38-1.2-2.76-2.4-4.1-3.65c-1.89-1.78-4.04-3.08-6.48-4.02c-2.5-0.96-4.85-2.32-7.38-3.18
		c-2.16-0.74-4.48-1.02-6.75-1.24c0.06,0.13,0.14-0.01,0.22-0.15c-0.13,0.09-0.27,0.17-0.4,0.26
		C118.4,157.98,118.32,158.06,118.23,158.14z"/>
	<path class="st0" d="M269.22,115.11c-0.85-3.64-1.62-6.96-2.4-10.28c-1.57-6.62-4.39-12.68-8.69-17.95
		c-2.49-3.07-4.35-6.48-6.25-9.88c-2.32-4.14-4.49-8.37-6.69-12.58c-0.79-1.51-1.54-3.05-2.18-4.63c-1.1-2.73-1.69-5.53-1.67-8.55
		c0.03-5.01,0.3-9.94,1.4-14.88c1.24-5.6,2.81-11.09,4.52-16.56c0.53-1.71,1.49-2.38,3.22-2.44c1.09-0.04,1.95,0.61,1.98,1.66
		c0.04,1.34,0.11,2.71-0.14,4.01c-0.42,2.21-0.33,4.37,0.07,6.54c0.48,2.63,1.01,5.25,1.55,7.86c0.99,4.79,3.37,8.89,6.5,12.55
		c3.64,4.27,7.46,8.39,11.14,12.63c4.73,5.45,9.03,11.24,12.91,17.3c3.32,5.18,5.39,10.91,6.02,17.09c0.21,2.05,0.45,4.09,0.73,6.13
		c0.86,6.3-0.94,12.07-3.44,17.71c-2.34,5.28-5.29,10.17-9.15,14.49c-0.81,0.91-1.48,1.95-2.3,2.85c-0.98,1.08-2.03,2.11-3.11,3.08
		c-0.9,0.81-1.92,0.96-3.01,0.22c-0.8-0.54-1.66-0.99-2.61-1.54c-0.14-0.75-0.2-1.61-0.46-2.41c-0.45-1.39-0.28-2.6,0.62-3.78
		c1.33-1.74,1.28-3.9,1.54-5.92C269.85,123.71,269.81,119.56,269.22,115.11z"/>
	<path class="st0" d="M52.86,464.36c-3.85,7.38-6.67,15.16-8.59,23.24c-1.01,4.24-1.8,8.54-1.93,12.97
		c-0.13,4.51-0.33,9.01,0.08,13.51c0.08,0.84,0.13,1.71,0.36,2.52c1.03,3.55,1.12,7.22,1.29,10.86c0.1,2.15-0.48,4.34-2.63,5.55
		c-1.29-0.28-2.02-1.02-2.49-2.09c-1.28-2.9-2.6-5.77-3.85-8.68c-2.21-5.16-3.64-10.57-5.19-15.95c-1.49-5.18-2.53-10.39-2.84-15.78
		c-0.24-4.11-0.91-8.2-1.35-12.3c-0.85-7.94-0.59-15.84,1.81-23.49c1.23-3.93,2.93-7.76,4.77-11.45c1.73-3.47,3.78-6.79,5.95-10.05
		c3.54-5.31,8.29-8.44,14.51-9.49c0.36-0.06,0.72-0.14,1.32-0.26c1.04-1.19,1.82-3.46,4.45-2.2c0.1,0.83,0.2,1.65,0.29,2.46
		c0.16,0.21,0.26,0.47,0.45,0.58c2.18,1.22,3.01,3.08,2.65,5.52c-0.07,0.48,0.02,1-0.13,1.45c-0.68,2.07,0,3.89,1.13,5.51
		c1.36,1.94,1.32,3.84,0.35,5.83c-1.45,2.95-2.94,5.88-4.4,8.83c-0.59,1.2-1.16,2.41-2.02,4C55.31,458.64,53.47,461.23,52.86,464.36
		z"/>
	<path class="st0" d="M162.44,591.74c-1.98-3.82-3.76-7.43-5.73-10.93c-5.57-9.85-7.27-20.37-5.25-31.43
		c1.16-6.34,4.06-12.02,7.96-17.1c3.7-4.83,10.69-4.87,14.7-0.31c0.56,0.64,1.09,1.31,1.66,1.95c1.29,1.43,1.97,3.06,1.77,5.01
		c-0.14,1.36,0.27,2.61,0.7,3.91c2.09,6.23,2.48,12.65,1.9,19.14c-0.53,5.94-1.27,11.85-2.47,17.71c-0.31,1.53-0.23,3.16-0.23,4.74
		c0.01,5-0.16,10.02,0.19,15c0.26,3.63,1.4,7.18,2.89,10.53c1.07,2.41,0.57,4.51-0.85,6.53c-0.26,0.37-0.72,0.61-1.04,0.87
		c-1.33-0.17-2.03-1.01-2.66-1.92C170.83,608.01,166.09,600.35,162.44,591.74z"/>
	<path class="st0" d="M381.11,238.9c-3.13-0.78-5.99-1.38-8.81-2.14c-1.64-0.44-3.28-1.02-4.81-1.75
		c-4.51-2.17-9.06-4.28-13.41-6.73c-5.66-3.18-10.97-6.97-14.87-12.24c-3.4-4.61-6.33-9.57-7.17-15.42c-0.19-1.32-0.26-2.67-0.27-4
		c-0.07-7.13,1.98-13.73,5.45-19.87c1.06-1.87,2.7-3.44,4.24-4.99c1.04-1.04,1.44-0.91,3.25-0.03c-0.03,0.34,0.05,0.74-0.1,1.04
		c-1.58,3.25-1.98,6.76-2.4,10.27c-0.03,0.24-0.14,0.49-0.11,0.72c0.91,6.37,1.11,12.91,4.69,18.62c1.78,2.83,4.12,5.12,6.6,7.31
		c3.6,3.17,7.74,5.52,11.88,7.89c0.85,0.48,1.79,0.84,2.55,1.43c4.05,3.09,8.8,4.68,13.47,6.46c3.07,1.17,6.1,2.46,9.07,3.86
		c5.08,2.39,10.38,4.23,15.55,6.4c2.35,0.99,4.53,2.37,6.75,3.64c1.67,0.96,2.54,2.6,3.25,4.31c0.35,0.85-0.05,1.7-0.95,2.1
		c-2.08,0.92-4.2,1.34-6.34,0.23c-2.66-1.38-5.53-1.84-8.45-2.23c-1.8-0.24-3.6-0.65-5.36-1.12
		C390.33,241.47,385.87,240.23,381.11,238.9z"/>
	<path class="st0" d="M129.16,337.53c2.74-2.63,5.25-5.13,7.88-7.49c3.73-3.35,7.27-6.84,10.41-10.77
		c3.04-3.81,6.38-7.38,9.46-11.16c2.39-2.94,4.43-6.11,6.04-9.57c2.54-5.46,5.87-10.41,10.02-14.79c2.94-3.1,5.85-6.21,8.82-9.28
		c0.84-0.87,1.8-1.65,2.77-2.37c7.67-5.65,15.69-10.77,23.92-15.56c5.57-3.24,9.9-7.47,12.45-13.43c0.23-0.55,0.52-1.13,0.95-1.52
		c0.31-0.28,0.93-0.45,1.32-0.34c0.35,0.1,0.83,0.69,0.8,1.01c-0.19,1.93-0.16,3.98-0.86,5.73c-2.42,6.07-5.73,11.55-11.09,15.61
		c-4.77,3.61-9.43,7.37-14.09,11.1c-5.26,4.21-10.08,8.84-14.02,14.36c-2.55,3.57-5.39,6.95-7.85,10.58
		c-1.98,2.92-3.63,6.06-5.35,9.15c-2.65,4.77-6.38,8.6-10.4,12.2c-3,2.69-6.15,5.21-9.04,8.02c-3.02,2.94-6.61,5-10.13,7.2
		c-0.72,0.45-1.46,0.89-2.22,1.29c-4.76,2.5-8.54,6.08-11.55,10.49c-1.2,1.76-2.68,3.16-4.6,4.07c-0.39,0.18-0.9,0.11-1.55,0.18
		c-0.19-2.55,0.6-4.67,1.72-6.69C124.6,342.66,126.84,340.23,129.16,337.53z"/>
	<path class="st0" d="M165.99,152.75c-1.19-4.54-3.05-8.53-4.87-12.49c-2.03-4.41-2.51-8.78-1.35-13.51
		c1.34-5.43,2.38-10.93,3.52-16.41c0.22-1.07,0.27-2.17,0.43-3.25c0.11-0.72,0.19-1.45,0.42-2.14c0.31-0.92,1.42-1.14,2.05-0.46
		c0.66,0.72,1.24,1.45,1.35,2.52c0.3,2.89,1.37,5.63,1.3,8.63c-0.04,2.02,1.06,4.02,2.56,5.53c3.26,3.29,6.53,6.59,10.55,9.01
		c0.72,0.43,1.47,0.95,1.99,1.59c2.63,3.26,4.7,6.73,5.12,11.09c1.08,11.1-2.51,20.63-9.38,29.15c-2.3,2.85-4.59,5.71-6.82,8.61
		c-1.71,2.23-3.27,4.57-4.12,7.29c-0.21,0.66-0.68,1-1.34,1.03c-0.85,0.04-1.42-0.43-1.61-1.21c-0.2-0.81-0.42-1.67-0.32-2.47
		c0.17-1.44,0.64-2.85,0.88-4.29c0.81-4.92,1.65-9.84,2.31-14.78c0.32-2.42,0-4.87-0.76-7.23
		C167.27,157.01,166.66,155.02,165.99,152.75z"/>
	<path class="st0" d="M133.23,530.07c-0.64,0.29-1.17,0.28-1.96,0.2c0.01-0.3,0.28-0.54,0.57-0.8c-1.99-3.07-3.95-6.08-5.93-9.13
		c-0.65,0.03-0.53,0.6-0.53,1.03c-0.03,2.07,0.01,4.14-0.05,6.21c-0.01,0.54-0.27,1.07-0.53,2.06c-1.77-2.22-2.09-4.5-2.8-6.59
		c-0.69-2.04-1.29-4.11-2.34-6.13c-0.03,1.74-0.05,3.48-0.1,5.22c-0.03,0.85-0.07,1.7-0.19,2.53c-0.08,0.57-1.06,0.83-1.47,0.36
		c-0.39-0.45-0.64-1.02-1.03-2.07c-0.46-1.6-0.84-2.67-1.24-4.04c-0.08-4.06-0.25-7.82-0.17-11.58c0.07-3.43-0.3-6.78-1.25-10.06
		c-0.1-0.35-0.53-0.61-0.97-1.09c-0.16,3.48-0.34,6.63-0.42,9.78c-0.03,1.21,0.1,2.43,0.27,3.62c0.46,3.24,0.99,6.47,1.43,9.94
		c0.26,1.3,0.58,2.35,0.9,3.41c0.39,1.27,0.83,2.53,1.15,3.81c0.13,0.53,0.13,1.21-0.1,1.68c-0.23,0.46-1.35,0.18-1.86-0.56
		c-0.75-1.1-1.56-2.22-2.02-3.45c-1.12-2.96-2.12-5.97-3.05-8.99c-0.61-1.98-1-4.02-1.55-6.02c-0.15-0.53-0.07-1.25-1.04-1.56
		c-1.55,1.55-1.43,4.21-3.07,5.66c-1.26-0.27-1.51-1.16-1.7-1.95c-1.08-4.4-1.84-8.82-0.54-13.34c0.81-2.8,1.4-5.66,2.24-8.45
		c1.95-6.56,2.04-13.17,0.9-19.87c-0.35-2.03-0.45-4.11-0.56-6.17c-0.02-0.36,0.4-0.92,0.76-1.07c0.66-0.29,1.15,0.18,1.41,0.78
		c0.19,0.44,0.28,0.93,0.38,1.41c1.04,4.75,2.14,9.48,3.06,14.25c0.32,1.65,0.15,3.4,0.22,5.68c-1.22,3.32-1.33,6.2-1.16,9.9
		c1.1-2.42,1.88-4.14,2.65-5.86c-0.11-1.37-1.35-2.52-0.61-3.89c1.98,1.84,3.05,4.27,4.24,6.61c0.76,1.5,1.36,3.09,2.1,5.15
		c0.38,1.6,0.53,2.76,1.75,4.27c-0.22-1.9,0.57-3.17-0.52-4.34c-0.17-2.79-0.41-5.59,0.3-8.35c0.03-0.12,0.01-0.24,0.02-0.36
		c0.05-0.68,0.35-1.27,1.07-1.16c0.3,0.05,0.67,0.67,0.73,1.08c0.29,1.86,0.48,3.73,0.93,5.6c0.75-2.45,0.36-5.1,1.65-7.48
		c1.05-0.56,2.17-0.8,3.65-0.45c0.33,3.6,0.73,7.2,2.07,10.61c1.28,3.28,2.47,6.6,4.62,10.01c1,1.8,1.78,3.17,2.64,4.48
		c0.22,0.33,0.71,0.47,1.08,0.68c0-0.02-0.03,0-0.14,0.23c0.21,0.57,0.53,0.91,0.86,1.23c0.01-0.01-0.02-0.01-0.03,0.25
		c0.25,0.34,0.52,0.42,0.78,0.48c0-0.02-0.04-0.02-0.21,0.2c0.2,1.24,0.55,2.28,1.67,2.74c0-0.02-0.04-0.02-0.03,0.22
		c0.26,0.34,0.51,0.44,0.77,0.51c0-0.02-0.04-0.02-0.13,0.23c0.57,1.42,1.12,2.66,2.31,3.43c0.01-0.01-0.01,0.01-0.07,0.23
		c0.38,0.81,0.82,1.4,1.38,2.21c0.38,0.33,0.64,0.43,0.9,0.5c0.01-0.03-0.05-0.02-0.05-0.02c-0.04,0.34-0.22,0.74-0.1,0.99
		c2.14,4.42,1.56,8.98,0.95,13.42c-1.02,0.71-1.64,0.32-2.04-0.34c-1.77-2.91-3.81-5.65-5.14-8.84c-1.13-2.69-2.63-5.21-3.89-7.85
		c-2.41-5.06-4.77-10.14-7.19-15.74c-0.65-2.07-0.67-3.88-2.24-5.48c-0.03,2.19,0.13,3.9,0.96,5.5c0.44,3.99,1.7,7.72,3.29,11.4
		c1.42,3.3,2.46,6.77,3.62,10.18C133.8,527.88,133.92,528.86,133.23,530.07z"/>
	<path class="st0" d="M340.56,322.26c1.27-3.6,2.47-6.92,3.68-10.23c0.42-1.14,0.78-2.32,1.31-3.41c2.37-4.89,3.39-10.08,4.06-15.45
		c0.67-5.39,0.23-10.7-0.26-16.02c-0.18-1.96-0.17-4.18-1.82-5.78c-0.16-0.16-0.38-0.48-0.31-0.62c0.89-1.95-0.96-3.38-0.94-5.15
		c0-0.54,0.79-1.17,1.32-0.93c0.86,0.39,1.81,0.79,2.45,1.45c3.61,3.73,6.42,7.99,7.75,13.07c2.17,8.28,3.64,16.66,3.21,25.26
		c-0.12,2.42-0.54,4.83-0.9,7.23c-1.42,9.28-4.63,17.92-9.81,25.74c-1.59,2.41-3.64,4.65-5.89,6.45c-3.65,2.93-6.59,6.47-9.66,9.93
		c-2.17,2.46-4.47,4.81-6.73,7.18c-0.32,0.34-0.78,0.57-1.2,0.8c-0.55,0.3-1.37,0-1.49-0.58c-0.16-0.82-0.35-1.69-0.26-2.5
		c0.11-0.95,0.39-1.92,0.8-2.8c1.27-2.77,2.42-5.61,3.99-8.2c3.57-5.88,6.07-12.2,8.36-18.63
		C338.99,326.9,339.74,324.72,340.56,322.26z"/>
	<path class="st0" d="M253.56,93.01c2.42,5.48,4.71,10.71,6.59,16.14c1.7,4.91,2.53,9.93,2.59,15.05c0.05,4.62-0.28,9.25-0.55,13.86
		c-0.08,1.31-0.55,2.6-0.79,3.91c-0.43,2.37-1.79,3.94-4.22,4.83c-1.24-0.81-1.6-2.13-1.8-3.61c-0.35-2.53-0.91-5.02-1.21-7.55
		c-0.19-1.63-0.92-3.02-1.58-4.44c-1.08-2.32-2.21-4.62-3.37-6.9c-2.4-4.71-3.78-9.71-4.65-14.92c-0.89-5.32-1.06-10.67-1.07-16.02
		c-0.01-6.06-0.9-11.87-3.69-17.32c-0.17-0.32-0.3-0.66-0.41-1.01c-0.19-0.6,0.25-1.24,0.89-1.33c0.87-0.12,1.71-0.13,2.39,0.57
		c0.34,0.35,0.76,0.64,1.03,1.04c1.91,2.8,4.26,5.28,5.53,8.55C250.4,86.91,252,89.8,253.56,93.01z"/>
	<path class="st0" d="M246.86,464.13c0.48-1.8,1.51-2.8,2.8-3.59c2.01-1.22,4.15-2.05,6.52-2.16c5.38-0.25,10.73-0.24,15.9,1.68
		c1.01,0.37,2.14,0.41,3.2,0.65c0.95,0.21,1.53,0.89,1.32,1.87c-0.28,1.29-0.6,2.65-1.28,3.74c-5.25,8.41-6.1,17.56-4.75,27.1
		c0.25,1.77,0.1,3.39-0.72,4.95c-0.64,1.22-2.15,1.39-3.03,0.29c-0.69-0.85-1.24-1.8-1.86-2.7c-2.63-3.81-5.28-7.6-7.88-11.44
		c-2.13-3.15-4.58-6.01-7.47-8.48C245.73,472.73,244.48,468.28,246.86,464.13z"/>
	<path class="st0" d="M156.72,142.18c1.29,2.37,2.48,4.51,3.52,6.71c0.57,1.2,1.05,2.5,1.26,3.81c0.65,4.08,1.57,8.14,1.48,12.32
		c-0.05,2.44,0.11,4.89,0.01,7.33c-0.34,7.94,0.46,15.81,1.38,23.67c0.17,1.48,0.15,2.91-0.44,4.32c-0.51,1.2-1.65,1.54-2.62,0.66
		c-1.2-1.09-2.03-2.34-2.03-4.11c-0.01-3.54-0.08-7.08-0.3-10.61c-0.36-5.71-1.1-11.37-2.68-16.91c-0.97-3.4-1.53-6.91-2.41-10.33
		c-0.7-2.7-1.58-5.36-2.43-8.02c-1.01-3.19-3.2-5.51-5.97-7.15c-4.3-2.55-8.74-4.86-13.15-7.23c-1.73-0.93-3.57-1.53-5.55-1.75
		c-3.02-0.33-6.03-0.81-9.04-1.22c-0.24-0.03-0.5,0-0.73-0.07c-0.78-0.24-1.19-0.83-1.33-1.6c-0.12-0.66,0.42-1.44,1.16-1.65
		c0.46-0.13,0.95-0.21,1.43-0.24c5.64-0.34,11.2-0.22,16.6,1.84c2.26,0.86,4.68,1.37,7.07,1.83c3.4,0.65,6.52,2,9.62,3.44
		C153.77,138.24,155.07,140.2,156.72,142.18z"/>
	<path class="st0" d="M254.5,443c4.39-5.79,10.1-8.18,16.99-8.11c1.65,0.02,3.14,0.45,4.45,1.39c3.94,2.83,6.33,6.68,7.26,11.42
		c0.26,1.35-0.07,2.61-0.91,3.79c-1.29,1.81-3.05,3.11-4.71,4.5c-0.88,0.73-2.02,0.83-3.1,0.26c-0.43-0.23-0.84-0.5-1.23-0.78
		c-2.06-1.46-4.37-2.02-6.88-1.97c-2.93,0.06-5.86-0.03-8.78,0.03c-2.09,0.04-4.13-0.1-6.26-0.8c-1.22-1.59-1.01-3.39-0.12-5.05
		C252.08,446.1,253.27,444.68,254.5,443z"/>
	<path class="st0" d="M92.73,338.54c2.66-1.97,5.12-3.77,7.59-5.56c5.92-4.3,11.77-8.71,17.8-12.85c3.41-2.34,7.11-4.26,10.7-6.32
		c0.62-0.36,1.34-0.61,2.05-0.76c0.39-0.08,0.84,0.19,1.5,0.36c-0.62,1.71-1.53,2.98-2.45,4.23c-1.37,1.87-2.81,3.69-4.2,5.55
		c-2.96,3.98-6.82,6.95-10.95,9.59c-5.44,3.48-10.88,6.98-16.36,10.39c-4.35,2.7-8.77,5.3-13.52,7.25c-0.9,0.37-1.83,0.68-2.77,0.96
		c-1.32,0.39-2.38-0.07-3.22-1.13c-1.06-1.35-0.9-2.32,0.73-3.19C84.16,344.62,88.35,341.67,92.73,338.54z"/>
	<path class="st0" d="M242.27,211.54c2.37-0.4,4.74-1.17,7.32,0.03c-0.03,0.5,0.08,1.13-0.12,1.63c-0.81,2.02-1.39,4.24-2.64,5.96
		c-1.95,2.68-2.72,5.63-3.11,8.78c-0.28,2.28-0.42,4.58-0.82,6.84c-0.79,4.4-2.68,8.31-5.8,11.55c-0.74,0.76-1.71,1.38-2.69,1.81
		c-3.12,1.36-5.95-0.39-6.22-3.79c-0.04-0.48,0.01-0.98,0.1-1.45c0.83-4.41,1.67-8.81,2.52-13.21c0.18-0.95,0.56-1.88,0.65-2.84
		c0.34-3.64,1.77-6.79,4.36-9.93C237.87,214.53,240.04,213.01,242.27,211.54z"/>
	<path class="st0" d="M149.7,372.97c-0.67,0.89-1.19,1.53-1.69,2.14c0.22,0.3,0.33,0.63,0.47,0.64c2.78,0.22,5.57,0.46,8.36,0.57
		c2.44,0.1,4.88,0.25,7.22,0.95c4.31,1.28,8.61,2.61,12.89,4c0.74,0.24,1.36,0.86,2.29,1.48c-0.62,0.47-0.94,0.83-1.34,0.98
		c-0.56,0.22-1.17,0.38-1.77,0.4c-4.86,0.16-9.73,0.41-14.59,0.38c-2.78-0.02-5.55-0.61-8.34-0.81c-5.11-0.36-10.21-0.49-15.27,0.67
		c-2.92,0.67-4.93-0.74-5.63-3.69c-0.19-0.78,0.09-1.48,0.75-1.92c1.11-0.74,2.25-1.46,3.43-2.09c6.18-3.29,10.9-8.1,14.63-13.94
		c0.33-0.51,0.55-1.12,0.98-1.53c0.41-0.39,0.99-0.69,1.55-0.83c1.27-0.31,2.23,0.6,1.93,1.84c-0.22,0.94-0.58,1.86-0.93,2.76
		C153.53,367.86,151.67,370.28,149.7,372.97z"/>
	<path class="st0" d="M144.68,456.32c1.05,0.05,2.09,0.1,3.34,0.32c-0.37,0.17-0.93,0.17-1.8,0.17c0.57,1.66,1.1,2.98,1.48,4.35
		c0.67,2.41,1.87,4.72,0.9,7.41c-0.29,0.8,0.29,1.88,0.38,2.84c0.24,2.54,0.45,5.08,0.64,7.62c0.29,3.95,1.26,7.63,3.69,10.88
		c2.33,3.12,4.5,6.36,6.73,9.55c0.42,0.6,0.8,1.22,1.32,2.31c1.65,3.36,3.16,6.25,4.74,9.1c0.26,0.47,0.83,0.78,1.24,1.15
		c-0.01-0.02-0.04-0.05-0.06,0.19c0.25,0.59,0.52,0.94,0.79,1.28c-0.01-0.01-0.03-0.04-0.03,0.21c0.26,0.34,0.53,0.43,0.78,0.52
		c-0.01-0.01-0.03-0.04-0.19,0.17c0.27,1.29,0.69,2.37,1.12,3.45c1.24,3.05,0.82,6.18,0.64,9.19c-0.81,0.58-1.37,0.39-1.75-0.14
		c-0.93-1.28-1.88-2.54-2.66-3.91c-4.6-8.03-9.15-16.1-13.73-24.15c-1.26-2.22-2.6-4.4-3.82-6.65c-1.72-3.16-2.62-6.53-2.5-10.16
		c0.14-4.02,0.18-8.04,0.34-12.05c0.03-0.81,0.46-1.59,0.57-2.41c0.08-0.55-0.09-1.14-0.14-1.7c-0.75,0-1.35,0-2.22,0
		c-1.22-1.8-2.51-3.7-3.99-6.04c-0.38-1.22-0.62-2.01-0.71-2.81c-0.02-0.21,0.41-0.52,0.7-0.68c0.16-0.09,0.55-0.04,0.64,0.09
		c0.48,0.66,0.9,1.36,1.36,2.31c0.16,0.46,0.28,0.68,0.46,0.83c0.17,0.15,0.39,0.23,0.59,0.34c0.12-0.27,0.31-0.54,0.35-0.83
		c0.03-0.21-0.14-0.44-0.23-0.93C143.67,457.15,143.75,456.44,144.68,456.32z M144.2,460.83c-0.07,0.19-0.16,0.38-0.19,0.58
		c-0.01,0.08,0.13,0.18,0.2,0.27C144.29,461.48,144.36,461.28,144.2,460.83z"/>
	<path class="st0" d="M132.34,479.82c-0.61-3.13,0.36-6.03,1.35-8.91c0.12-0.35,0.66-0.66,1.07-0.76c0.24-0.06,0.73,0.23,0.88,0.49
		c1.3,2.33,2.7,4.59,3.24,7.3c1.07,5.39,2.98,10.49,5.51,15.38c1.34,2.59,2.6,5.23,3.66,7.94c1.67,4.31,4.61,7.67,7.63,11.02
		c2.37,2.62,4.66,5.3,6.95,7.99c0.7,0.83,1.44,1.73,1.25,2.93c-0.07,0.43-0.3,1.01-0.63,1.19c-0.33,0.18-1.02,0.11-1.31-0.13
		c-1.76-1.49-3.43-3.09-5.18-4.6c-0.53-0.45-1.26-1.09-1.81-1.01c-1.68,0.25-2.8-0.67-3.96-1.52c-3.49-2.57-6.29-5.76-8-9.77
		c-2.1-4.92-4.06-9.89-6.09-14.84c-0.28-0.67-0.6-1.33-0.98-2.5c-0.59-1.8-1.09-3.09-1.59-4.67c-0.28-1.57-0.5-2.88-0.89-4.14
		C133.26,480.68,132.71,480.28,132.34,479.82z"/>
	<path class="st0" d="M116.77,468.84c0.88-3.48,0.91-6.94,0.19-10.47c-0.39-1.89-0.38-3.87-0.49-5.82
		c-0.03-0.46,0.07-1.02,0.33-1.38c0.24-0.33,0.77-0.56,1.19-0.61c0.26-0.03,0.73,0.27,0.85,0.54c0.39,0.88,0.66,1.82,0.98,2.74
		c1.77,0.57,1.6,2.18,1.93,3.55c0.58,2.36,1.22,4.71,1.89,7.04c0.13,0.44,0.48,0.82,0.92,1.56c0.67-4.07-1.13-7.42-1.54-10.83
		c0.21-0.31,0.3-0.58,0.48-0.7c2.85-1.9,3.14-1.76,3.59,1.71c0.14,1.07,0.41,2.1,0.03,3.24c-0.25,0.75-0.1,1.69,0.07,2.51
		c0.75,3.76,0.69,7.5-0.06,11.26c-0.32,1.62-0.31,3.3-0.45,4.87c-0.76,0.33-1.04,0.01-1.23-0.5c-0.55-1.48-1.1-2.96-1.67-4.43
		c-0.48-1.23-0.52-2.66-1.77-3.78c-0.25,0.57-0.54,1.05-0.66,1.57c-0.82,3.43-1.58,6.88-2.43,10.31c-0.29,1.16-0.81,2.26-1.18,3.25
		c-1.41,0.41-2.49-1.47-3.46,0.16c-1.52-1.17-1.65-2.7-1.95-4.08c-0.81-3.68-1.6-7.36-2.21-11.07c-0.25-1.54-0.15-3.17,0.03-4.74
		c0.36-3.02,0.81-6.02,0.75-9.07c-0.02-1.01,0.6-1.52,1.83-1.35c0.81,1.88,0.9,3.93,1.02,5.97c0.16,2.68,0.45,5.32,1.45,8.39
		c0.1,1.54,0.39,2.41,1.58,3.45C116.77,470.68,116.77,469.76,116.77,468.84z"/>
	<path class="st0" d="M295.91,427.93c-2.15,2.06-3.82,4.1-4.81,6.69c-0.43,1.13-1.13,2.16-1.8,3.18c-0.7,1.06-1.8,1.13-2.82,0.29
		c-0.09-0.08-0.18-0.16-0.26-0.26c-2.84-3.6-6.72-5.95-10.31-8.65c-1.6-1.2-2.84-2.67-3.68-4.46c-0.69-1.47-0.13-2.72,1.49-3.02
		c2.87-0.53,5.75-1.02,8.65-1.34c4.74-0.53,9.41-1.24,13.91-2.92c1.12-0.42,2.37-0.48,3.58-0.64c0.47-0.06,0.99-0.01,1.45,0.11
		c1.1,0.29,2.12,0.81,2.33,2.05c0.2,1.16-0.19,2.4-1.2,2.87C299.64,423.14,298.1,425.67,295.91,427.93z"/>
	<path class="st0" d="M165.59,277.86c-5.13,3.08-10.04,6.01-14.96,8.92c-0.08,0.05-0.24-0.03-0.4-0.06
		c-0.91-0.78-0.81-1.72-0.08-2.51c0.82-0.89,1.75-1.71,2.74-2.4c2.8-1.96,5.68-3.79,8.47-5.76c5.59-3.92,11.2-7.83,16.7-11.88
		c4.03-2.97,7.55-6.55,11.01-10.16c3.89-4.06,8.11-7.75,12.36-11.41c0.46-0.39,1-0.69,1.54-0.96c0.14-0.07,0.48,0.08,0.64,0.23
		c0.16,0.15,0.34,0.44,0.3,0.62c-0.11,0.46-0.26,0.94-0.53,1.32c-2.45,3.49-4.87,7.01-7.44,10.42c-1.09,1.45-2.5,2.66-3.78,3.96
		c-5.14,5.24-10.66,9.99-17.1,13.62C171.88,273.61,168.89,275.74,165.59,277.86z"/>
	<path class="st0" d="M132.07,479.98c0.65,0.3,1.19,0.7,1.35,1.22c0.39,1.26,0.61,2.57,0.65,4.26c-0.59,1.93-0.03,3.31,0.46,4.7
		c0.33,6.6,2.91,12.46,5.89,18.22c2.18,4.2,4.17,8.5,6.22,12.77c0.31,0.64,0.51,1.33,0.89,2.37c-0.85-0.11-1.36-0.17-2.07-0.01
		c-0.19,0.23-0.14,0.22,0.08,0.04c0.12-0.36,0.02-0.54-0.15-0.98c-0.53-0.81-0.96-1.39-1.48-1.88c-0.12-0.11-0.54,0.09-0.82,0.14
		c0,0,0.02-0.02,0.26-0.19c-0.33-1.55-0.8-3.02-2.47-3.51c0,0,0.04,0,0.07-0.25c-0.25-0.33-0.53-0.41-0.8-0.48c0,0,0.04,0,0.21-0.2
		c-0.25-1.19-0.48-2.32-1.67-2.74c0,0,0.04,0,0.06-0.25c-0.16-0.69-0.43-0.76-0.8-0.47c0,0,0.03-0.01,0.24-0.21
		c-0.02-0.73-0.14-1.38-0.97-1.24c0,0,0.03-0.02,0.12-0.26c-0.83-2.13-1.75-4.03-2.66-5.92c-1.31-2.63-2.07-5.45-2.39-8.33
		c-0.45-3.99-0.7-8-0.9-12C131.31,483.25,130.94,481.63,132.07,479.98z"/>
	<path class="st0" d="M99.77,479.72c0.89-1.59,1.75-3.2,2.67-4.77c0.29-0.49,0.6-1.1,1.41-0.89c0.71,0.51,0.52,1.28,0.41,1.94
		c-0.63,3.71-1.3,7.41-2.82,10.91c-2.53,5.83-4.15,11.89-4.53,18.27c-0.1,1.68-0.44,3.34-0.66,4.99c-0.85,0.69-1.46,0.21-1.79-0.46
		c-0.32-0.63-0.48-1.38-0.52-2.09c-0.39-5.72-0.49-11.42,1.48-17.46C97,486.35,98.38,483.04,99.77,479.72z"/>
	<path class="st0" d="M88.48,472c0.26-2.52,0.74-4.67,1.91-6.57c1.48-2.39,3.1-4.73,5.44-6.36c2.29-1.59,4.73-2.98,7.13-4.4
		c0.22-0.13,0.67,0.11,0.94,0.16c0.51,0.69,0.23,1.24-0.11,1.73c-2.14,3.11-4.04,6.39-6.69,9.13c-2.49,2.57-4.55,5.39-5.18,9.06
		c-0.16,0.92-0.72,1.79-1.2,2.62c-0.37,0.64-1.55,0.56-1.83-0.14c-0.35-0.89-0.63-1.83-0.73-2.77
		C88.08,473.77,88.34,473.03,88.48,472z"/>
	<path class="st0" d="M416.34,217.68c1.19-3.24,2.23-6.21,3.33-9.16c0.31-0.83,1-0.96,1.89-0.44c0.24,1.96,0.28,4-0.05,6.04
		c-0.69,4.19-0.96,8.42-0.75,12.66c0.05,1.06,0.4,2.11,0.7,3.14c0.53,1.81,0.23,3.33-1.28,4.47c-1.63-0.08-2.44-1.11-3.09-2.33
		c-1.84-3.44-2.39-7.08-1.59-10.91C415.73,220.09,415.98,219.03,416.34,217.68z"/>
	<path class="st0" d="M183.63,502.35c-2.65-3.19-5.14-6.17-7.58-9.19c-0.68-0.84-1.27-1.77-1.81-2.72
		c-0.09-0.16,0.29-0.58,0.55-1.08c3.97,1.83,7.29,4.38,9.96,7.72c2.81,3.52,5.11,7.39,7.09,11.43c0.74,1.52,1.22,3.17,1.76,4.77
		c0.35,1.04,0.44,2.11-0.2,3.32c-0.43-0.15-1.01-0.17-1.23-0.47c-0.72-0.97-1.47-1.97-1.92-3.07
		C188.65,509.22,186.2,505.9,183.63,502.35z"/>
	<path class="st0" d="M303.85,381.35c0.7,1.39,1.31,2.55,0.93,3.71c-0.94,0.49-1.24-0.03-1.56-0.32c-2.57-2.42-5.13-4.85-7.65-7.31
		c-1.67-1.63-3.57-2.9-5.59-4.05c-2.07-1.18-4.35-1.43-6.62-1.8c-0.72-0.12-1.45-0.17-2.15-0.36c-0.74-0.21-1.23-0.75-1.34-1.55
		c-0.08-0.59,0.58-1.29,1.43-1.35c4.42-0.35,8.74-0.19,12.68,2.27c3.56,2.22,6.67,4.86,8.63,8.67
		C302.95,379.88,303.36,380.49,303.85,381.35z"/>
	<path class="st0" d="M162.89,501.74c-0.39-1.4-0.8-2.8-1.15-4.22c-0.14-0.57-0.32-1.28,0.34-1.62c0.82-0.43,1.34,0.16,1.8,0.76
		c0.15,0.19,0.31,0.37,0.45,0.58c2.38,3.66,5.18,7.04,7.04,11.05c1.48,3.19,3.22,6.26,4.88,9.36c0.54,1.01,0.86,1.99,0.36,3.12
		c-0.44,0.99-1.54,1.35-2.41,0.7c-0.39-0.29-0.75-0.63-1.05-1c-0.61-0.75-1.17-1.55-1.92-2.76c-0.98-1.43-1.03-2.98-2.45-3.53
		c0,0,0.02,0.03,0.02-0.2c-0.26-0.33-0.51-0.43-0.76-0.52c0,0,0.02,0.03,0.13-0.2c-0.21-0.58-0.54-0.93-0.86-1.28
		c0,0,0.02,0.03,0.07-0.23C165.9,508.24,164.39,504.99,162.89,501.74z"/>
	<path class="st0" d="M169.78,491.24c1.73,1.77,2.88,3.61,3.9,5.58c1.91,3.68,4.02,7.25,5.91,10.93c1.33,2.6,2.45,5.31,3.61,7.99
		c0.31,0.71,0.28,1.46-0.91,1.68c-3.19-3.61-5.97-7.59-8.2-11.93c-1.5-2.91-2.62-6.03-4.06-8.98c-1.01-2.08-2.28-4.03-3.42-6.04
		c-0.41-0.73-0.98-1.45-0.37-2.51C167.74,488.57,168.5,490.01,169.78,491.24z"/>
	<path class="st0" d="M103.53,195.25c1.63,3.57,3.2,6.86,4.69,10.19c0.6,1.34,1.91,2.63,0.62,4.26c-1.66-0.27-2.23-1.73-2.98-2.88
		c-1.27-1.93-2.43-3.94-3.49-5.99c-2.35-4.53-4.67-9.08-6.9-13.68c-0.73-1.5-1.67-2.99-1.56-4.78c0.56-0.6,1.12-0.5,1.56,0.02
		c1.17,1.4,2.47,2.73,3.41,4.27C100.52,189.37,101.93,192.21,103.53,195.25z"/>
	<path class="st0" d="M91.07,488.78c1.79-3.92,3.57-7.85,5.38-11.77c0.19-0.42,0.52-0.79,0.83-1.15c0.38-0.44,1.35-0.29,1.48,0.29
		c0.16,0.68,0.1,1.41-0.07,2.55c-1.71,4.07-3.2,7.7-4.7,11.34c-1.38,2.24-1.78,4.73-1.94,7.29c-0.21,3.33-0.66,4.81-2.26,7.36
		c-0.38-0.51-0.92-0.9-1.01-1.38c-0.45-2.37-1.1-4.73-0.37-7.17c0.17-0.57,0.17-1.2,0.42-2.28c0.12-0.62,0.08-0.76,0.01-0.9
		c-0.02,0-0.01,0.04,0.22-0.08c0.7-1.27,1.17-2.42,1.72-3.64C90.97,489.05,91.04,488.92,91.07,488.78z"/>
	<path class="st0" d="M201.31,494.4c1.98,2.34,3.85,4.76,5.58,7.45c-0.48,0.23-0.92,0.57-1.04,0.48c-0.75-0.57-1.43-1.24-2.35-1.96
		c-2.81-2.96-5.44-5.8-7.98-8.72c-1.91-2.18-3.71-4.46-5.53-6.66c0.84-1.13,1.38-1.39,1.98-0.92c0.76,0.6,1.44,1.29,2.4,2.33
		c0.94,0.97,1.64,1.56,2.34,2.15c0,0-0.05,0-0.04,0.2c0.26,0.31,0.52,0.42,0.77,0.52c0,0-0.05,0.01-0.04,0.21
		c0.26,0.32,0.52,0.43,0.77,0.54c0,0-0.06,0-0.03,0.2c0.27,0.31,0.52,0.42,0.76,0.52c0,0-0.05,0-0.1,0.23
		c0.24,0.31,0.53,0.4,0.83,0.48c0,0-0.04,0.02-0.11,0.27c0.16,0.65,0.46,0.71,0.83,0.45c0,0-0.03,0.03-0.22,0.16
		C200.41,493.11,200.86,493.76,201.31,494.4z"/>
	<path class="st0" d="M130.5,451.46c0.2-0.3,0.15-0.25,0.16-0.27c-0.18,0.11-0.53,0.33-0.51,0.37c2.54,4.94,3.42,10.3,3.92,15.74
		c0.02,0.27-0.27,0.79-0.47,0.82c-0.41,0.05-1.13-0.02-1.24-0.26c-1.1-2.42-2.34-4.81-3.06-7.35c-0.75-2.64-0.96-5.43-1.45-8.41
		C128.72,451.96,129.51,451.86,130.5,451.46z"/>
	<path class="st0" d="M419.94,256.04c0.78,0.79,1.47,1.34,1.9,2.04c0.23,0.38,0.01,1.03-0.02,1.78c-0.98-0.33-1.7-0.46-2.31-0.79
		c-2.96-1.63-5.95-3.23-8.82-5.01c-1.52-0.94-1.92-2.48-1.23-3.34c0.57-0.71,1.98-0.8,3.38-0.1
		C415.46,251.94,417.7,253.77,419.94,256.04z"/>
	<path class="st0" d="M106.6,454.23c0.99-3.04,1.87-5.81,2.83-8.79c0.53-0.03,1.2-0.07,1.81-0.11c0.79,1.33,0.38,2.51,0.24,3.7
		c-0.44,3.59-2.2,6.66-3.85,9.76c-0.48,0.91-0.83,2.04-2.01,2.41c-0.94-0.4-0.79-1.17-0.61-1.83
		C105.46,457.74,106,456.13,106.6,454.23z"/>
	<path class="st0" d="M138.85,460.01c-0.19,2.15,0.01,4.36-0.93,6.32c-0.77,0.45-1.33,0.18-1.56-0.43
		c-0.38-1.01-0.75-2.07-0.83-3.13c-0.19-2.41-0.24-4.83-0.25-7.24c0-0.41,0.45-0.82,1.26-1.31c0.97-0.06,1.37-0.04,1.73,0.26
		C138.44,456.52,138.65,458.26,138.85,460.01z"/>
	<path class="st0" d="M90.74,488.85c0.3,0.07,0.23,0.2-0.23,0.15c-1.72,0.93-2.03,2.36-1.69,3.99c0,0-0.01-0.04-0.23-0.15
		c-0.57-0.03-0.91,0.05-1.25,0.13c-0.97-0.56-1.33-1.46-1.14-2.49c0.67-3.52,2.21-6.66,4.41-9.48c0.14-0.18,0.64-0.08,1.2-0.12
		c-0.04,0.7,0.03,1.31-0.12,1.85c-0.46,1.64-0.99,3.26-1.52,4.88C90.01,488.11,90,488.54,90.74,488.85z"/>
	<path class="st0" d="M270.66,15.96c1.08,0.64,1.05,1.56,0.14,2.62C270.58,17.84,270.55,17,270.66,15.96z"/>
	<path class="st0" d="M504.12,125.42c-0.85,0-1.66-0.19-2.75-0.73c-0.31-0.54-0.34-0.72-0.38-0.91c0.86,0.15,1.73,0.29,2.89,0.59
		C504.18,124.76,504.17,125,504.12,125.42z"/>
	<path class="st0" d="M304.27,167.64c0.25,0.46,0.36,1.08,0.37,1.87C303.89,169.17,303.87,168.51,304.27,167.64z"/>
	<path class="st0" d="M133.7,533.81c-0.99-0.27-1.03-0.95-0.32-1.88C133.62,532.41,133.68,533,133.7,533.81z"/>
	<path class="st0" d="M270.53,31.34c1.08,0.23,1.16,0.91,0.4,1.88C270.65,32.74,270.55,32.15,270.53,31.34z"/>
	<path class="st0" d="M117.24,275.8c0.41,0.02,0.69,0.15,0.89,0.35c0.04,0.04-0.16,0.49-0.27,0.5
		C117.39,276.69,116.92,276.62,117.24,275.8z"/>
	<path class="st0" d="M300.89,168.12c-0.17-0.32-0.19-0.74-0.1-1.27C300.95,167.17,301,167.6,300.89,168.12z"/>
	<path class="st0" d="M301.71,162.14c-0.08-0.47,0-1.14,0.29-1.95C302.09,160.68,301.98,161.31,301.71,162.14z"/>
	<path class="st0" d="M308.99,193.92c0.3,0.35,0.51,0.96,0.74,1.83C308.86,195.68,308.82,194.96,308.99,193.92z"/>
	<path class="st0" d="M305.4,179.17c0.31,0.4,0.5,1.06,0.64,1.98C305.28,180.91,305.2,180.2,305.4,179.17z"/>
	<path class="st0" d="M506.38,124.93c0.24-0.18,0.64-0.24,1.22-0.17C507.37,124.94,506.96,125,506.38,124.93z"/>
	<path class="st0" d="M302.55,159.29c-0.15-0.3-0.13-0.76,0.08-1.37C302.78,158.22,302.75,158.67,302.55,159.29z"/>
	<path class="st0" d="M308.38,191.6c0.22,0,0.4,0.21,0.53,0.62C308.68,192.21,308.51,192.01,308.38,191.6z"/>
	<path class="st0" d="M307.6,188.68c0.23,0.02,0.39,0.23,0.48,0.63C307.84,189.3,307.69,189.09,307.6,188.68z"/>
	<path class="st0" d="M307.22,187.32c0.19,0.03,0.27,0.14,0.32,0.45C307.37,187.79,307.25,187.59,307.22,187.32z"/>
	<path class="st0" d="M306.68,185.15c0.32-0.06,0.45,0.11,0.39,0.53C306.73,185.76,306.61,185.58,306.68,185.15z"/>
	<path class="st0" d="M306.2,182.77c0.22,0.02,0.38,0.24,0.46,0.67C306.44,183.41,306.28,183.19,306.2,182.77z"/>
	<path class="st0" d="M304.95,175.57c0.2,0.05,0.27,0.18,0.29,0.51C305.07,176.07,304.94,175.86,304.95,175.57z"/>
	<path class="st0" d="M250.79,175.79c0.12-0.1,0.36-0.05,0.73,0.13C251.41,176.02,251.16,175.98,250.79,175.79z"/>
	<path class="st0" d="M304.63,173.29c0.24,0.02,0.39,0.24,0.45,0.64C304.85,173.91,304.7,173.7,304.63,173.29z"/>
	<path class="st0" d="M300.27,173.3c-0.17-0.09-0.21-0.24-0.11-0.58c0.22-0.04,0.32,0.11,0.37,0.27
		C300.55,173.05,300.45,173.16,300.27,173.3z"/>
	<path class="st0" d="M300.53,171.1c-0.21-0.12-0.27-0.37-0.16-0.76C300.57,170.45,300.63,170.71,300.53,171.1z"/>
	<path class="st0" d="M301.19,165.24c-0.18-0.15-0.19-0.41-0.02-0.77C301.35,164.61,301.35,164.87,301.19,165.24z"/>
	<path class="st0" d="M303.11,157.05c-0.15-0.13-0.16-0.36,0-0.69C303.26,156.48,303.26,156.71,303.11,157.05z"/>
	<path class="st0" d="M297.63,98.82c0.18,0.01,0.24,0.16,0.25,0.45C297.66,99.31,297.55,99.16,297.63,98.82z"/>
	<path class="st0" d="M273.44,45.29c0.15,0,0.21,0.11,0.26,0.34C273.51,45.7,273.4,45.59,273.44,45.29z"/>
	<path class="st0" d="M294.04,88.55c0.07-0.07,0.19,0.16,0.21,0.23C294.1,88.87,294,88.8,294.04,88.55z"/>
	<path class="st0" d="M278.65,57.77c0.08-0.07,0.19,0.16,0.2,0.23C278.69,58.09,278.59,58.02,278.65,57.77z"/>
	<path class="st0" d="M275.01,49.73c0.08-0.05,0.16,0.14,0.18,0.2C275.04,50.01,274.94,49.95,275.01,49.73z"/>
	<path class="st0" d="M111.08,443.86c0.09-0.25,0.22-0.26,0.4-0.04c0.04,0.1-0.15,0.24-0.15,0.24S111.11,443.97,111.08,443.86z"/>
	<path class="st0" d="M109.57,443.16c0.11-0.26,0.27-0.27,0.49-0.02c0.05,0.12-0.19,0.23-0.19,0.23S109.62,443.28,109.57,443.16z"/>
	<path class="st0" d="M272.06,40.94c0.09-0.06,0.18,0.2,0.18,0.27C272.07,41.27,271.98,41.18,272.06,40.94z"/>
	<path class="st0" d="M167.31,216.29c-0.22-0.26-0.13-0.45,0.27-0.6C167.84,215.94,167.75,216.15,167.31,216.29z"/>
	<path class="st0" d="M168.05,215.55c-0.22-0.26-0.13-0.45,0.27-0.6C168.57,215.21,168.48,215.42,168.05,215.55z"/>
	<path class="st0" d="M168.77,214.81c-0.24-0.23-0.17-0.42,0.2-0.59C169.25,214.45,169.2,214.66,168.77,214.81z"/>
	<path class="st0" d="M169.5,214.01c-0.21-0.25-0.13-0.42,0.22-0.54C169.99,213.72,169.92,213.91,169.5,214.01z"/>
	<path class="st0" d="M170.23,213.28c-0.2-0.26-0.11-0.43,0.25-0.55C170.74,212.99,170.66,213.19,170.23,213.28z"/>
	<path class="st0" d="M170.98,212.57c-0.22-0.26-0.11-0.46,0.3-0.63C171.37,212.12,171.27,212.34,170.98,212.57z"/>
	<path class="st0" d="M500.84,123.65c0.19,0.32,0.23,0.5,0.29,0.97c-0.95,0.37-1.7-0.07-2.61-0.98
		C499.41,123.59,500.05,123.55,500.84,123.65z"/>
	<path class="st0" d="M204.53,427.53c0.11-0.16,0.29-0.26,0.48-0.35c0.03,0.18,0.07,0.36-0.07,0.55
		C204.76,427.74,204.61,427.6,204.53,427.53z"/>
	<path class="st0" d="M278.33,276.2c-0.29,0.09-0.57,0.19-0.86,0.28c-0.01-0.19-0.01-0.38,0.29-0.56
		C278.16,276.02,278.24,276.11,278.33,276.2z"/>
	<path class="st0" d="M277.94,275.79c0.13-0.22,0.39-0.3,0.64-0.38c0.01,0.17,0.03,0.35-0.1,0.65
		C278.24,276.11,278.16,276.02,277.94,275.79z"/>
	<path class="st0" d="M118.27,158.13c0.05-0.06,0.13-0.14,0.22-0.21c0.13-0.09,0.27-0.18,0.4-0.26c-0.08,0.14-0.16,0.28-0.45,0.45
		C118.22,158.13,118.31,158.11,118.27,158.13z"/>
	<path class="st0" d="M144.32,460.96c0.04,0.32-0.04,0.52-0.11,0.72c-0.07-0.09-0.21-0.19-0.2-0.27
		C144.04,461.22,144.13,461.03,144.32,460.96z"/>
</g>
</svg>
