<svg width="80" height="80" viewBox="0 0 80 80" fill="none" xmlns="http://www.w3.org/2000/svg">
<g clip-path="url(#clip0_1_2)">
<path d="M14.8437 0.296875C13.5469 0.703125 12.625 1.3125 11.5625 2.4375C11.0469 3 10.5625 3.40625 10.4687 3.35938C10.2031 3.1875 8.24998 3.60938 7.48435 3.98438C3.12498 6.20313 3.21873 12.3906 7.62498 14.5625L8.67185 15.0781L19.0312 15.125L29.3906 15.1719L29.9375 14.625C30.6719 13.8906 30.6719 13.1406 29.9375 12.4063L29.4062 11.875H26.4531H23.4844L24 10.875C26.0469 6.79688 23.875 1.65625 19.5156 0.296875C18.2812 -0.09375 16.0469 -0.09375 14.8437 0.296875ZM19.1562 3.71875C21.75 5.04688 22.25 8.57813 20.1562 10.6094C18.9687 11.7656 18.4062 11.875 13.7344 11.875C9.24998 11.875 8.96873 11.8281 8.2031 10.9063C7.29685 9.82813 7.34373 8.40625 8.34373 7.40625C9.03123 6.71875 9.7656 6.54688 10.9531 6.75C12.125 6.98438 12.7812 6.71875 13.1875 5.85938C14.2812 3.5625 16.9844 2.59375 19.1562 3.71875Z" fill="#1ECCD1"/>
<path d="M53.25 6.85938L52.7344 7.3125L52.6875 35.375L52.6562 63.4375H50.7812H48.9062V44.5156V25.5938L48.375 25.0625L47.8437 24.5312H45.4062H42.9687V22.5625C42.9687 20.6094 42.9687 20.5938 42.5156 20.1406L42.0625 19.6875H35.9375H29.8125L29.3594 20.1406C28.9062 20.5938 28.9062 20.6094 28.9062 22.5625V24.5312H26.5625C23.9844 24.5312 23.4844 24.6562 23.1562 25.3906C23.0312 25.6719 22.9687 26.9844 22.9687 29.5938V33.3906L21.7187 32.9531C19.6406 32.2188 18.0312 31.9844 15.625 32.0781C13.3437 32.1719 11.8437 32.4844 9.95311 33.2812C6.34374 34.7969 2.98436 38.1406 1.45311 41.7656C-0.0625111 45.3594 -0.234386 49.6406 0.984364 53.2812L1.34374 54.3438L0.984364 54.8594C0.249989 55.9375 -0.0312611 56.9844 0.0312389 58.5156C0.0781139 59.7344 0.156239 60.0781 0.578114 60.9531C1.56249 62.9531 3.32811 64.0938 5.57811 64.1875C7.03124 64.2656 8.20311 63.9844 9.12499 63.3594L9.71874 62.9688L11.2187 63.4531C12.0469 63.7188 13.3906 64.0156 14.1875 64.1094L15.625 64.2812V67.2656V70.25L14.1719 70.8594C9.28124 72.9062 3.51561 76.1719 2.51561 77.4375C2.04686 78.0312 2.07811 78.9062 2.59374 79.5156L2.99999 80H24.8594H46.7344L47.1094 79.625C47.8125 78.9219 47.8125 77.9531 47.1094 77.25L46.7344 76.875L28.0156 76.8594H9.29686L11.0156 75.9844C13.7969 74.5625 15.5312 73.8438 15.6094 74.0938C15.6406 74.2031 15.875 74.4844 16.1094 74.7188C16.7031 75.3281 17.625 75.3281 18.2812 74.7188C18.6875 74.375 18.7812 74.1406 18.8594 73.4062L18.9531 72.5156L21.3125 71.7344C36.5781 66.6875 54.4219 65.375 74.9219 67.7969C76.9062 68.0312 78.6719 68.1875 78.8594 68.1562C79.0469 68.125 79.3906 67.9062 79.6094 67.7031L80 67.2969V37.3125V7.3125L79.5469 6.85938L79.0938 6.40625H66.4219H53.75L53.25 6.85938ZM76.875 31.9531V54.2188H66.4062H55.9375V31.9531V9.6875H66.4062H76.875V31.9531ZM39.7187 24.9219C39.7656 26.8125 39.7812 26.875 40.2031 27.2969C40.625 27.7344 40.6406 27.7344 43.125 27.7812L45.625 27.8281V45.7656V63.6875L42.9375 63.9531C38.0312 64.4375 30.4687 65.7031 27.0781 66.625L26.25 66.8438V65.1719V63.5H27.8594C30.3281 63.5 32.2187 62.7969 33.8281 61.25L34.4531 60.6406L37.8906 60.5938C41.75 60.5469 42.0469 60.4688 42.3125 59.4688C42.5156 58.7656 42.3906 58.2188 41.9219 57.7344C41.5312 57.3438 41.5 57.3438 38.8906 57.3438H36.25L36.3594 56.6719C36.6094 55.2969 36.4531 53.2188 36.0156 52.1406C35.9062 51.8906 36.0937 51.875 38.7187 51.875C41.5 51.875 41.5156 51.875 41.9219 51.4844C42.3906 51 42.5156 50.4531 42.3125 49.75C42.0469 48.7344 41.7969 48.6875 37.4219 48.5938C33.5781 48.5156 33.5 48.5156 32.9375 48.125C32.3906 47.7656 32.3437 47.6719 32.3437 47C32.3437 46.3438 32 44.25 31.7969 43.5625C31.7031 43.2969 31.9062 43.2812 36.5469 43.2812H41.375L41.8437 42.8906C42.6719 42.2031 42.5781 40.8594 41.6719 40.2969C41.2031 40.0156 40.875 40 35.7187 40L30.2656 40.0156L29.5625 38.9531C29.1719 38.375 28.2656 37.3125 27.5625 36.5938L26.25 35.2969V31.5625V27.8125H28.5625C31.9375 27.8125 32.1875 27.5781 32.1875 24.4844V22.9688H35.9219H39.6562L39.7187 24.9219ZM19.4531 35.6875C20.5937 36 22.4062 36.8438 23.3906 37.5156C26.7187 39.7812 29.0469 43.9375 29.0781 47.6406C29.0937 49.4375 29.2344 49.75 30.4062 50.4844C32.3281 51.7031 33.2031 53.1562 33.1875 55.1562C33.1719 57.875 30.8437 60.1875 28.1406 60.2031C26.9687 60.2188 26.1719 59.9844 25.1406 59.3438C24.2187 58.7812 23.5625 58.7812 22.4844 59.375C21.4375 59.9375 19.6406 60.625 19.2187 60.625C18.9062 60.625 18.9062 60.5 18.9062 55.7031C18.9062 50 18.8281 50.375 20.4844 48.6562C21.5312 47.5625 21.6406 47.3594 21.5781 46.4062C21.5312 45.7812 20.7344 45.1562 19.9844 45.1562C19.3906 45.1562 19.2344 45.25 18.0156 46.4375C16.2031 48.2188 15.7344 49.1719 15.6562 51.2969L15.5937 52.8438L14.3906 51.6562C13.7187 50.9844 12.9844 50.4062 12.7187 50.3281C12.1875 50.1875 11.4844 50.3438 11.0781 50.7188C10.7344 51.0312 10.5469 51.8594 10.7031 52.375C10.7656 52.5625 11.7187 53.6406 12.8281 54.7656C15.1562 57.125 15.4375 57.625 15.5781 59.6094L15.6719 60.9375H15.2187C14.3594 60.9219 12.6406 60.4844 11.0625 59.8438C9.99999 59.4219 9.34374 59.2344 9.06249 59.2969C8.84374 59.3438 8.32812 59.7031 7.92186 60.0781C7.45311 60.5 6.96874 60.8125 6.62499 60.875C4.81249 61.2188 3.28124 60.0469 3.28124 58.3125C3.28124 57.4375 3.46874 57.0312 4.28124 56.1094C5.15624 55.1406 5.18749 54.7656 4.54686 53.3125C3.71874 51.4062 3.51561 50.4375 3.53124 48.125C3.53124 45.75 3.74999 44.7344 4.62499 42.8438C6.42186 38.9219 9.92186 36.2656 14.375 35.4062C15.1875 35.25 18.5312 35.4375 19.4531 35.6875ZM76.875 61.0938C76.875 63.0625 76.8438 64.6875 76.8125 64.6875C76.7812 64.6875 75.5625 64.5469 74.1094 64.375C69.25 63.8125 61 63.2812 56.9219 63.2812H55.9375V60.3906V57.5H66.4062H76.875V61.0938ZM22.9687 65.2812V67.7344L20.9375 68.375L18.9062 69.0156V66.5625V64.1094L20.2656 63.7656C21 63.5781 21.9062 63.2969 22.25 63.1406C22.6094 62.9688 22.9062 62.8281 22.9375 62.8281C22.9531 62.8125 22.9687 63.9219 22.9687 65.2812Z" fill="#1ECCD1"/>
<path d="M59.6406 14.7031C59.0312 15.0625 58.9062 15.7656 58.9062 19.0781C58.9062 22.5 59.0156 23.0625 59.7812 23.4219C60.0469 23.5469 62.1406 23.5938 66.6562 23.5938H73.1562L73.6094 23.1406L74.0625 22.6875V19.0312V15.375L73.625 14.9531L73.1875 14.5312H66.5469C62.125 14.5469 59.8281 14.5938 59.6406 14.7031ZM70.7812 18.9844V20.3125H66.4844H62.1875V18.9844V17.6562H66.4844H70.7812V18.9844Z" fill="#1ECCD1"/>
<path d="M60.0312 27.6719C59.7187 27.7656 59.3906 28.0156 59.2031 28.3281C58.9219 28.7969 58.9062 29.0625 58.9375 32.3125L58.9844 35.8125L59.5 36.2656L60 36.7188H66.5781H73.1562L73.6094 36.2656L74.0625 35.8125V32.1406V28.4844L73.6719 28.0938C73.4531 27.875 73.0625 27.6562 72.7969 27.5938C72.0156 27.4375 60.5937 27.5156 60.0312 27.6719ZM70.7812 32.1094V33.4375H66.4844H62.1875V32.1094V30.7812H66.4844H70.7812V32.1094Z" fill="#1ECCD1"/>
<path d="M59.8906 40.8594C58.9688 41.2656 58.8906 41.6406 58.9375 45.4844L58.9844 48.9375L59.5 49.3906L60 49.8438H66.5781H73.1563L73.6094 49.3906L74.0625 48.9375V45.3125C74.0625 41.3281 74.0156 41.1094 73.0938 40.7969C72.3125 40.5156 60.5313 40.5781 59.8906 40.8594ZM70.7813 45.2344V46.5625H66.4844H62.1875V45.2344V43.9062H66.4844H70.7813V45.2344Z" fill="#1ECCD1"/>
<path d="M30.0156 31.625C28.9687 32.2031 28.9531 33.9062 29.9844 34.4531C30.375 34.6562 31.2812 34.6875 35.8906 34.6875C41.9219 34.6875 41.8437 34.7031 42.2812 33.6719C42.5312 33.0625 42.3437 32.2187 41.8594 31.7812C41.5469 31.5 41.1875 31.4844 35.9531 31.4531C31.5312 31.4219 30.3125 31.4531 30.0156 31.625Z" fill="#1ECCD1"/>
<path d="M34.9687 12.1719C33.8594 13.0625 34.2187 14.8438 35.5781 15.0938C36.2031 15.2032 36.9531 14.9375 37.2656 14.4688C37.625 13.9688 37.5625 12.9063 37.1406 12.4219C36.6406 11.8282 35.5625 11.7188 34.9687 12.1719Z" fill="#1ECCD1"/>
<path d="M51.6562 77.3594C50.75 78.4375 51.4219 80 52.8125 80C53.6094 80 54.1562 79.6562 54.375 78.9844C54.5937 78.3281 54.4531 77.7812 53.9531 77.2656C53.6406 76.9531 53.3906 76.875 52.8125 76.875C52.1562 76.875 52 76.9375 51.6562 77.3594Z" fill="#1ECCD1"/>
<path d="M58.5313 77.3594C57.9531 78.0469 57.9688 78.9375 58.5781 79.5469L59.0313 80H69.1094H79.1719L79.5938 79.5938C79.9219 79.2656 80 79.0312 80 78.4375C80 77.8438 79.9219 77.6094 79.5938 77.2812L79.1719 76.875H69.0625H58.9375L58.5313 77.3594Z" fill="#1ECCD1"/>
</g>
<defs>
<clipPath id="clip0_1_2">
<rect width="80" height="80" fill="white"/>
</clipPath>
</defs>
</svg>
