<svg width="80" height="80" viewBox="0 0 80 80" fill="none" xmlns="http://www.w3.org/2000/svg">
<g clip-path="url(#clip0_125_36)">
<path d="M32.6563 2.32812C31.2656 2.78125 30.4531 3.26562 29.4375 4.28125C27.0781 6.64062 26.5469 9.9375 27.9375 13.5469C28.8125 15.8281 31.5156 18.8281 34.4688 20.8125C36.4063 22.125 39.3438 23.5938 40 23.5938C40.6719 23.5938 43.4531 22.1875 45.5625 20.7812C47.7813 19.2969 50.25 16.8281 51.2813 15.0781C54.3906 9.73437 52.5313 3.85937 47.2031 2.28125C45.25 1.70312 42.5781 2.09375 40.9375 3.20312C40.4844 3.5 40.0625 3.75 40 3.75C39.9375 3.75 39.5156 3.5 39.0625 3.20312C37.375 2.07812 34.6094 1.6875 32.6563 2.32812ZM37.0938 5C37.5156 5.20312 38.2188 5.70312 38.6563 6.125C39.75 7.15625 40.2031 7.15625 41.3281 6.10937C42.5 5.04687 43.4219 4.64062 44.8438 4.5625C46.3281 4.48437 47.4844 4.89062 48.5469 5.85937C50.6094 7.70312 50.8594 10.4062 49.25 13.5156C48.0938 15.7344 44.6094 18.7187 41.2031 20.4062L40 21L38.7969 20.4062C35.7656 18.9219 32.5625 16.3125 31.1563 14.1875C30.2188 12.7969 29.8125 11.6094 29.7344 10.0781C29.6719 9.04687 29.7188 8.67187 30.0156 7.89062C30.4688 6.65625 31.7656 5.34375 32.9688 4.875C34.1406 4.40625 36 4.46875 37.0938 5Z" fill="#1ECCD1"/>
<path d="M19.7656 20.2031C18.8281 20.5156 18.4844 20.7344 17.4844 21.6562C16.9844 22.125 16.4688 22.5 16.3438 22.5C15.9531 22.5 13.0313 24.0469 12.0156 24.7969C9.76564 26.4375 7.53127 28.9844 5.85939 31.7812C2.89064 36.7344 0.343769 45.375 0.0468941 51.4219C-0.0468559 53.375 -0.0468559 53.3906 0.406269 54.2188C1.01564 55.3281 1.75002 55.8281 3.68752 56.4219L5.29689 56.9219L4.45314 57.8438C3.98439 58.3438 3.39064 59.2031 3.12502 59.7656C2.25002 61.6094 2.18752 62.1719 2.18752 70.0156C2.18752 77 2.18752 77.1562 2.51564 77.5625L2.82814 77.9688H41.1094H79.375L79.6875 77.6562C80 77.3438 80.0156 77.2031 79.9688 69.25L79.9219 61.1719L79.5 60.0156C78.6406 57.6562 76.9688 55.7656 74.7969 54.7188C73.7031 54.1719 66.6406 51.9844 64.875 51.6406C64.4219 51.5469 64.0625 51.1875 64.0625 50.8125C64.0625 50.7344 64.5625 50.3594 65.1563 50.0156C67.3281 48.7188 69.3438 46.375 70.1563 44.2344L70.5 43.3125L71.4844 43.25C72.3125 43.2031 72.5938 43.1094 73.0625 42.7188C74.0313 41.9375 74.2188 41.4219 74.2188 39.5C74.2188 37.7812 74.0938 37.1719 73.6094 36.6406C73.375 36.3906 73.2969 35.9531 73.2344 34.2188C73.1406 31.875 72.8125 30.4688 72.0156 28.8594C70.3281 25.5 67.6719 23.3281 63.9844 22.3281C62.8594 22.0156 62.3594 21.9844 59.1406 21.9844C55.9375 21.9844 55.4063 22.0156 54.2969 22.3125C50.7344 23.2812 47.8906 25.5938 46.3281 28.8281C45.4375 30.6406 45.1719 31.7969 45.0469 34.2969C44.9531 36.1562 44.9219 36.375 44.5469 36.8594C44.1875 37.3438 44.1406 37.5625 44.0938 39.0469C44.0313 40.7969 44.1719 41.5781 44.7031 42.25C45.1719 42.8594 46.125 43.2812 46.9844 43.2812L47.7344 43.2969L48.5781 45.0156C49.2969 46.5156 49.5938 46.9375 50.6875 48.0469C51.4219 48.7812 52.3906 49.5781 53.0156 49.9219C53.6875 50.3281 54.0625 50.6406 54.0625 50.8125C54.0625 51.1719 53.5156 51.7188 53.1563 51.7188C52.4531 51.7188 44.2188 54.2812 43.2188 54.8125C41.9844 55.4688 40.4063 56.9531 39.7656 58.0312L39.3281 58.7812L38.5156 57.8594L37.6875 56.9531L39.2031 56.4531C41.0469 55.8281 41.2656 55.7031 41.9531 55.0312C42.7969 54.1875 43.0313 53.25 42.9063 51.2656C42.625 47.0156 41.3281 41.5625 39.4688 36.8125C36.6406 29.5938 32.4063 24.7812 27 22.6406C26.5625 22.4688 25.8281 21.9844 25.375 21.5781C24.1563 20.4688 23.3125 20.1094 21.7188 20.0469C20.9063 20.0156 20.1406 20.0781 19.7656 20.2031ZM22.7969 22.8125C23.4531 23.1406 24.2969 24.0625 24.4219 24.5625C24.5 24.8281 24.4531 24.8594 24.0938 24.7812C23.0625 24.5625 20.625 24.5 19.625 24.6719C19.0313 24.7812 18.5156 24.8281 18.4844 24.7812C18.4375 24.7344 18.5625 24.4375 18.75 24.1094C19.5938 22.6719 21.4063 22.0938 22.7969 22.8125ZM62.0313 24.5312C65.2344 24.9531 67.9531 26.75 69.4531 29.4375C70.0625 30.5625 70.5625 32.0781 70.7031 33.2812L70.7969 34.1406L70.5156 33.6094C70.0938 32.7969 69.5625 32.7188 68.2969 33.2656C67.0625 33.7969 66.7188 33.8906 65.125 34.0625C63.3281 34.2656 61.6875 34.0156 58 32.9531C53.2813 31.5938 51.7969 31.375 49.7344 31.7344C48.5 31.9531 48.1094 32.25 47.7813 33.3125L47.5156 34.1406L47.5938 33.2812C47.8281 31.0469 49.1563 28.4219 50.75 27.0312C52.2813 25.6719 54.1719 24.7969 56.125 24.5469C57.5156 24.3594 60.6563 24.3594 62.0313 24.5312ZM15.7813 25.6094C15.7813 25.6719 15.3125 26.0156 14.7344 26.3438C13.375 27.125 11.2813 29.125 10.3125 30.5625C9.90627 31.1875 9.34377 32.25 9.09377 32.9219C8.62502 34.1406 8.12502 36.3438 8.12502 37.2188C8.12502 37.5469 7.95314 37.8906 7.59377 38.2969C6.89064 39.0625 6.67189 39.9219 6.75002 41.5625C6.85939 43.7344 7.71877 44.7969 9.51564 44.9531L10.3906 45.0312L11.1406 46.5938C11.7969 47.9688 12.0781 48.3438 13.3281 49.5938C14.25 50.5156 15.0938 51.2031 15.6719 51.5C16.5 51.9062 16.5625 52 16.5313 52.4219C16.4844 52.7969 16.3906 52.9062 15.9375 53.0312C15.6406 53.1094 13.8594 53.6094 12 54.1562C10.125 54.7031 8.46877 55.1562 8.31252 55.1562C7.75002 55.1562 3.09377 53.5625 2.81252 53.2812C2.42189 52.8906 2.40627 51.9688 2.73439 49.4375C3.21877 45.7812 4.12502 42.2031 5.54689 38.4219C7.73439 32.5781 10.8594 28.375 14.75 26.0312C15.7813 25.4062 15.7813 25.4062 15.7813 25.6094ZM29.0625 26.6094C31.2188 28.0781 33.2344 30.3281 34.9219 33.2031C37.6563 37.8594 39.9375 45.3906 40.3906 51.3438C40.5469 53.3281 40.5 53.375 37.1875 54.4219L34.6094 55.25L31.3594 54.2812C29.5781 53.75 27.75 53.2188 27.2969 53.125C25.875 52.7812 25.6875 52.2969 26.7656 51.7656C28.9688 50.6875 31.1094 48.3281 32.125 45.8594C32.4375 45.0781 32.4375 45.0781 33.2969 44.9844C34.625 44.8438 35.5469 44.2188 35.9219 43.2344C36.125 42.6875 36.1406 39.6875 35.9531 39.1719C35.875 38.9531 35.5938 38.5469 35.3438 38.2656C34.9531 37.8125 34.8594 37.5156 34.7031 36.3594C34.1406 32.1406 31.9531 28.7188 28.375 26.4844C27.7188 26.0781 27.1875 25.6875 27.1875 25.6094C27.1875 25.4219 27.625 25.6562 29.0625 26.6094ZM23.5625 27.2812C25.2344 27.6094 27.3438 28.6719 28.5625 29.7656C30.625 31.6406 31.8281 33.9375 32.2344 36.75L32.3281 37.3438H28.6406C24.4375 37.3438 23.9063 37.25 21.625 36.1719C20.1094 35.4688 18.7344 34.5938 17.3438 33.4688C16.3125 32.625 15.6875 32.3438 14.8438 32.3438C14.1563 32.3438 13.2188 32.75 12.7813 33.2344C12.4063 33.6406 12.0938 34.4375 11.7031 36C11.3906 37.2344 11.3281 37.3438 10.9844 37.3438C10.625 37.3438 10.6094 37.3125 10.7031 36.5938C11.0469 34.1406 12.0625 32.1406 13.8906 30.2969C15.0156 29.1719 15.4844 28.8281 16.7188 28.2188C19.0156 27.0938 21.1719 26.7969 23.5625 27.2812ZM53.1875 34.2812C53.8281 34.4062 55.5469 34.8594 56.9844 35.2969C60.9688 36.4688 61.8125 36.625 64.1406 36.6094C65.5938 36.5938 66.4844 36.5 67.2969 36.2969L68.4219 36L68.5313 36.8594C68.6719 38.0156 68.4844 40.9531 68.1875 42.1094C67.375 45.2344 64.625 47.9844 61.4688 48.8281C60.2813 49.1562 58 49.1562 56.8125 48.8281C54.5156 48.2188 52.0313 46.2812 50.9844 44.2969C50.0156 42.4375 49.8438 41.5312 49.8438 38.2969C49.8438 35.4219 49.9688 34.4375 50.3438 34.1875C50.6563 34 51.8906 34.0469 53.1875 34.2812ZM16.1719 35.7812C19.0781 38.0312 21.4531 39.1719 24.375 39.75C24.75 39.8281 24.7656 39.875 24.7188 40.8594C24.6406 42.2656 24.75 42.625 25.375 42.9062C25.8281 43.125 25.9531 43.1406 26.3438 42.9531C27.0156 42.625 27.2188 42.1094 27.1406 40.8906L27.0781 39.8438H28.7656H30.4688V41.2031C30.4688 43.9219 29.6094 46.0156 27.7344 47.8906C25.9844 49.6406 23.8438 50.5312 21.4063 50.5156C18.9219 50.4844 17 49.6562 15.1563 47.8281C13.25 45.9375 12.5 44.1094 12.5 41.2969C12.5 39.7188 12.5 39.7031 12.9531 39.3906C13.4688 39.0156 13.5938 38.75 14.1406 36.6406C14.5938 34.9844 14.6406 34.8438 14.8281 34.8438C14.8906 34.8438 15.4844 35.2656 16.1719 35.7812ZM59.1406 51.6406C59.4844 51.6406 60.1719 51.5938 60.6719 51.5625L61.5938 51.4844L61.7969 52.0781C62.0313 52.75 62.0781 52.7344 60.2344 52.9531C59.1094 53.0938 58.7031 53.0625 57.0938 52.7969L56.1406 52.625L56.3125 52.0156L56.4688 51.4062L57.5 51.5156C58.0625 51.5938 58.7969 51.6406 59.1406 51.6406ZM20.8594 53.0312C21.2969 53.0781 22.0781 53.0625 22.6094 53L23.5625 52.875L23.7344 53.4688C23.9844 54.2812 24.8438 55.1094 25.6563 55.3125C27.5313 55.7656 34.0469 57.7188 34.6719 58.0156C35.6563 58.4688 37.0469 59.8906 37.5469 60.9688C38.1719 62.2969 38.2813 63.4688 38.2813 69.7188V75.4688H36.7188H35.1719L35.125 69.5625C35.0781 62.9062 35.1406 63.2969 33.7656 61.9531C32.1875 60.4062 30.375 59.6875 28.125 59.6875C25.9219 59.6875 23.7813 60.5625 22.4219 62.0312C21.5938 62.9219 21.5313 62.9062 20.3906 61.8906C18.6406 60.3438 16.9844 59.6875 14.7656 59.6875C12 59.6875 9.42189 61.0156 8.28127 63.0312C7.84377 63.7812 7.81252 63.9375 7.81252 65.5C7.81252 66.9844 7.84377 67.2188 8.12502 67.5C8.59377 67.9688 9.42189 67.9688 9.92189 67.4844C10.1719 67.2344 10.25 66.9219 10.2813 65.7969C10.3438 64.4219 10.3438 64.3906 10.9375 63.7812C11.2656 63.4375 11.9531 62.9531 12.4531 62.7188C13.25 62.3281 13.5313 62.2656 14.7656 62.2656C15.9844 62.2656 16.2813 62.3281 17.0313 62.6875C17.5 62.9219 18.3281 63.5156 18.875 64C20.7344 65.6719 22.1875 65.6875 24 64.0312C25.3906 62.7812 26.4531 62.2969 27.9688 62.2188C29.5156 62.1406 30.625 62.5469 31.7969 63.625L32.6563 64.4062V69.9375V75.4688H21.5H10.3438L10.2813 73.5156C10.2344 71.8125 10.1875 71.5312 9.92189 71.2656C9.42189 70.7812 8.59377 70.7812 8.12502 71.25C7.84377 71.5312 7.81252 71.7656 7.81252 73.5156V75.4688H6.25002H4.68752V69.25C4.68752 62.6562 4.73439 62.2188 5.48439 60.7188C5.93752 59.8125 7.42189 58.3594 8.31252 57.9688C9.06252 57.6406 16 55.5625 16.9219 55.4062C17.8906 55.2344 19.0625 53.9844 19.0625 53.125C19.0625 52.8438 19.1406 52.8125 19.5781 52.875C19.8438 52.9219 20.4375 52.9844 20.8594 53.0312ZM56.6563 55.2969L57.9375 55.5625L56.7813 56.625C56.0156 57.3125 55.5938 57.6094 55.5469 57.4688C55.5 57.3594 55.2969 56.7188 55.0938 56.0469C54.7188 54.8438 54.7188 54.8281 55.0313 54.9375C55.2188 54.9844 55.9375 55.1562 56.6563 55.2969ZM63.1875 56.0469C62.9844 56.7188 62.8125 57.3125 62.8125 57.375C62.8125 57.6875 62.3281 57.3906 61.3438 56.4844C60.3125 55.5 60.2969 55.4688 60.7188 55.4531C60.9688 55.4531 61.6719 55.3125 62.2656 55.1562C62.875 55 63.4063 54.875 63.4688 54.8594C63.5156 54.8594 63.4063 55.3906 63.1875 56.0469ZM49.5156 56.3594C49.1563 57.0312 48.7656 57.75 48.6406 57.9688C48.125 58.9688 48.1406 59.0156 53.2188 66.875C55.8438 70.9531 58.1719 74.4531 58.375 74.6406C58.875 75.0938 59.4063 75.0938 59.9063 74.6406C60.125 74.4531 62.4531 70.9688 65.0781 66.8906C70.6406 58.25 70.3281 59.0625 68.9844 56.7188C68.5156 55.9062 68.1563 55.2344 68.1719 55.2031C68.2813 55.1094 72.9688 56.6094 73.7188 56.9844C75.3125 57.7812 76.5781 59.2812 77.1875 61.0781C77.4844 61.9688 77.5 62.3906 77.5 68.75V75.4688H75.3906H73.2813V69.9375C73.2813 64.3281 73.2344 63.75 72.6875 63.3438C72.2813 63.0312 71.5469 63.0781 71.1406 63.4688L70.7813 63.7969V69.6406V75.4688H59.0625H47.3438V73.5781C47.3438 72.5469 47.2813 71.5625 47.1875 71.4062C46.9531 70.9688 46.2344 70.7812 45.6719 71.0156C45.0313 71.2969 44.8438 71.9062 44.8438 73.8438V75.4688H42.8125H40.7656L40.8125 68.4688L40.8594 61.4688L41.4531 60.2812C42.1406 58.875 43.3438 57.5938 44.5469 56.9844C45.2188 56.6562 49.4688 55.25 50.0469 55.1719C50.125 55.1562 49.8906 55.7031 49.5156 56.3594ZM53.8594 60.6562C54.5625 63 55.125 64.9219 55.0938 64.9531C55.0469 65 51.25 59.2031 51.125 58.8906C51.0625 58.7656 52.375 56.4062 52.5 56.4062C52.5469 56.4062 53.1563 58.3125 53.8594 60.6562ZM66.8906 58.2031L67.2344 58.8438L65.2344 61.9531C64.125 63.6719 63.1719 65.1406 63.125 65.2031C63.0156 65.3281 65.4063 57.3438 65.6875 56.6094C65.7813 56.375 65.8594 56.4219 66.1875 56.9531C66.3906 57.2969 66.7031 57.8594 66.8906 58.2031ZM59.4375 62.4531C59.4844 62.7031 59.625 63.7188 59.7656 64.7188L60.0156 66.5469L59.5781 67.9688L59.1563 69.3906L58.7188 67.9531L58.2813 66.5312L58.5938 64.3281C58.7656 63.1094 58.9063 62.0938 58.9063 62.0781C58.9063 62.0469 59 62.0312 59.125 62.0312C59.25 62.0312 59.3906 62.2188 59.4375 62.4531Z" fill="#1ECCD1"/>
<path d="M53.75 37.8126C53.3438 38.2188 53.2344 38.7344 53.3125 39.7813C53.4063 40.9532 53.8281 41.3438 54.8906 41.2657C55.0313 41.2657 55.2969 41.1094 55.4688 40.9376C55.7344 40.6719 55.7813 40.4219 55.7813 39.3907C55.7813 38.2344 55.75 38.1251 55.375 37.8282C54.8438 37.4219 54.1563 37.4063 53.75 37.8126Z" fill="#1ECCD1"/>
<path d="M62.9062 37.8281C62.5312 38.125 62.5 38.2344 62.5 39.3125C62.5 39.9687 62.5625 40.625 62.6562 40.7812C62.8594 41.1719 63.6719 41.4219 64.1406 41.25C64.8125 41 65.0469 40.4375 64.9688 39.2031C64.9219 38.2656 64.8438 38.0469 64.5469 37.7969C64.0781 37.4062 63.4219 37.4219 62.9062 37.8281Z" fill="#1ECCD1"/>
<path d="M55.8125 44.3125C55.5469 44.5 55.4688 44.7032 55.4688 45.2188C55.4688 45.8125 55.5469 45.9688 56.1094 46.4844C57.0469 47.3282 57.6875 47.5625 59.1406 47.5625C60.2031 47.5782 60.5156 47.5157 61.25 47.1407C62.3438 46.5938 63.0312 45.7344 62.9062 45.0782C62.6875 44 61.6094 43.75 60.5938 44.5625C60.0625 45 59.8438 45.0782 59.1562 45.0782C58.4688 45.0782 58.25 45 57.7344 44.5625C57.0469 44 56.375 43.9063 55.8125 44.3125Z" fill="#1ECCD1"/>
<path d="M16.5781 39.3907C16.375 39.4688 16.1094 39.6563 16 39.8125C15.7188 40.1719 15.7188 42.1719 16 42.5313C16.5312 43.2344 17.7656 43.1563 18.1094 42.4063C18.2031 42.1875 18.2812 41.6407 18.2812 41.1719C18.2812 40.0938 18.0469 39.5938 17.4531 39.375C17.2031 39.2969 16.9844 39.2188 16.9688 39.2344C16.9531 39.2344 16.7812 39.3125 16.5781 39.3907Z" fill="#1ECCD1"/>
<path d="M18.1562 45.9844C17.9375 46.2031 17.8125 46.5469 17.8125 46.875C17.8125 47.5937 18.875 48.6094 19.9375 48.9219C22.1875 49.5625 24.8438 48.5781 25.1094 46.9844C25.1719 46.5312 25.125 46.3594 24.7969 46.0312C24.25 45.4844 23.625 45.5 22.8906 46.0937C21.8906 46.8906 20.9844 46.8594 19.9688 46.0156C19.375 45.5156 18.6094 45.5 18.1562 45.9844Z" fill="#1ECCD1"/>
<path d="M45.3438 63.4375C44.9219 63.8438 44.7813 64.5781 44.8751 66.0469C44.9376 66.9219 45.0313 67.2812 45.2501 67.5C45.7344 67.9688 46.5626 67.9688 47.0313 67.5C47.3126 67.2188 47.3438 66.9844 47.3438 65.5C47.3438 63.9375 47.3126 63.7812 46.9844 63.4688C46.5313 63.0312 45.7969 63.0312 45.3438 63.4375Z" fill="#1ECCD1"/>
</g>
<defs>
<clipPath id="clip0_125_36">
<rect width="80" height="80" fill="white"/>
</clipPath>
</defs>
</svg>
