<svg width="80" height="80" viewBox="0 0 80 80" fill="none" xmlns="http://www.w3.org/2000/svg">
<path d="M13.2812 19.8438C13.1094 20.0157 12.9688 20.3438 12.9688 20.5625C12.9688 20.9219 14.3125 26.3594 14.9219 28.4532L15.125 29.1563L12.8594 29.6563C11.5312 29.9375 10.4688 30.25 10.2969 30.4063C10.0156 30.6563 10 31.0313 10 38.4219V46.1719L9.17188 46.4688C8.03125 46.875 3.28125 48.6875 2.78125 48.9063C2.5625 49.0157 2.29688 49.2657 2.20312 49.4844C2.09375 49.7344 2.03125 51.5 2.03125 54.75C2.03125 59.4688 2.04688 59.6563 2.35938 60.0625L2.67188 60.4688H8.29688C13.7031 60.4688 13.9219 60.4532 14.2188 60.1563C14.6094 59.7657 14.625 59.0469 14.2344 58.5782L13.9375 58.2032L9.15625 58.1563L4.375 58.1094L4.40625 54.4219L4.45312 50.7344L7.73438 49.5C28.0781 41.8594 53.6719 35.2344 74.6562 32.2188L75.6406 32.0782L75.5469 32.9532C75.1094 36.8907 74.4688 39.3125 73.1719 41.9532C72.125 44.0469 71.2969 45.1094 68.2812 48.2032C64.4844 52.1094 62.5312 54.6407 61.3438 57.1563L60.8906 58.1094L51.3594 58.1563L41.8438 58.2032L41.5469 58.5782C41.1562 59.0469 41.1719 59.7032 41.5625 60.125L41.8906 60.4688H52.0938C63.7031 60.4688 62.5312 60.625 63.1094 58.9844C63.8906 56.75 66.2656 53.625 70.3906 49.3907C71.8594 47.875 73.3906 46.1875 73.7812 45.625C75.3281 43.4375 76.7031 40.1094 77.3438 36.9844C77.7969 34.75 78.0625 31.25 77.8438 30.5C77.5312 29.4844 77.3125 29.4688 73.7031 30C69.7344 30.5938 65.5156 31.3125 62.9062 31.8125C61.3594 32.125 60.7969 32.1719 60.5156 32.0469C60.3125 31.9532 57.6406 30.4219 54.5625 28.6407L48.9844 25.3907L47.8125 25.4375C47.1719 25.4532 44.5781 25.6563 42.0469 25.8594C39.5156 26.0782 37.4375 26.2344 37.4062 26.2032C37.3906 26.1875 36.9688 24.8438 36.4688 23.2188C35.9688 21.5938 35.4219 20.1094 35.2656 19.9063L34.9844 19.5313H30.5625C26.4219 19.5313 26.125 19.5469 25.875 19.8282C25.7188 19.9844 25.5938 20.3282 25.5938 20.5625C25.5781 20.8125 25.9844 22.4063 26.4688 24.125C26.9531 25.8282 27.3438 27.25 27.3125 27.2657C27.2812 27.2969 26.7812 27.3907 26.2031 27.4688L25.1562 27.6094L25 27.0469C24.2031 24.125 22.7969 19.9063 22.5625 19.7344C22.3438 19.5782 21.25 19.5313 17.9375 19.5313C13.7969 19.5313 13.5781 19.5469 13.2812 19.8438ZM21.9062 24.9063C22.4062 26.5469 22.7969 27.8907 22.7656 27.8907C22.75 27.9063 21.6875 28.0782 20.3906 28.2657C19.1094 28.4688 17.9062 28.6563 17.7188 28.6875C17.4219 28.7657 17.3438 28.5469 16.5625 25.5157C16.1094 23.7344 15.7031 22.1719 15.6562 22.0625C15.6094 21.9063 16.1562 21.875 18.2969 21.9063L21 21.9532L21.9062 24.9063ZM34.3125 24.1563C34.7031 25.4063 35 26.4532 34.9844 26.4688C34.9531 26.4844 34.0469 26.5938 32.9688 26.7032C31.8906 26.7969 30.7344 26.9219 30.375 26.9688L29.7344 27.0625L29.0625 24.6719C28.7031 23.3594 28.375 22.1875 28.3281 22.0782C28.2656 21.9219 28.7812 21.875 30.9219 21.875H33.5781L34.3125 24.1563ZM49.1562 28.2344C50.375 28.9375 50.4062 28.9219 47.5 29.375C36 31.2032 21.4219 34.3594 14.3438 36.5782C13.2656 36.9063 12.3281 37.1875 12.2812 37.1875C12.2344 37.1875 12.1875 36.0625 12.1875 34.7032C12.1875 32.4688 12.2188 32.2032 12.4688 32.125C13.2188 31.9063 16.9688 31.1875 19.4531 30.7813C25.9844 29.7188 34.3281 28.8125 46.25 27.8282C47.1562 27.7657 47.9531 27.6875 48.0156 27.6719C48.0781 27.6719 48.5938 27.9219 49.1562 28.2344ZM55.375 31.8282L57.2031 32.8907L56.375 33.0782C55.9219 33.1875 54.0781 33.5938 52.2656 33.9844C41.3906 36.3594 29.0312 39.7657 17.4219 43.6094C14.5938 44.5469 12.25 45.3125 12.2344 45.3125C12.2031 45.3125 12.1875 44.0469 12.1875 42.5V39.7032L14.1719 39.0782C20.8594 36.9688 32.5 34.3282 43.5156 32.4219C50.1875 31.2657 52.9062 30.8125 53.2188 30.7969C53.4062 30.7813 54.375 31.25 55.375 31.8282Z" fill="#1ECCD1"/>
<path d="M54.9844 41.5469C54.5625 41.8907 54.4844 42.8282 54.8594 43.2032C55.5781 43.9375 56.875 43.4219 56.875 42.4063C56.875 41.3907 55.7969 40.8907 54.9844 41.5469Z" fill="#1ECCD1"/>
<path d="M48.6875 42.9844C47.8438 43.6562 48.3281 45 49.4219 45C50.625 45 51 43.3281 49.8906 42.8281C49.3594 42.5781 49.1563 42.6094 48.6875 42.9844Z" fill="#1ECCD1"/>
<path d="M42.2031 44.625C41.6719 45.3125 41.875 46.1094 42.6563 46.375C43.5156 46.6875 44.2188 46.1719 44.2188 45.25C44.2188 44.2657 42.8281 43.8438 42.2031 44.625Z" fill="#1ECCD1"/>
<path d="M20.625 58.2344C20.0938 58.4375 19.8438 58.8125 19.8438 59.3906C19.8438 60.3438 20.1719 60.4688 22.5938 60.4688C24.9062 60.4688 25.1562 60.3594 25.1562 59.3438C25.1562 58.3906 24.7812 58.2031 22.6719 58.1719C21.6719 58.1562 20.75 58.1719 20.625 58.2344Z" fill="#1ECCD1"/>
<path d="M31.2969 58.2344C30.875 58.3125 30.4688 58.8438 30.4688 59.3125C30.4688 59.5 30.6094 59.8281 30.7969 60.0625C31.1094 60.4688 31.125 60.4688 33.2656 60.4688C35.7031 60.4688 35.9375 60.375 35.9375 59.3438C35.9375 58.375 35.5625 58.2031 33.4531 58.1719C32.4531 58.1719 31.4844 58.1875 31.2969 58.2344Z" fill="#1ECCD1"/>
</svg>
