<svg width="58" height="58" viewBox="0 0 58 58" fill="none" xmlns="http://www.w3.org/2000/svg">
<g clip-path="url(#clip0_1420_16)">
<path opacity="0.4" d="M14.2061 57.9999C19.6711 57.9999 24.1013 55.7778 24.1013 53.0368C24.1013 50.2958 19.6711 48.0737 14.2061 48.0737C8.74105 48.0737 4.31079 50.2958 4.31079 53.0368C4.31079 55.7778 8.74105 57.9999 14.2061 57.9999Z" fill="#5E5E5E"/>
<path opacity="0.4" d="M46.6347 32.1141C50.9634 32.1141 54.4726 30.3278 54.4726 28.1242C54.4726 25.9206 50.9634 24.1343 46.6347 24.1343C42.306 24.1343 38.7969 25.9206 38.7969 28.1242C38.7969 30.3278 42.306 32.1141 46.6347 32.1141Z" fill="#5E5E5E"/>
<path d="M36.85 27.6665C28.285 25.3732 27.665 41.5385 40.1184 38.6297C61.2231 33.7005 62.6018 53.4524 42.7103 52.7253C37.4839 52.5341 29.4119 52.6507 26.2563 52.7253" stroke="#5E5E5E" stroke-width="2" stroke-linecap="round" stroke-dasharray="4 6"/>
<path fill-rule="evenodd" clip-rule="evenodd" d="M14.4213 53.7182C12.5591 52.7634 2.40155 44.0015 0.313615 33.9476C-1.77433 23.8938 6.97242 17.3223 14.4213 17.3223C20.7417 17.3223 29.4883 22.7704 28.3034 33.4982C27.852 36.8683 26.2154 44.1698 14.4213 53.7182ZM18.8105 28.6108C18.8105 31.0831 16.7489 33.0873 14.2058 33.0873C11.6627 33.0873 9.60108 31.0831 9.60108 28.6108C9.60108 26.1385 11.6627 24.1343 14.2058 24.1343C16.7489 24.1343 18.8105 26.1385 18.8105 28.6108Z" fill="#5E5E5E"/>
<path fill-rule="evenodd" clip-rule="evenodd" d="M46.9037 28.8054C45.4268 28.0496 37.3707 21.1151 35.7148 13.158C34.0589 5.20097 40.9959 -5.78936e-06 46.9037 0C51.9164 4.91217e-06 58.8535 4.31191 57.9137 12.8024C57.5555 15.4696 56.2576 21.2484 46.9037 28.8054ZM49.9661 8.66112C49.9661 10.4347 48.5186 11.8725 46.733 11.8725C44.9474 11.8725 43.4999 10.4347 43.4999 8.66112C43.4999 6.8875 44.9474 5.44971 46.733 5.44971C48.5186 5.44971 49.9661 6.8875 49.9661 8.66112Z" fill="#5E5E5E"/>
</g>
<defs>
<clipPath id="clip0_1420_16">
<rect width="58" height="58" fill="white"/>
</clipPath>
</defs>
</svg>
