<svg width="58" height="58" viewBox="0 0 58 58" fill="none" xmlns="http://www.w3.org/2000/svg">
<path d="M44.2646 38.4712C48.5753 34.4074 51.2708 28.6482 51.2708 22.2704C51.2708 17.1942 49.6072 12.4131 46.4599 8.44389C43.407 4.59368 39.1134 1.82644 34.3703 0.651942C33.7637 0.501959 33.1489 0.871936 32.9985 1.47924C32.8482 2.08654 33.2185 2.70075 33.8259 2.85119C42.7632 5.06425 49.0052 13.0498 49.0052 22.2704C49.0052 33.3012 40.031 42.2753 29.0003 42.2753C17.9696 42.2753 8.99534 33.3012 8.99534 22.2704C8.99534 13.0498 15.2374 5.06425 24.1747 2.85119C24.782 2.70075 25.1523 2.08654 25.002 1.47924C24.8516 0.871936 24.2372 0.501392 23.63 0.651942C18.8869 1.82644 14.5935 4.59368 11.5406 8.44389C8.3933 12.4131 6.72974 17.1942 6.72974 22.2704C6.72974 28.648 9.42526 34.4074 13.7358 38.4711L7.80511 49.8138C7.5159 50.3669 7.72862 51.0498 8.28078 51.3408L8.3216 51.3623C8.57484 51.4958 8.86919 51.5284 9.14578 51.4536L17.3652 49.2283L20.2292 57.2481C20.3806 57.6718 20.7685 57.9659 21.2175 57.9972C21.2439 57.999 21.2702 57.9999 21.2963 57.9999C21.7157 57.9999 22.1036 57.7673 22.2999 57.392L29.0003 44.5775L35.7007 57.392C35.8969 57.7675 36.2849 58 36.7042 57.9999C36.7304 57.9999 36.7568 57.999 36.783 57.9972C37.2321 57.966 37.6199 57.6718 37.7714 57.2481L40.6353 49.2283L48.8548 51.4537C49.131 51.5287 49.4255 51.4961 49.6789 51.3624L49.7197 51.3409C50.2719 51.0499 50.4846 50.367 50.1953 49.8138L44.2646 38.4712ZM21.4919 54.0475L19.1467 47.4803C18.9479 46.9236 18.3542 46.6132 17.7839 46.7678L10.9931 48.6064L15.5064 39.9747C18.6374 42.3669 22.4184 43.9482 26.5345 44.4037L21.4919 54.0475ZM40.2167 46.7678C39.6462 46.6134 39.0526 46.9236 38.8538 47.4803L36.5085 54.0475L31.4659 44.4037C35.582 43.9482 39.363 42.3669 42.494 39.9747L47.0073 48.6064L40.2167 46.7678Z" fill="#5E5E5E"/>
<path d="M29 2.26562C29.6256 2.26562 30.1328 1.75844 30.1328 1.13281C30.1328 0.507177 29.6256 0 29 0C28.3744 0 27.8672 0.507177 27.8672 1.13281C27.8672 1.75844 28.3744 2.26562 29 2.26562Z" fill="#5E5E5E"/>
<path d="M12.3936 22.2706C12.3936 31.4273 19.8431 38.877 29 38.877C38.1569 38.877 45.6065 31.4274 45.6065 22.2706C45.6065 13.1137 38.1569 5.66406 29 5.66406C19.8431 5.66406 12.3936 13.1137 12.3936 22.2706ZM43.3409 22.2706C43.3409 30.1781 36.9076 36.6113 29 36.6113C21.0925 36.6113 14.6592 30.1781 14.6592 22.2706C14.6592 14.3629 21.0925 7.92969 29 7.92969C36.9076 7.92969 43.3409 14.3629 43.3409 22.2706Z" fill="#5E5E5E"/>
<path d="M27.9803 16.1747L25.6465 21.0041L20.4156 19.8176C20.0066 19.725 19.5803 19.8655 19.3067 20.1831C19.0333 20.5007 18.9574 20.9434 19.1096 21.3339L21.2179 26.7407H21.0706C20.445 26.7407 19.9378 27.2478 19.9378 27.8735C19.9378 28.4991 20.445 29.0063 21.0706 29.0063H36.93C37.5555 29.0063 38.0628 28.4991 38.0628 27.8735C38.0628 27.2478 37.5555 26.7407 36.93 26.7407H36.7827L38.891 21.3339C39.0433 20.9434 38.9676 20.5007 38.694 20.1831C38.4206 19.8654 37.994 19.725 37.5851 19.8175L32.3542 21.004L30.0203 16.1746C29.8312 15.7833 29.4348 15.5347 29.0003 15.5347C28.5658 15.5348 28.1693 15.7834 27.9803 16.1747ZM30.7062 22.801C30.9357 23.2759 31.4626 23.5295 31.9768 23.4128L36.0049 22.4992L34.3511 26.7408H23.6498L21.9959 22.4992L26.0241 23.4128C26.5382 23.5292 27.0651 23.2759 27.2946 22.801L29.0003 19.271L30.7062 22.801Z" fill="#5E5E5E"/>
</svg>
