<svg width="93" height="36" viewBox="0 0 93 36" fill="none" xmlns="http://www.w3.org/2000/svg">
<path d="M43.0906 23.95L42.0949 23.8574L41.9933 24.95H43.0906V23.95ZM54.1906 23.95V24.95H55.2795L55.187 23.865L54.1906 23.95ZM53.8606 20.08L54.857 19.995L54.779 19.08H53.8606V20.08ZM43.4506 20.08V19.08H42.5393L42.4549 19.9874L43.4506 20.08ZM48.5806 14.71L49.4973 14.3102L48.578 12.2025L47.6632 14.3122L48.5806 14.71ZM51.5506 21.52L52.541 21.6582L52.58 21.3788L52.4673 21.1202L51.5506 21.52ZM51.3706 22.81L50.3802 22.6718L50.3382 22.9731L50.4711 23.2468L51.3706 22.81ZM53.8906 28L52.9911 28.4368L53.2645 29H53.8906V28ZM59.6506 28V29H61.2628L60.5465 27.5557L59.6506 28ZM48.5806 5.68L49.4765 5.23568L48.5794 3.42692L47.6843 5.23665L48.5806 5.68ZM37.5406 28L36.6443 27.5566L35.9304 29H37.5406V28ZM43.2706 28V29H43.898L44.171 28.4352L43.2706 28ZM45.8806 22.6L46.781 23.0352L46.9308 22.7252L46.858 22.3887L45.8806 22.6ZM45.6406 21.49L44.7232 21.0922L44.5953 21.3871L44.6632 21.7013L45.6406 21.49ZM43.0906 24.95H54.1906V22.95H43.0906V24.95ZM55.187 23.865L54.857 19.995L52.8643 20.165L53.1942 24.035L55.187 23.865ZM53.8606 19.08H43.4506V21.08H53.8606V19.08ZM42.4549 19.9874L42.0949 23.8574L44.0863 24.0426L44.4463 20.1726L42.4549 19.9874ZM47.664 15.1098L50.634 21.9198L52.4673 21.1202L49.4973 14.3102L47.664 15.1098ZM50.5602 21.3818L50.3802 22.6718L52.361 22.9482L52.541 21.6582L50.5602 21.3818ZM50.4711 23.2468L52.9911 28.4368L54.7902 27.5632L52.2702 22.3732L50.4711 23.2468ZM53.8906 29H59.6506V27H53.8906V29ZM60.5465 27.5557L49.4765 5.23568L47.6848 6.12432L58.7548 28.4443L60.5465 27.5557ZM47.6843 5.23665L36.6443 27.5566L38.437 28.4434L49.477 6.12335L47.6843 5.23665ZM37.5406 29H43.2706V27H37.5406V29ZM44.171 28.4352L46.781 23.0352L44.9803 22.1648L42.3703 27.5648L44.171 28.4352ZM46.858 22.3887L46.618 21.2787L44.6632 21.7013L44.9032 22.8113L46.858 22.3887ZM46.5581 21.8878L49.4981 15.1078L47.6632 14.3122L44.7232 21.0922L46.5581 21.8878ZM61.9112 10.78L62.5738 10.031L62.5738 10.031L61.9112 10.78ZM65.6312 10.78L64.9686 10.031L64.9613 10.0375L64.9541 10.0441L65.6312 10.78ZM65.6312 7.27L64.9541 8.00593L64.9694 8.01998L64.9852 8.03338L65.6312 7.27ZM61.9112 7.27L62.5571 8.03338L62.5655 8.02628L62.5738 8.019L61.9112 7.27ZM61.5812 14.2V13.2H60.5812V14.2H61.5812ZM61.5812 28H60.5812V29H61.5812V28ZM65.9612 28V29H66.9612V28H65.9612ZM65.9612 14.2H66.9612V13.2H65.9612V14.2ZM60.1312 9.01C60.1312 10.0044 60.5051 10.8713 61.2486 11.529L62.5738 10.031C62.2772 9.76868 62.1312 9.45563 62.1312 9.01H60.1312ZM61.2486 11.529C61.9587 12.1572 62.817 12.47 63.7712 12.47V10.47C63.2854 10.47 62.9036 10.3228 62.5738 10.031L61.2486 11.529ZM63.7712 12.47C64.7377 12.47 65.6065 12.1615 66.3082 11.5159L64.9541 10.0441C64.6559 10.3185 64.2847 10.47 63.7712 10.47V12.47ZM66.2938 11.529C67.0372 10.8713 67.4112 10.0044 67.4112 9.01H65.4112C65.4112 9.45563 65.2651 9.76868 64.9686 10.031L66.2938 11.529ZM67.4112 9.01C67.4112 8.015 67.0359 7.14865 66.2771 6.50661L64.9852 8.03338C65.2665 8.27135 65.4112 8.565 65.4112 9.01H67.4112ZM66.3082 6.53407C65.6065 5.88847 64.7377 5.58 63.7712 5.58V7.58C64.2847 7.58 64.6559 7.73153 64.9541 8.00593L66.3082 6.53407ZM63.7712 5.58C62.817 5.58 61.9587 5.89282 61.2486 6.521L62.5738 8.019C62.9036 7.72718 63.2854 7.58 63.7712 7.58V5.58ZM61.2652 6.50661C60.5065 7.14865 60.1312 8.015 60.1312 9.01H62.1312C62.1312 8.565 62.2759 8.27135 62.5571 8.03338L61.2652 6.50661ZM60.5812 14.2V28H62.5812V14.2H60.5812ZM61.5812 29H65.9612V27H61.5812V29ZM66.9612 28V14.2H64.9612V28H66.9612ZM65.9612 13.2H61.5812V15.2H65.9612V13.2ZM69.6922 4.6V3.6H68.6922V4.6H69.6922ZM69.6922 28H68.6922V29H69.6922V28ZM74.2522 28V29H75.2522V28H74.2522ZM74.2522 4.6H75.2522V3.6H74.2522V4.6ZM68.6922 4.6V28H70.6922V4.6H68.6922ZM69.6922 29H74.2522V27H69.6922V29ZM75.2522 28V4.6H73.2522V28H75.2522ZM74.2522 3.6H69.6922V5.6H74.2522V3.6ZM91.9081 14.2L92.8231 14.6036L93.4423 13.2H91.9081V14.2ZM87.2581 14.2V13.2H86.5808L86.3295 13.829L87.2581 14.2ZM82.8481 25.24L81.9195 24.869L81.3793 26.2213L82.8353 26.2399L82.8481 25.24ZM85.1881 25.27L85.1753 26.2699L86.6781 26.2892L86.1154 24.8956L85.1881 25.27ZM80.7181 14.2L81.6454 13.8256L81.3928 13.2H80.7181V14.2ZM75.7381 14.2V13.2H74.1625L74.8333 14.6257L75.7381 14.2ZM81.7081 26.89L82.6249 27.2895L82.8058 26.8742L82.613 26.4643L81.7081 26.89ZM78.3481 34.6L77.4314 34.2005L76.8215 35.6H78.3481V34.6ZM82.9081 34.6V35.6H83.56L83.8231 35.0036L82.9081 34.6ZM91.9081 13.2H87.2581V15.2H91.9081V13.2ZM86.3295 13.829L81.9195 24.869L83.7768 25.611L88.1868 14.571L86.3295 13.829ZM82.8353 26.2399L85.1753 26.2699L85.201 24.2701L82.861 24.2401L82.8353 26.2399ZM86.1154 24.8956L81.6454 13.8256L79.7909 14.5744L84.2609 25.6444L86.1154 24.8956ZM80.7181 13.2H75.7381V15.2H80.7181V13.2ZM74.8333 14.6257L80.8033 27.3157L82.613 26.4643L76.643 13.7743L74.8333 14.6257ZM80.7914 26.4905L77.4314 34.2005L79.2649 34.9995L82.6249 27.2895L80.7914 26.4905ZM78.3481 35.6H82.9081V33.6H78.3481V35.6ZM83.8231 35.0036L92.8231 14.6036L90.9932 13.7964L81.9932 34.1964L83.8231 35.0036Z" fill="#F2AA4C"/>
<g clip-path="url(#clip0_1_2)">
<path d="M23.6271 9.3349H22.42V3.93964C22.42 2.62497 21.3827 1.55581 20.1083 1.55581H19.3723V0.311157H20.1083C22.0488 0.311157 23.6271 1.93917 23.6271 3.93964V9.3349Z" fill="#F2AA4C"/>
<path d="M9.62732 0.312103V1.55676H8.89098C7.61748 1.55676 6.57937 2.62405 6.57937 3.94027V9.33585H5.37226V3.94027C5.37226 1.93949 6.95056 0.312103 8.89098 0.312103H9.62732V0.312103Z" fill="#F2AA4C"/>
<path d="M17.5788 1.86698H11.4214C10.9213 1.86698 10.5161 1.44909 10.5161 0.933491C10.5161 0.417893 10.9213 0 11.4214 0H17.5788C18.0789 0 18.4842 0.417893 18.4842 0.933491C18.4842 1.44909 18.0789 1.86698 17.5788 1.86698Z" fill="#F2AA4C"/>
<path d="M15.3037 35.9932H4.76871C4.57557 35.9932 4.38847 35.9776 4.20439 35.9465C3.83018 35.8874 3.47409 35.7692 3.14515 35.6074L10.9401 27.57L15.2796 35.9465L15.3037 35.9932Z" fill="#F2AA4C"/>
<path d="M7.38512 23.9076L0.999512 30.4918V20.3884L7.38512 23.9076Z" fill="#F2AA4C"/>
<path d="M27.9995 12.0274V32.1068C27.9995 34.0453 26.6234 35.654 24.8248 35.9465C24.6317 35.9777 24.4355 35.9932 24.2333 35.9932H18.3668L18.3607 35.9465L17.9262 32.5891L19.0216 31.4596C19.4079 31.0582 19.4079 30.4109 19.0216 30.0126C18.6354 29.6144 18.0047 29.6144 17.6184 30.0126L17.5942 30.0375L16.529 21.8073L19.4954 18.7485C20.0688 18.1604 20.5667 17.5039 20.9772 16.8038C21.3906 16.1036 21.7165 15.3568 21.9428 14.5852C22.142 13.9193 21.973 13.3125 21.5958 12.9204C21.2156 12.5315 20.6271 12.3572 19.9783 12.5595C19.2329 12.796 18.5086 13.132 17.8296 13.5552C17.1506 13.9815 16.5139 14.4949 15.9405 15.0861L12.974 18.1449L4.99504 17.0434L5.01918 17.0216C5.40546 16.6202 5.40546 15.9729 5.01918 15.5747C4.62989 15.1733 4.00219 15.1733 3.61592 15.5747L2.52047 16.7042L0.999512 16.4926V12.0274C0.999512 9.88037 2.68645 8.14407 4.76871 8.14407H24.2333C26.3126 8.14407 27.9995 9.88037 27.9995 12.0274Z" fill="#F2AA4C"/>
</g>
<defs>
<clipPath id="clip0_1_2">
<rect width="26.9719" height="36" fill="white" transform="translate(0.609375)"/>
</clipPath>
</defs>
</svg>
