<svg width="40" height="40" viewBox="0 0 40 40" fill="none" xmlns="http://www.w3.org/2000/svg">
<g clip-path="url(#clip0_1499_2458)">
<path d="M16.3288 1.16406C15.6335 1.39062 15.2272 1.63281 14.7194 2.14062C13.5397 3.32031 13.2741 4.96875 13.9694 6.77344C14.4069 7.91406 15.7585 9.41406 17.2351 10.4062C18.2038 11.0625 19.6726 11.7969 20.0007 11.7969C20.3366 11.7969 21.7272 11.0937 22.7819 10.3906C23.8913 9.64844 25.1257 8.41406 25.6413 7.53906C27.196 4.86719 26.2663 1.92969 23.6022 1.14062C22.6257 0.851562 21.2897 1.04687 20.4694 1.60156C20.2429 1.75 20.0319 1.875 20.0007 1.875C19.9694 1.875 19.7585 1.75 19.5319 1.60156C18.6882 1.03906 17.3054 0.843749 16.3288 1.16406ZM18.5476 2.5C18.7585 2.60156 19.1101 2.85156 19.3288 3.0625C19.8757 3.57812 20.1022 3.57812 20.6647 3.05469C21.2507 2.52344 21.7116 2.32031 22.4226 2.28125C23.1647 2.24219 23.7429 2.44531 24.2741 2.92969C25.3054 3.85156 25.4304 5.20312 24.6257 6.75781C24.0476 7.86719 22.3054 9.35937 20.6022 10.2031L20.0007 10.5L19.3991 10.2031C17.8835 9.46094 16.2819 8.15625 15.5788 7.09375C15.1101 6.39844 14.9069 5.80469 14.8679 5.03906C14.8366 4.52344 14.8601 4.33594 15.0085 3.94531C15.2351 3.32812 15.8835 2.67187 16.4851 2.4375C17.071 2.20312 18.0007 2.23437 18.5476 2.5Z" fill="#1ECCD1"/>
<path d="M9.88313 10.1016C9.41438 10.2578 9.2425 10.3672 8.7425 10.8281C8.4925 11.0625 8.23469 11.25 8.17219 11.25C7.97688 11.25 6.51594 12.0234 6.00813 12.3984C4.88313 13.2188 3.76594 14.4922 2.93 15.8906C1.44563 18.3672 0.17219 22.6875 0.0237522 25.7109C-0.0231228 26.6875 -0.0231228 26.6953 0.20344 27.1094C0.508127 27.6641 0.875315 27.9141 1.84406 28.2109L2.64875 28.4609L2.22688 28.9219C1.9925 29.1719 1.69563 29.6016 1.56281 29.8828C1.12531 30.8047 1.09406 31.0859 1.09406 35.0078C1.09406 38.5 1.09406 38.5781 1.25813 38.7812L1.41438 38.9844H20.555H39.6878L39.8441 38.8281C40.0003 38.6719 40.0081 38.6016 39.9847 34.625L39.9613 30.5859L39.7503 30.0078C39.3206 28.8281 38.4847 27.8828 37.3988 27.3594C36.8519 27.0859 33.3206 25.9922 32.4378 25.8203C32.2113 25.7734 32.0316 25.5938 32.0316 25.4062C32.0316 25.3672 32.2816 25.1797 32.5784 25.0078C33.6644 24.3594 34.6722 23.1875 35.0784 22.1172L35.2503 21.6562L35.7425 21.625C36.1566 21.6016 36.2972 21.5547 36.5316 21.3594C37.0159 20.9688 37.1097 20.7109 37.1097 19.75C37.1097 18.8906 37.0472 18.5859 36.805 18.3203C36.6878 18.1953 36.6488 17.9766 36.6175 17.1094C36.5706 15.9375 36.4066 15.2344 36.0081 14.4297C35.1644 12.75 33.8363 11.6641 31.9925 11.1641C31.43 11.0078 31.18 10.9922 29.5706 10.9922C27.9691 10.9922 27.7034 11.0078 27.1488 11.1562C25.3675 11.6406 23.9456 12.7969 23.1644 14.4141C22.7191 15.3203 22.5863 15.8984 22.5238 17.1484C22.4769 18.0781 22.4613 18.1875 22.2738 18.4297C22.0941 18.6719 22.0706 18.7812 22.0472 19.5234C22.0159 20.3984 22.0863 20.7891 22.3519 21.125C22.5863 21.4297 23.0628 21.6406 23.4925 21.6406L23.8675 21.6484L24.2894 22.5078C24.6488 23.2578 24.7972 23.4688 25.3441 24.0234C25.7113 24.3906 26.1956 24.7891 26.5081 24.9609C26.8441 25.1641 27.0316 25.3203 27.0316 25.4062C27.0316 25.5859 26.7581 25.8594 26.5784 25.8594C26.2269 25.8594 22.1097 27.1406 21.6097 27.4062C20.9925 27.7344 20.2034 28.4766 19.8831 29.0156L19.6644 29.3906L19.2581 28.9297L18.8441 28.4766L19.6019 28.2266C20.5238 27.9141 20.6331 27.8516 20.9769 27.5156C21.3988 27.0938 21.5159 26.625 21.4534 25.6328C21.3128 23.5078 20.6644 20.7812 19.7347 18.4062C18.3206 14.7969 16.2034 12.3906 13.5003 11.3203C13.2816 11.2344 12.9144 10.9922 12.6878 10.7891C12.0784 10.2344 11.6566 10.0547 10.8597 10.0234C10.4534 10.0078 10.0706 10.0391 9.88313 10.1016ZM11.3988 11.4062C11.7269 11.5703 12.1488 12.0312 12.2113 12.2812C12.2503 12.4141 12.2269 12.4297 12.0472 12.3906C11.5316 12.2812 10.3128 12.25 9.81281 12.3359C9.51594 12.3906 9.25813 12.4141 9.2425 12.3906C9.21906 12.3672 9.28156 12.2188 9.37531 12.0547C9.79719 11.3359 10.7034 11.0469 11.3988 11.4062ZM31.0159 12.2656C32.6175 12.4766 33.9769 13.375 34.7269 14.7188C35.0316 15.2812 35.2816 16.0391 35.3519 16.6406L35.3988 17.0703L35.2581 16.8047C35.0472 16.3984 34.7816 16.3594 34.1488 16.6328C33.5316 16.8984 33.3597 16.9453 32.5628 17.0312C31.6644 17.1328 30.8441 17.0078 29.0003 16.4766C26.6409 15.7969 25.8988 15.6875 24.8675 15.8672C24.2503 15.9766 24.055 16.125 23.8909 16.6562L23.7581 17.0703L23.7972 16.6406C23.9144 15.5234 24.5784 14.2109 25.3753 13.5156C26.1409 12.8359 27.0863 12.3984 28.0628 12.2734C28.7581 12.1797 30.3284 12.1797 31.0159 12.2656ZM7.89094 12.8047C7.89094 12.8359 7.65656 13.0078 7.3675 13.1719C6.68781 13.5625 5.64094 14.5625 5.15656 15.2812C4.95344 15.5938 4.67219 16.125 4.54719 16.4609C4.31281 17.0703 4.06281 18.1719 4.06281 18.6094C4.06281 18.7734 3.97688 18.9453 3.79719 19.1484C3.44563 19.5312 3.33625 19.9609 3.37531 20.7812C3.43 21.8672 3.85969 22.3984 4.75813 22.4766L5.19563 22.5156L5.57063 23.2969C5.89875 23.9844 6.03938 24.1719 6.66438 24.7969C7.12531 25.2578 7.54719 25.6016 7.83625 25.75C8.25031 25.9531 8.28156 26 8.26594 26.2109C8.2425 26.3984 8.19563 26.4531 7.96906 26.5156C7.82063 26.5547 6.93 26.8047 6.00031 27.0781C5.06281 27.3516 4.23469 27.5781 4.15656 27.5781C3.87531 27.5781 1.54719 26.7812 1.40656 26.6406C1.21125 26.4453 1.20344 25.9844 1.3675 24.7188C1.60969 22.8906 2.06281 21.1016 2.77375 19.2109C3.8675 16.2891 5.43 14.1875 7.37531 13.0156C7.89094 12.7031 7.89094 12.7031 7.89094 12.8047ZM14.5316 13.3047C15.6097 14.0391 16.6175 15.1641 17.4613 16.6016C18.8284 18.9297 19.9691 22.6953 20.1956 25.6719C20.2738 26.6641 20.2503 26.6875 18.5941 27.2109L17.305 27.625L15.68 27.1406C14.7894 26.875 13.8753 26.6094 13.6488 26.5625C12.9378 26.3906 12.8441 26.1484 13.3831 25.8828C14.4847 25.3438 15.555 24.1641 16.0628 22.9297C16.2191 22.5391 16.2191 22.5391 16.6488 22.4922C17.3128 22.4219 17.7738 22.1094 17.9613 21.6172C18.0628 21.3438 18.0706 19.8438 17.9769 19.5859C17.9378 19.4766 17.7972 19.2734 17.6722 19.1328C17.4769 18.9062 17.43 18.7578 17.3519 18.1797C17.0706 16.0703 15.9769 14.3594 14.1878 13.2422C13.8597 13.0391 13.5941 12.8438 13.5941 12.8047C13.5941 12.7109 13.8128 12.8281 14.5316 13.3047ZM11.7816 13.6406C12.6175 13.8047 13.6722 14.3359 14.2816 14.8828C15.3128 15.8203 15.9144 16.9688 16.1175 18.375L16.1644 18.6719H14.3206C12.2191 18.6719 11.9534 18.625 10.8128 18.0859C10.055 17.7344 9.3675 17.2969 8.67219 16.7344C8.15656 16.3125 7.84406 16.1719 7.42219 16.1719C7.07844 16.1719 6.60969 16.375 6.39094 16.6172C6.20344 16.8203 6.04719 17.2188 5.85188 18C5.69563 18.6172 5.66438 18.6719 5.4925 18.6719C5.31281 18.6719 5.305 18.6562 5.35188 18.2969C5.52375 17.0703 6.03156 16.0703 6.94563 15.1484C7.50813 14.5859 7.7425 14.4141 8.35969 14.1094C9.50813 13.5469 10.5863 13.3984 11.7816 13.6406ZM26.5941 17.1406C26.9144 17.2031 27.7738 17.4297 28.4925 17.6484C30.4847 18.2344 30.9066 18.3125 32.0706 18.3047C32.7972 18.2969 33.2425 18.25 33.6488 18.1484L34.2113 18L34.2659 18.4297C34.3363 19.0078 34.2425 20.4766 34.0941 21.0547C33.6878 22.6172 32.3128 23.9922 30.7347 24.4141C30.1409 24.5781 29.0003 24.5781 28.4066 24.4141C27.2581 24.1094 26.0159 23.1406 25.4925 22.1484C25.0081 21.2188 24.9222 20.7656 24.9222 19.1484C24.9222 17.7109 24.9847 17.2188 25.1722 17.0938C25.3284 17 25.9456 17.0234 26.5941 17.1406ZM8.08625 17.8906C9.53938 19.0156 10.7269 19.5859 12.1878 19.875C12.3753 19.9141 12.3831 19.9375 12.3597 20.4297C12.3206 21.1328 12.3753 21.3125 12.6878 21.4531C12.9144 21.5625 12.9769 21.5703 13.1722 21.4766C13.5081 21.3125 13.6097 21.0547 13.5706 20.4453L13.5394 19.9219H14.3831H15.2347V20.6016C15.2347 21.9609 14.805 23.0078 13.8675 23.9453C12.9925 24.8203 11.9222 25.2656 10.7034 25.2578C9.46125 25.2422 8.50031 24.8281 7.57844 23.9141C6.62531 22.9688 6.25031 22.0547 6.25031 20.6484C6.25031 19.8594 6.25031 19.8516 6.47688 19.6953C6.73469 19.5078 6.79719 19.375 7.07063 18.3203C7.29719 17.4922 7.32063 17.4219 7.41438 17.4219C7.44563 17.4219 7.7425 17.6328 8.08625 17.8906ZM29.5706 25.8203C29.7425 25.8203 30.0863 25.7969 30.3363 25.7812L30.7972 25.7422L30.8988 26.0391C31.0159 26.375 31.0394 26.3672 30.1175 26.4766C29.555 26.5469 29.3519 26.5312 28.5472 26.3984L28.0706 26.3125L28.1566 26.0078L28.2347 25.7031L28.7503 25.7578C29.0316 25.7969 29.3988 25.8203 29.5706 25.8203ZM10.43 26.5156C10.6488 26.5391 11.0394 26.5312 11.305 26.5L11.7816 26.4375L11.8675 26.7344C11.9925 27.1406 12.4222 27.5547 12.8284 27.6562C13.7659 27.8828 17.0238 28.8594 17.3363 29.0078C17.8284 29.2344 18.5238 29.9453 18.7738 30.4844C19.0863 31.1484 19.1409 31.7344 19.1409 34.8594V37.7344H18.3597H17.5863L17.5628 34.7812C17.5394 31.4531 17.5706 31.6484 16.8831 30.9766C16.0941 30.2031 15.1878 29.8438 14.0628 29.8438C12.9613 29.8438 11.8909 30.2812 11.2113 31.0156C10.7972 31.4609 10.7659 31.4531 10.1956 30.9453C9.32063 30.1719 8.4925 29.8438 7.38313 29.8438C6.00031 29.8438 4.71125 30.5078 4.14094 31.5156C3.92219 31.8906 3.90656 31.9688 3.90656 32.75C3.90656 33.4922 3.92219 33.6094 4.06281 33.75C4.29719 33.9844 4.71125 33.9844 4.96125 33.7422C5.08625 33.6172 5.12531 33.4609 5.14094 32.8984C5.17219 32.2109 5.17219 32.1953 5.46906 31.8906C5.63313 31.7188 5.97688 31.4766 6.22688 31.3594C6.62531 31.1641 6.76594 31.1328 7.38313 31.1328C7.9925 31.1328 8.14094 31.1641 8.51594 31.3438C8.75031 31.4609 9.16438 31.7578 9.43781 32C10.3675 32.8359 11.0941 32.8438 12.0003 32.0156C12.6956 31.3906 13.2269 31.1484 13.9847 31.1094C14.7581 31.0703 15.3128 31.2734 15.8988 31.8125L16.3284 32.2031V34.9688V37.7344H10.7503H5.17219L5.14094 36.7578C5.1175 35.9062 5.09406 35.7656 4.96125 35.6328C4.71125 35.3906 4.29719 35.3906 4.06281 35.625C3.92219 35.7656 3.90656 35.8828 3.90656 36.7578V37.7344H3.12531H2.34406V34.625C2.34406 31.3281 2.3675 31.1094 2.7425 30.3594C2.96906 29.9062 3.71125 29.1797 4.15656 28.9844C4.53156 28.8203 8.00031 27.7812 8.46125 27.7031C8.94563 27.6172 9.53156 26.9922 9.53156 26.5625C9.53156 26.4219 9.57063 26.4062 9.78938 26.4375C9.92219 26.4609 10.2191 26.4922 10.43 26.5156ZM28.3284 27.6484L28.9691 27.7812L28.3909 28.3125C28.0081 28.6562 27.7972 28.8047 27.7738 28.7344C27.7503 28.6797 27.6488 28.3594 27.5472 28.0234C27.3597 27.4219 27.3597 27.4141 27.5159 27.4688C27.6097 27.4922 27.9691 27.5781 28.3284 27.6484ZM31.5941 28.0234C31.4925 28.3594 31.4066 28.6562 31.4066 28.6875C31.4066 28.8438 31.1644 28.6953 30.6722 28.2422C30.1566 27.75 30.1488 27.7344 30.3597 27.7266C30.4847 27.7266 30.8363 27.6562 31.1331 27.5781C31.4378 27.5 31.7034 27.4375 31.7347 27.4297C31.7581 27.4297 31.7034 27.6953 31.5941 28.0234ZM24.7581 28.1797C24.5784 28.5156 24.3831 28.875 24.3206 28.9844C24.0628 29.4844 24.0706 29.5078 26.6097 33.4375C27.9222 35.4766 29.0863 37.2266 29.1878 37.3203C29.4378 37.5469 29.7034 37.5469 29.9534 37.3203C30.0628 37.2266 31.2269 35.4844 32.5394 33.4453C35.3206 29.125 35.1644 29.5312 34.4925 28.3594C34.2581 27.9531 34.0784 27.6172 34.0863 27.6016C34.1409 27.5547 36.4847 28.3047 36.8597 28.4922C37.6566 28.8906 38.2894 29.6406 38.5941 30.5391C38.7425 30.9844 38.7503 31.1953 38.7503 34.375V37.7344H37.6956H36.6409V34.9688C36.6409 32.1641 36.6175 31.875 36.3441 31.6719C36.1409 31.5156 35.7738 31.5391 35.5706 31.7344L35.3909 31.8984V34.8203V37.7344H29.5316H23.6722V36.7891C23.6722 36.2734 23.6409 35.7812 23.5941 35.7031C23.4769 35.4844 23.1175 35.3906 22.8363 35.5078C22.5159 35.6484 22.4222 35.9531 22.4222 36.9219V37.7344H21.4066H20.3831L20.4066 34.2344L20.43 30.7344L20.7269 30.1406C21.0706 29.4375 21.6722 28.7969 22.2738 28.4922C22.6097 28.3281 24.7347 27.625 25.0238 27.5859C25.0628 27.5781 24.9456 27.8516 24.7581 28.1797ZM26.93 30.3281C27.2816 31.5 27.5628 32.4609 27.5472 32.4766C27.5238 32.5 25.6253 29.6016 25.5628 29.4453C25.5316 29.3828 26.1878 28.2031 26.2503 28.2031C26.2738 28.2031 26.5784 29.1562 26.93 30.3281ZM33.4456 29.1016L33.6175 29.4219L32.6175 30.9766C32.0628 31.8359 31.5863 32.5703 31.5628 32.6016C31.5081 32.6641 32.7034 28.6719 32.8441 28.3047C32.8909 28.1875 32.93 28.2109 33.0941 28.4766C33.1956 28.6484 33.3519 28.9297 33.4456 29.1016ZM29.7191 31.2266C29.7425 31.3516 29.8128 31.8594 29.8831 32.3594L30.0081 33.2734L29.7894 33.9844L29.5784 34.6953L29.3597 33.9766L29.1409 33.2656L29.2972 32.1641C29.3831 31.5547 29.4534 31.0469 29.4534 31.0391C29.4534 31.0234 29.5003 31.0156 29.5628 31.0156C29.6253 31.0156 29.6956 31.1094 29.7191 31.2266Z" fill="#1ECCD1"/>
<path d="M26.875 18.9063C26.6719 19.1095 26.6172 19.3673 26.6563 19.8907C26.7032 20.4766 26.9141 20.672 27.4453 20.6329C27.5157 20.6329 27.6485 20.5548 27.7344 20.4688C27.8672 20.336 27.8907 20.211 27.8907 19.6954C27.8907 19.1173 27.875 19.0626 27.6875 18.9141C27.4219 18.711 27.0782 18.7032 26.875 18.9063Z" fill="#1ECCD1"/>
<path d="M31.4531 18.9138C31.2656 19.0623 31.25 19.1169 31.25 19.656C31.25 19.9841 31.2812 20.3123 31.3281 20.3904C31.4297 20.5857 31.8359 20.7107 32.0703 20.6248C32.4062 20.4998 32.5234 20.2185 32.4844 19.6013C32.4609 19.1326 32.4219 19.0232 32.2734 18.8982C32.0391 18.7029 31.7109 18.7107 31.4531 18.9138Z" fill="#1ECCD1"/>
<path d="M27.9062 22.1562C27.7734 22.2499 27.7344 22.3515 27.7344 22.6093C27.7344 22.9062 27.7734 22.9843 28.0547 23.2421C28.5234 23.664 28.8438 23.7812 29.5703 23.7812C30.1016 23.789 30.2578 23.7577 30.625 23.5702C31.1719 23.2968 31.5156 22.8671 31.4531 22.539C31.3438 21.9999 30.8047 21.8749 30.2969 22.2812C30.0312 22.4999 29.9219 22.539 29.5781 22.539C29.2344 22.539 29.125 22.4999 28.8672 22.2812C28.5234 21.9999 28.1875 21.953 27.9062 22.1562Z" fill="#1ECCD1"/>
<path d="M8.28906 19.6952C8.1875 19.7343 8.05469 19.828 8 19.9061C7.85938 20.0858 7.85938 21.0858 8 21.2655C8.26562 21.6171 8.88281 21.578 9.05469 21.203C9.10156 21.0936 9.14062 20.8202 9.14062 20.5858C9.14062 20.0468 9.02344 19.7968 8.72656 19.6874C8.60156 19.6483 8.49219 19.6093 8.48438 19.6171C8.47656 19.6171 8.39062 19.6561 8.28906 19.6952Z" fill="#1ECCD1"/>
<path d="M9.07812 22.9923C8.96875 23.1017 8.90625 23.2736 8.90625 23.4376C8.90625 23.797 9.4375 24.3048 9.96875 24.4611C11.0938 24.7814 12.4219 24.2892 12.5547 23.4923C12.5859 23.2657 12.5625 23.1798 12.3984 23.0157C12.125 22.7423 11.8125 22.7501 11.4453 23.047C10.9453 23.4454 10.4922 23.4298 9.98438 23.0079C9.6875 22.7579 9.30469 22.7501 9.07812 22.9923Z" fill="#1ECCD1"/>
<path d="M22.6721 31.7188C22.4611 31.9219 22.3908 32.2891 22.4377 33.0234C22.469 33.4609 22.5158 33.6406 22.6252 33.75C22.8674 33.9844 23.2815 33.9844 23.5158 33.75C23.6565 33.6094 23.6721 33.4922 23.6721 32.75C23.6721 31.9688 23.6565 31.8906 23.4924 31.7344C23.2658 31.5156 22.8986 31.5156 22.6721 31.7188Z" fill="#1ECCD1"/>
</g>
<defs>
<clipPath id="clip0_1499_2458">
<rect width="40" height="40" fill="white"/>
</clipPath>
</defs>
</svg>
