<svg width="40" height="40" viewBox="0 0 40 40" fill="none" xmlns="http://www.w3.org/2000/svg">
<path d="M4.17187 1.03906C3.99219 1.19531 3.95312 1.30469 3.92187 1.71094C3.89844 1.99219 3.92969 2.28125 3.98437 2.42188C4.23437 3.03125 5.21875 3.03125 5.46875 2.42188C5.52344 2.28125 5.55469 1.99219 5.53125 1.71094C5.48438 1.10156 5.25781 0.859375 4.72656 0.859375C4.47656 0.859375 4.32031 0.914062 4.17187 1.03906Z" fill="#1ECCD1"/>
<path d="M0.242187 3.32837C0.0390625 3.50024 0 3.58618 0 3.88306C0 4.33618 0.078125 4.46899 0.5 4.71899C0.992187 5.00806 1.42187 4.99243 1.72656 4.69556C2.16406 4.25806 1.98437 3.61743 1.32031 3.28149C0.898437 3.06274 0.53125 3.07837 0.242187 3.32837Z" fill="#1ECCD1"/>
<path d="M8.10938 3.28117C7.70312 3.49992 7.5 3.78898 7.5 4.15617C7.5 4.85929 8.28125 5.15616 8.94531 4.71085C9.375 4.42179 9.44531 4.31242 9.45312 3.92179C9.45312 3.23429 8.79688 2.92179 8.10938 3.28117Z" fill="#1ECCD1"/>
<path d="M4.03906 3.35946C3.42188 3.51571 2.82813 3.90633 2.41406 4.42977C1.66406 5.36727 1.67969 6.99227 2.44531 7.96102C3.75781 9.61727 6.39063 9.32821 7.32813 7.42196C7.625 6.8204 7.66406 5.78915 7.42188 5.1329C7.1875 4.5079 6.55469 3.83602 5.9375 3.56258C5.40625 3.3204 4.54688 3.23446 4.03906 3.35946ZM5.38281 5.1329C6.09375 5.66415 6.13281 6.57821 5.46875 7.1329C4.60938 7.85946 3.23438 6.96883 3.53125 5.87508C3.625 5.53915 3.92188 5.17977 4.25781 5.03133C4.5625 4.89071 5.11719 4.93758 5.38281 5.1329Z" fill="#1ECCD1"/>
<path d="M29.2031 3.97656C27.4063 4.5625 26.3594 6.48438 26.8359 8.32031C27.1172 9.38281 27.8047 10.2031 28.8047 10.6875L29.4141 10.9766H32.2656H35.1172L35.625 10.7344C36.2422 10.4453 36.7969 9.89844 37.0937 9.30469C37.2812 8.90625 37.3047 8.78906 37.3047 8.00781C37.3047 7.21875 37.2891 7.10938 37.0781 6.67969C36.7812 6.08594 36.2578 5.5625 35.6641 5.26563C35.2891 5.08594 35.0703 5.03125 34.5469 5.00781C34.1875 4.99219 33.75 5.02344 33.5625 5.07031C33.2266 5.14844 33.2266 5.14844 32.8516 4.79688C32.6484 4.59375 32.2109 4.30469 31.8828 4.14844C31.3359 3.89063 31.2266 3.86719 30.4688 3.85156C29.8359 3.83594 29.5469 3.85938 29.2031 3.97656ZM31.1328 5.61719C31.4922 5.78125 31.8984 6.17188 32.1406 6.60938C32.4531 7.16406 32.9062 7.25 33.5625 6.86719C34.0937 6.57031 34.5391 6.54688 35.0156 6.8125C35.6094 7.14063 35.8906 8.00781 35.5937 8.57813C35.4453 8.85938 35.0859 9.1875 34.8203 9.28906C34.6797 9.34375 33.7187 9.375 32.2344 9.375H29.875L29.4609 9.16406C28.5859 8.73438 28.1641 7.71094 28.4766 6.78906C28.8359 5.72656 30.1328 5.15625 31.1328 5.61719Z" fill="#1ECCD1"/>
<path d="M15.3984 5.35942C13.7031 5.81254 12.5703 7.27348 12.5547 9.02348C12.5469 9.96098 12.9219 11.0313 13.4062 11.4922L13.5937 11.6641L13.3437 11.8204L13.0937 11.9688L12.9375 11.75C12.5625 11.2344 12.3047 11.0079 11.8125 10.7657C11.3516 10.5391 11.2187 10.5079 10.625 10.5079C10.0312 10.5079 9.90625 10.5391 9.4375 10.7657C8.84375 11.0547 8.42187 11.4844 8.15625 12.0704C7.9375 12.5469 7.84375 13.336 7.95312 13.7969C8.01562 14.0704 8.00781 14.1329 7.88281 14.2032C7.67969 14.336 7.63281 14.5391 7.02344 18.0469C6.44531 21.375 6.41406 21.7422 6.67969 22.2735C7.10937 23.125 7.54687 23.3672 9.01562 23.6094L10.0859 23.7813L10.0469 24.2188C10.0234 24.4532 9.96094 25.2657 9.91406 26.0157L9.82812 27.3829L8.82031 29.4688C7.60156 31.9922 7.52344 32.2657 7.76562 33.1875L7.86719 33.5938H7.34375H6.8125L3.54687 35.6719C1.74219 36.8125 0.210937 37.8204 0.140625 37.9063C0.046875 38.0079 0 38.1954 0 38.4141C0 38.6954 0.046875 38.8047 0.226562 38.9922C0.476562 39.2422 0.882812 39.2969 1.19531 39.125C1.28906 39.0782 2.71094 38.1797 4.35156 37.1329L7.33594 35.2344H13.2187C17.6875 35.2266 19.1406 35.2032 19.2656 35.1329C19.3594 35.0782 20.6094 33.9219 22.0391 32.5625L24.6484 30.0782H27.9766C31.2344 30.0782 31.3125 30.0782 31.5156 29.9141C31.8125 29.6797 33.1172 27.9844 33.1719 27.7579C33.3047 27.2579 32.8906 26.7579 32.3437 26.7579C31.9766 26.7579 31.8047 26.9063 31.1328 27.8047L30.6641 28.4297L28.9687 28.4375H27.2734L27.1484 28.0235C27.0859 27.8047 26.4766 25.711 25.7969 23.3829L24.5625 19.1485L24.7812 19.0547C25.0625 18.9375 25.6016 18.3438 25.7578 17.9844C25.9609 17.5079 25.9219 16.6797 25.6797 16.2032C25.3125 15.4766 24.7344 15.1016 23.8437 15.0079L23.3359 14.961L23.0781 14.0625C22.7266 12.8672 22.6719 12.75 22.4141 12.6172C22.0391 12.4219 21.7344 12.4688 21.4375 12.7657C21.1094 13.0938 21.1016 13.2422 21.3984 14.2422L21.625 15.0079L21.4453 14.9844C21.3281 14.9688 20.7187 14.4454 19.8672 13.6329L18.4766 12.3047L19.0234 11.7579C19.8594 10.9219 20.1484 10.2188 20.1562 9.00004C20.1641 6.55473 17.7734 4.71879 15.3984 5.35942ZM17.0078 6.99223C17.8828 7.25004 18.5156 8.12504 18.5156 9.06254C18.5078 10.9375 16.3281 11.9141 14.9375 10.6641C13.9766 9.80473 13.9453 8.4141 14.875 7.50785C15.4609 6.93754 16.2031 6.75785 17.0078 6.99223ZM11.0937 12.2579C11.4141 12.4219 11.7187 12.9063 11.7187 13.2422C11.7187 13.8125 11.1719 14.375 10.625 14.375C10.1016 14.375 9.53125 13.8047 9.53125 13.2813C9.53125 12.9454 9.85937 12.4063 10.1562 12.25C10.5 12.0704 10.75 12.0704 11.0937 12.2579ZM16.6641 13.0313C16.8281 13.1016 17.7344 13.8985 18.6797 14.8047C19.6328 15.7032 20.4844 16.4844 20.5781 16.5391C20.6875 16.6094 21.2266 16.6329 22.3125 16.6407C23.6953 16.6407 23.9062 16.6563 24.0469 16.7735C24.2891 16.9922 24.3203 17.211 24.1328 17.4454L23.9766 17.6563H21.0937H18.2187L17.3594 16.9219C16.8906 16.5235 16.4062 16.1719 16.2891 16.1407C16 16.0704 15.5859 16.2188 15.4375 16.4454C15.2969 16.6563 15.2734 17.125 15.3906 17.3438C15.4297 17.4219 15.7422 17.7266 16.0703 18.0157C16.4062 18.3047 16.6875 18.5704 16.7031 18.6016C16.75 18.711 15.7656 19.3907 15.1172 19.6954C14.7734 19.8594 14.2109 20.0625 13.8672 20.1485C13.2187 20.3204 12.25 20.4766 12.1953 20.4219C12.1406 20.3672 13.125 14.6719 13.25 14.3282C13.4766 13.6875 14.1328 13.1407 14.875 12.961C15.3516 12.8516 16.3516 12.8907 16.6641 13.0313ZM10.2656 16.0157C10.7344 16.1016 11.1328 16.1875 11.1562 16.211C11.1875 16.2422 10.3906 21.1485 10.2578 21.7032C10.1797 22.0469 9.95312 22.1094 9.25781 21.9844C8.91406 21.9297 8.55469 21.8594 8.46094 21.836C8.07812 21.7422 8.07812 21.6485 8.60156 18.625C9.07031 15.9141 9.10156 15.7891 9.25 15.8204C9.34375 15.8438 9.79687 15.9297 10.2656 16.0157ZM22.9531 19.5469C23.1562 20.2579 25.4922 28.2579 25.5234 28.336C25.5547 28.4063 25.4609 28.4375 25.2109 28.4375H24.8594L24.7734 28.0782C24.6172 27.461 24.4375 27.1954 22.5859 24.8672L20.7969 22.6094L19.5391 22.0079C18.6328 21.5704 18.2812 21.3672 18.2812 21.2657C18.2812 21.1954 18.3516 20.7266 18.4375 20.2344C18.5234 19.7422 18.5937 19.3282 18.5937 19.3125C18.5937 19.3047 19.5625 19.2969 20.7422 19.2969H22.8828L22.9531 19.5469ZM16.5625 21.3907C16.4141 22.2969 16.4609 22.3516 17.9375 23.0782C18.625 23.4141 19.3047 23.7422 19.4531 23.8047C19.6641 23.8907 20.1094 24.3985 21.3984 26.0391C22.4531 27.375 23.1016 28.2657 23.1562 28.4454C23.25 28.8125 23.1719 29.0938 22.8672 29.4219C22.5469 29.7735 22.0078 29.8672 21.6094 29.6563C21.4609 29.5782 20.75 28.7579 19.8594 27.625L18.3516 25.7266L17.0625 25.0938L15.7734 24.4532L14.2031 24.1797C12.5312 23.8907 12.2656 23.7891 11.9766 23.3594C11.7969 23.1016 11.7266 22.4141 11.8594 22.2188C11.8906 22.1719 12.2656 22.086 12.6953 22.0391C14.0078 21.8907 15.5391 21.4297 16.3281 20.9454C16.4766 20.8594 16.6094 20.8047 16.625 20.8204C16.6406 20.836 16.6172 21.0938 16.5625 21.3907ZM12.2891 25.5C12.5156 25.5625 12.9531 25.6563 13.2656 25.7032L13.8281 25.7969V26.1172C13.8281 26.2969 13.7891 26.8516 13.7578 27.3516L13.6875 28.2657L12.5781 30.5547C11.2734 33.2579 11.25 33.3047 10.9062 33.4688C10.1953 33.8047 9.42187 33.3829 9.32031 32.6016C9.28906 32.3438 9.42187 32.0313 10.3516 30.1172L11.4219 27.9297L11.5 26.7969C11.5937 25.3985 11.6094 25.2813 11.7656 25.3438C11.8281 25.3672 12.0625 25.4375 12.2891 25.5ZM16.9375 26.8672C17.1797 26.9922 17.6094 27.4766 18.7422 28.8985C19.9609 30.4375 20.3047 30.8204 20.625 31L21.0156 31.2266L19.7734 32.4063L18.5312 33.5938H15.75C14.2187 33.5938 12.9687 33.5782 12.9687 33.5625C12.9687 33.5547 13.4922 32.461 14.1328 31.1485L15.2969 28.7579L15.3437 28.0704C15.375 27.6954 15.4141 27.1172 15.4453 26.7891L15.4844 26.1875L16.0547 26.4454C16.3672 26.5938 16.7656 26.7813 16.9375 26.8672Z" fill="#1ECCD1"/>
<path d="M0.664062 7.58613C0.179688 7.83613 0 8.07832 0 8.47675C0 9.17207 0.59375 9.47675 1.28906 9.133C1.75 8.90644 1.95312 8.64863 1.95312 8.31269C1.95312 7.93769 1.8125 7.67988 1.52344 7.53925C1.1875 7.383 1.03906 7.39082 0.664062 7.58613Z" fill="#1ECCD1"/>
<path d="M7.92969 7.53125C7.49219 7.71875 7.35156 8.42188 7.67969 8.78125C7.89844 9.02344 8.41406 9.29688 8.65625 9.29688C8.89844 9.29688 9.27344 9.09375 9.375 8.91406C9.41406 8.82813 9.45312 8.61719 9.45312 8.44531C9.45312 8.07813 9.25781 7.82813 8.78906 7.58594C8.42969 7.39844 8.25781 7.39063 7.92969 7.53125Z" fill="#1ECCD1"/>
<path d="M4.30469 9.64079C4.02344 9.79704 3.91406 10.0705 3.90625 10.6095C3.90625 11.0549 3.92969 11.133 4.13281 11.3361C4.4375 11.633 4.96094 11.6564 5.28125 11.383C5.46094 11.2267 5.5 11.1174 5.53125 10.7111C5.55469 10.4299 5.52344 10.1408 5.46875 10.0002C5.29687 9.5861 4.71875 9.40641 4.30469 9.64079Z" fill="#1ECCD1"/>
<path d="M36.9375 20.5547C36.7422 20.6328 35.5547 22.0469 35.3281 22.4766C35.1641 22.7734 35.2188 23.1016 35.4609 23.375C35.6563 23.5937 35.7422 23.6328 36.0391 23.6328C36.4531 23.6328 36.5938 23.5234 37.2422 22.6719L37.6797 22.1094H38.6016C39.4766 22.1094 39.5313 22.1016 39.7578 21.9062C39.9609 21.7344 40 21.6484 40 21.3516C40 20.6016 39.7344 20.4687 38.2266 20.4766C37.6328 20.4766 37.0547 20.5156 36.9375 20.5547Z" fill="#1ECCD1"/>
<path d="M33.7344 24.4217C33.4531 24.5701 33.3594 24.7576 33.3594 25.1561C33.3594 25.4139 33.4062 25.5311 33.5859 25.7108C34.0938 26.2108 34.9219 25.867 34.9219 25.1561C34.9219 24.7498 34.8203 24.5623 34.5312 24.4139C34.25 24.2655 34.0078 24.2655 33.7344 24.4217Z" fill="#1ECCD1"/>
</svg>
