<svg width="40" height="40" viewBox="0 0 40 40" fill="none" xmlns="http://www.w3.org/2000/svg">
<g clip-path="url(#clip0_535_87)">
<path d="M7.42189 0.148439C6.77346 0.351564 6.31252 0.656251 5.78127 1.21875C5.52346 1.5 5.28127 1.70313 5.23439 1.67969C5.10158 1.59375 4.12502 1.80469 3.74221 1.99219C1.56252 3.10156 1.60939 6.19531 3.81252 7.28125L4.33596 7.53906L9.51564 7.5625L14.6953 7.58594L14.9688 7.3125C15.336 6.94531 15.336 6.57031 14.9688 6.20313L14.7031 5.9375H13.2266H11.7422L12 5.4375C13.0235 3.39844 11.9375 0.828126 9.75783 0.148439C9.14064 -0.0468736 8.02346 -0.0468736 7.42189 0.148439ZM9.57814 1.85938C10.875 2.52344 11.125 4.28906 10.0781 5.30469C9.48439 5.88281 9.20314 5.9375 6.86721 5.9375C4.62502 5.9375 4.48439 5.91406 4.10158 5.45313C3.64846 4.91406 3.67189 4.20313 4.17189 3.70313C4.51564 3.35938 4.88283 3.27344 5.47658 3.375C6.06252 3.49219 6.39064 3.35938 6.59377 2.92969C7.14064 1.78125 8.49221 1.29688 9.57814 1.85938Z" fill="#1ECCD1"/>
<path d="M26.625 3.42969L26.3672 3.65625L26.3438 17.6875L26.3281 31.7188H25.3906H24.4531V22.2578V12.7969L24.1875 12.5312L23.9219 12.2656H22.7031H21.4844V11.2812C21.4844 10.3047 21.4844 10.2969 21.2578 10.0703L21.0313 9.84375H17.9688H14.9063L14.6797 10.0703C14.4531 10.2969 14.4531 10.3047 14.4531 11.2812V12.2656H13.2813C11.9922 12.2656 11.7422 12.3281 11.5781 12.6953C11.5156 12.8359 11.4844 13.4922 11.4844 14.7969V16.6953L10.8594 16.4766C9.82032 16.1094 9.01564 15.9922 7.81251 16.0391C6.67189 16.0859 5.92189 16.2422 4.97657 16.6406C3.17189 17.3984 1.4922 19.0703 0.726572 20.8828C-0.0312403 22.6797 -0.117178 24.8203 0.492197 26.6406L0.671885 27.1719L0.492197 27.4297C0.12501 27.9688 -0.0156153 28.4922 0.0156347 29.2578C0.0390722 29.8672 0.0781347 30.0391 0.289072 30.4766C0.78126 31.4766 1.66407 32.0469 2.78907 32.0938C3.51564 32.1328 4.10157 31.9922 4.56251 31.6797L4.85939 31.4844L5.60939 31.7266C6.02345 31.8594 6.69532 32.0078 7.09376 32.0547L7.81251 32.1406V33.6328V35.125L7.08595 35.4297C4.64064 36.4531 1.75782 38.0859 1.25782 38.7188C1.02345 39.0156 1.03907 39.4531 1.29688 39.7578L1.50001 40H12.4297H23.3672L23.5547 39.8125C23.9063 39.4609 23.9063 38.9766 23.5547 38.625L23.3672 38.4375L14.0078 38.4297H4.64845L5.50782 37.9922C6.89845 37.2812 7.76564 36.9219 7.8047 37.0469C7.82032 37.1016 7.93751 37.2422 8.0547 37.3594C8.35157 37.6641 8.81251 37.6641 9.14064 37.3594C9.34376 37.1875 9.39064 37.0703 9.4297 36.7031L9.47657 36.2578L10.6563 35.8672C18.2891 33.3438 27.211 32.6875 37.461 33.8984C38.4531 34.0156 39.336 34.0938 39.4297 34.0781C39.5235 34.0625 39.6953 33.9531 39.8047 33.8516L40 33.6484V18.6562V3.65625L39.7735 3.42969L39.5469 3.20312H33.211H26.875L26.625 3.42969ZM38.4375 15.9766V27.1094H33.2031H27.9688V15.9766V4.84375H33.2031H38.4375V15.9766ZM19.8594 12.4609C19.8828 13.4062 19.8906 13.4375 20.1016 13.6484C20.3125 13.8672 20.3203 13.8672 21.5625 13.8906L22.8125 13.9141V22.8828V31.8438L21.4688 31.9766C19.0156 32.2188 15.2344 32.8516 13.5391 33.3125L13.125 33.4219V32.5859V31.75H13.9297C15.1641 31.75 16.1094 31.3984 16.9141 30.625L17.2266 30.3203L18.9453 30.2969C20.875 30.2734 21.0234 30.2344 21.1563 29.7344C21.2578 29.3828 21.1953 29.1094 20.9609 28.8672C20.7656 28.6719 20.75 28.6719 19.4453 28.6719H18.125L18.1797 28.3359C18.3047 27.6484 18.2266 26.6094 18.0078 26.0703C17.9531 25.9453 18.0469 25.9375 19.3594 25.9375C20.75 25.9375 20.7578 25.9375 20.9609 25.7422C21.1953 25.5 21.2578 25.2266 21.1563 24.875C21.0234 24.3672 20.8984 24.3438 18.7109 24.2969C16.7891 24.2578 16.75 24.2578 16.4688 24.0625C16.1953 23.8828 16.1719 23.8359 16.1719 23.5C16.1719 23.1719 16 22.125 15.8984 21.7812C15.8516 21.6484 15.9531 21.6406 18.2734 21.6406H20.6875L20.9219 21.4453C21.3359 21.1016 21.2891 20.4297 20.8359 20.1484C20.6016 20.0078 20.4375 20 17.8594 20L15.1328 20.0078L14.7813 19.4766C14.5859 19.1875 14.1328 18.6562 13.7813 18.2969L13.125 17.6484V15.7812V13.9062H14.2813C15.9688 13.9062 16.0938 13.7891 16.0938 12.2422V11.4844H17.9609H19.8281L19.8594 12.4609ZM9.72657 17.8438C10.2969 18 11.2031 18.4219 11.6953 18.7578C13.3594 19.8906 14.5234 21.9688 14.5391 23.8203C14.5469 24.7188 14.6172 24.875 15.2031 25.2422C16.1641 25.8516 16.6016 26.5781 16.5938 27.5781C16.5859 28.9375 15.4219 30.0938 14.0703 30.1016C13.4844 30.1094 13.0859 29.9922 12.5703 29.6719C12.1094 29.3906 11.7813 29.3906 11.2422 29.6875C10.7188 29.9688 9.82032 30.3125 9.60939 30.3125C9.45314 30.3125 9.45314 30.25 9.45314 27.8516C9.45314 25 9.41407 25.1875 10.2422 24.3281C10.7656 23.7812 10.8203 23.6797 10.7891 23.2031C10.7656 22.8906 10.3672 22.5781 9.9922 22.5781C9.69532 22.5781 9.6172 22.625 9.00782 23.2188C8.10157 24.1094 7.8672 24.5859 7.82814 25.6484L7.79689 26.4219L7.19532 25.8281C6.85939 25.4922 6.4922 25.2031 6.35939 25.1641C6.09376 25.0938 5.7422 25.1719 5.53907 25.3594C5.3672 25.5156 5.27345 25.9297 5.35157 26.1875C5.38282 26.2812 5.85939 26.8203 6.41407 27.3828C7.57814 28.5625 7.71876 28.8125 7.78907 29.8047L7.83595 30.4688H7.60939C7.1797 30.4609 6.32032 30.2422 5.53126 29.9219C5.00001 29.7109 4.67189 29.6172 4.53126 29.6484C4.42189 29.6719 4.16407 29.8516 3.96095 30.0391C3.72657 30.25 3.48439 30.4062 3.31251 30.4375C2.40626 30.6094 1.64064 30.0234 1.64064 29.1562C1.64064 28.7188 1.73439 28.5156 2.14064 28.0547C2.57814 27.5703 2.59376 27.3828 2.27345 26.6562C1.85939 25.7031 1.75782 25.2188 1.76564 24.0625C1.76564 22.875 1.87501 22.3672 2.31251 21.4219C3.21095 19.4609 4.96095 18.1328 7.18751 17.7031C7.59376 17.625 9.26564 17.7188 9.72657 17.8438ZM38.4375 30.5469C38.4375 31.5312 38.4219 32.3438 38.4063 32.3438C38.3906 32.3438 37.7813 32.2734 37.0547 32.1875C34.625 31.9062 30.5 31.6406 28.461 31.6406H27.9688V30.1953V28.75H33.2031H38.4375V30.5469ZM11.4844 32.6406V33.8672L10.4688 34.1875L9.45314 34.5078V33.2812V32.0547L10.1328 31.8828C10.5 31.7891 10.9531 31.6484 11.125 31.5703C11.3047 31.4844 11.4531 31.4141 11.4688 31.4141C11.4766 31.4062 11.4844 31.9609 11.4844 32.6406Z" fill="#1ECCD1"/>
<path d="M29.8203 7.35156C29.5156 7.53125 29.4531 7.88281 29.4531 9.53906C29.4531 11.25 29.5078 11.5312 29.8906 11.7109C30.0234 11.7734 31.0703 11.7969 33.3281 11.7969H36.5781L36.8047 11.5703L37.0312 11.3438V9.51562V7.6875L36.8125 7.47656L36.5938 7.26562H33.2734C31.0625 7.27344 29.9141 7.29688 29.8203 7.35156ZM35.3906 9.49219V10.1562H33.2422H31.0938V9.49219V8.82812H33.2422H35.3906V9.49219Z" fill="#1ECCD1"/>
<path d="M30.0156 13.8359C29.8594 13.8828 29.6953 14.0078 29.6016 14.1641C29.4609 14.3984 29.4531 14.5312 29.4688 16.1562L29.4922 17.9062L29.75 18.1328L30 18.3594H33.2891H36.5781L36.8047 18.1328L37.0313 17.9062V16.0703V14.2422L36.8359 14.0469C36.7266 13.9375 36.5313 13.8281 36.3984 13.7969C36.0078 13.7188 30.2969 13.7578 30.0156 13.8359ZM35.3906 16.0547V16.7188H33.2422H31.0938V16.0547V15.3906H33.2422H35.3906V16.0547Z" fill="#1ECCD1"/>
<path d="M29.9453 20.4297C29.4844 20.6328 29.4453 20.8203 29.4688 22.7422L29.4922 24.4688L29.75 24.6953L30 24.9219H33.2891H36.5781L36.8047 24.6953L37.0313 24.4688V22.6562C37.0313 20.6641 37.0078 20.5547 36.5469 20.3984C36.1563 20.2578 30.2656 20.2891 29.9453 20.4297ZM35.3906 22.6172V23.2812H33.2422H31.0938V22.6172V21.9531H33.2422H35.3906V22.6172Z" fill="#1ECCD1"/>
<path d="M15.0078 15.8125C14.4844 16.1016 14.4766 16.9531 14.9922 17.2266C15.1875 17.3281 15.6406 17.3437 17.9453 17.3437C20.961 17.3437 20.9219 17.3516 21.1406 16.8359C21.2656 16.5312 21.1719 16.1094 20.9297 15.8906C20.7735 15.75 20.5938 15.7422 17.9766 15.7266C15.7656 15.7109 15.1563 15.7266 15.0078 15.8125Z" fill="#1ECCD1"/>
<path d="M17.4844 6.0859C16.9297 6.53121 17.1094 7.42184 17.7891 7.54684C18.1016 7.60153 18.4766 7.46871 18.6328 7.23434C18.8125 6.98434 18.7813 6.45309 18.5703 6.2109C18.3203 5.91403 17.7813 5.85934 17.4844 6.0859Z" fill="#1ECCD1"/>
<path d="M25.8282 38.6797C25.375 39.2188 25.711 40 26.4063 40C26.8047 40 27.0782 39.8281 27.1875 39.4922C27.2969 39.1641 27.2266 38.8906 26.9766 38.6328C26.8203 38.4766 26.6953 38.4375 26.4063 38.4375C26.0782 38.4375 26 38.4688 25.8282 38.6797Z" fill="#1ECCD1"/>
<path d="M29.2656 38.6797C28.9766 39.0234 28.9844 39.4688 29.2891 39.7734L29.5156 40H34.5547H39.5859L39.7969 39.7969C39.9609 39.6328 40 39.5156 40 39.2188C40 38.9219 39.9609 38.8047 39.7969 38.6406L39.5859 38.4375H34.5313H29.4688L29.2656 38.6797Z" fill="#1ECCD1"/>
</g>
<defs>
<clipPath id="clip0_535_87">
<rect width="40" height="40" fill="white"/>
</clipPath>
</defs>
</svg>
